<?xml version="1.0" encoding="UTF-8"?>
<!DOCTYPE svg PUBLIC "-//W3C//DTD SVG 1.1//EN" "http://www.w3.org/Graphics/SVG/1.1/DTD/svg11.dtd">
<!-- Creator: CorelDRAW 2019 (64-Bit) -->
<svg xmlns="http://www.w3.org/2000/svg" xml:space="preserve" width="32.9793mm" height="57.5585mm" version="1.1" style="shape-rendering:geometricPrecision; text-rendering:geometricPrecision; image-rendering:optimizeQuality; fill-rule:evenodd; clip-rule:evenodd"
viewBox="0 0 1369.86 2390.8"
 xmlns:xlink="http://www.w3.org/1999/xlink">
 <defs>
  <style type="text/css">
   <![CDATA[
    .fil0 {fill:#256930}
    .fil1 {fill:#3D8E41}
    .fil44 {fill:#4F0D0F}
    .fil43 {fill:#500E0F}
    .fil42 {fill:#510F10}
    .fil41 {fill:#520F10}
    .fil40 {fill:#531010}
    .fil39 {fill:#541110}
    .fil38 {fill:#551211}
    .fil37 {fill:#561211}
    .fil36 {fill:#571311}
    .fil35 {fill:#581412}
    .fil34 {fill:#591512}
    .fil33 {fill:#5A1612}
    .fil32 {fill:#5B1713}
    .fil31 {fill:#5C1813}
    .fil30 {fill:#5D1813}
    .fil29 {fill:#5E1914}
    .fil28 {fill:#5F1A14}
    .fil27 {fill:#601B14}
    .fil26 {fill:#611B14}
    .fil25 {fill:#621C15}
    .fil3 {fill:#631D15}
    .fil24 {fill:#641E15}
    .fil23 {fill:#661F16}
    .fil22 {fill:#672016}
    .fil21 {fill:#692117}
    .fil20 {fill:#6A2217}
    .fil19 {fill:#6C2318}
    .fil18 {fill:#6D2418}
    .fil17 {fill:#6E2519}
    .fil16 {fill:#702619}
    .fil15 {fill:#71271A}
    .fil14 {fill:#73291A}
    .fil13 {fill:#742A1B}
    .fil12 {fill:#762B1B}
    .fil11 {fill:#772C1C}
    .fil10 {fill:#782D1C}
    .fil9 {fill:#7A2E1D}
    .fil8 {fill:#7B2F1D}
    .fil7 {fill:#7D301E}
    .fil6 {fill:#7E311E}
    .fil5 {fill:#80321F}
    .fil4 {fill:#81331F}
    .fil2 {fill:#256930;fill-rule:nonzero}
   ]]>
  </style>
 </defs>
 <g id="Слой_x0020_1">
  <metadata id="CorelCorpID_0Corel-Layer"/>
  <g id="_2989281021536">
   <path class="fil0" d="M512.62 958.41c18.06,5.5 28.14,19.02 40.81,31.61 20.08,19.93 13.15,24.96 7.61,57.74 -21.6,127.83 -37.43,275.45 -43.23,405.81 -4.61,103.62 0.48,181.01 15.85,278.11 14.26,90.03 40.93,164.4 58.36,247.73 35.83,8.07 116.43,-9.1 192.27,6.54l111.08 17.57c-7.89,-19.65 -30.06,-47.7 -43.26,-68.09 -80.27,-123.98 -132.31,-242.46 -177.21,-386.43 -23.12,-74.13 -19.42,-86.2 16.85,-174.43 83.28,-202.59 97.8,-147.34 169.93,-164.17 31.46,-7.34 55.36,-17.75 81.07,-31.59 96.44,-51.9 178.8,-164.88 175.69,-269.39 -140.35,-21.7 -300.65,87.02 -344.22,239 -17.64,61.53 -4.37,38.3 -44,76.86 -35.52,34.56 -72.88,87.3 -88.78,150.76l-9.57 -17.92c-6.58,-24.93 -15.77,-155.34 -16.87,-180.21 -3.1,-69.68 4.97,-141.26 13.82,-208.94 8.11,-62 67.18,-322.88 99.12,-347.64 16.32,-7.76 129.13,23.99 176.44,-10.63 64.28,-21.24 136.92,-92.38 145.99,-146.63 -16.25,-10.77 -50.41,-15.66 -69.97,-17.07 -125.62,-0.35 -174.35,46.14 -230.17,112.52 2.71,-12.44 23.95,-72.18 29.24,-78.26 10.45,-12.02 118.72,-46.48 179.81,-145.13 39.29,-51.14 48.17,-92.22 67.51,-164.29 4.52,-45.5 6.08,-135.45 -14.14,-171.84 -40.35,0.38 -117.66,54.98 -139.93,73.77 -81.04,68.36 -135.78,170.68 -139.34,285.78 -0.88,28.48 8.82,83.46 6.7,99.51 -1.57,11.96 -27.24,65.25 -37.1,72.32 -23.72,-49.05 -7.68,-66 -48.62,-113.93 -24.52,-28.71 -60.96,-51.85 -115.78,-56.42 2.77,63.02 14.98,90.15 47.53,124.52 47.77,50.44 97.55,39.99 107.33,59.63 4.32,17.91 -23.15,74.85 -30.73,95.18 -11.99,32.19 -23.13,67.85 -32.82,100.65 -20.18,68.3 -40.11,145.01 -52.11,216.92 -88.07,-30.92 -33.07,-68.63 -147.2,-166.57 -95.24,-81.74 -189.93,-85.82 -309.26,-66.55 21.78,136.1 217.23,285.02 391.29,233.59z"/>
   <path class="fil1" d="M513.78 958.39c0.49,-21.84 4.8,-38.36 2.39,-53.71 -6.85,-43.67 -33.09,-69.26 -84.43,-113.32 -95.24,-81.74 -191.1,-85.79 -310.43,-66.53 21.78,136.1 218.4,285 392.46,233.57zm446.65 -622.26c39.29,-51.14 48.17,-92.22 67.51,-164.29 4.52,-45.5 6.08,-135.45 -14.14,-171.84 -40.35,0.38 -117.66,54.98 -139.93,73.77 -81.04,68.36 -135.78,170.68 -139.34,285.78 -1.5,48.59 0.92,69.37 25.52,107.78 27.45,22.86 146.75,-44.59 200.38,-131.19zm-304.91 81.32c-24.52,-28.71 -60.96,-51.85 -115.78,-56.42 2.77,63.02 14.98,90.15 47.53,124.52 25.34,26.77 51.14,36.67 71.57,42.33 7.59,2.11 35.89,-16.38 29.18,-42.87 -5.45,-21.51 -9.78,-40.96 -32.51,-67.57zm72.42 203.9c8.39,-23.26 11.25,-43.4 22.28,-61.81 46.08,-76.86 123.56,-112.84 231.34,-112.54 19.56,1.41 53.72,6.3 69.97,17.07 -9.07,54.25 -81.71,125.39 -145.99,146.63 -47.31,34.61 -161.28,2.88 -177.6,10.65zm37.52 563.95l18.99 36.19c22.18,-11.64 43.58,-2.97 78.39,-11.09 31.46,-7.34 55.36,-17.75 81.07,-31.59 96.44,-51.9 178.8,-164.88 175.69,-269.39 -134.87,-20.85 -248.02,55.29 -311.85,162.55 -20.84,35.02 -33.54,76.47 -42.29,113.33z"/>
   <path class="fil2" d="M848.9 246c17.49,-32.08 144.22,-240.58 166.04,-245.8 -0.16,12.61 -133.28,222.31 -150.66,254.19 -12.21,22.39 -83.14,196.42 -94.33,193.23 -11.46,-6.57 68.02,-181.57 78.95,-201.62zm21.69 886.13c26.14,-3.66 71.36,-17.52 79.7,32.98 -2.63,-0.23 -12.23,-18.55 -29.66,-25.09 -20.69,-7.76 -49.52,-4.2 -50.04,-7.88zm25.49 -153.08c7.26,10.65 19.97,62.87 -1.89,88.34 -1.56,1.82 2.47,-4.08 3.4,-29.22 0.5,-13.58 -3.78,-33.93 -1.5,-59.12zm154.08 106.68c-31.4,8.13 -47.5,-31.56 -104.77,-10.03 22.07,-41 94.95,-27.33 104.77,10.03zm-57.13 -152.29c16.83,18.29 19.76,25.39 3.71,50.93 34.51,-27.06 72.13,-61.13 116.31,-68.71 -19.63,29.43 -127.13,98.75 -166.25,133.2 -69.95,61.6 -126.83,121.9 -129.72,133.46l-17.03 -4.26c3.51,-14.06 62.87,-78.75 135.14,-142.38 15.07,-13.27 30.74,-26.55 46.6,-39.39 -9.28,-9.44 18.95,-29.16 11.23,-62.84zm42.68 54.12c3.43,-4.76 8.67,-8.26 14.94,-10.74 13.12,-5.18 23.58,-1.35 49.07,3.7 -8.8,4.49 -13.53,5.51 -32.07,7.06 -18.55,1.55 -24.61,5.26 -31.94,-0.02zm-731.76 -147.06c-8.67,0 -14.31,0.12 -19.4,0.23 -42.08,0.9 -58.99,1.25 -87.08,-44.18l-1.04 -1.83c0.14,-0.07 24.47,20.71 52.66,29.41 25.33,7.82 54.86,2.8 54.86,16.37zm121.59 58.28c-7.96,6.9 -30.94,11.29 -54.43,12.9 -25.34,1.74 -52.38,0.42 -61.91,-4.34 20.93,-1.62 32.31,-4.63 58.42,-10.98 23.49,-5.72 51.05,-5.53 57.93,2.42zm14.82 -82.37c0.05,0.92 5.22,14.21 14.83,30.7 9.41,16.15 23.48,35.51 6.04,37.02 -19.64,-15.57 -20.32,-49.53 -20.87,-67.72zm-66.44 11.17c8.6,-33.86 -34.97,-53.27 -30.19,-80.22 20.61,9.41 57.56,53.66 30.19,80.22zm-87.6 -42.7c-4.32,-28.56 -36.74,-39.14 -54.86,-58.42 55.38,3.98 74.63,55.76 57.55,59.83 15.19,7.99 30.21,16.24 45.05,24.75 59.51,34.15 144.22,65.05 168.04,131.36 -62.85,-50.13 -106.55,-75.83 -176.76,-116.12 -66.45,-38.14 -136.99,-52.7 -193.02,-93.77 59.1,19.51 99.95,24.07 154.01,52.36zm636.52 -472.92c-11.32,17.66 -81.12,115.94 -105.84,99.19 -9.55,0.56 89.23,-87.46 105.84,-99.19zm-324.79 172.39c7.53,-0.78 36.87,8.33 43.33,8.69 -14.97,20.29 -25.8,4.62 -43.33,-8.69zm-41.4 -69.89c25.54,18.18 16.8,15.47 53.85,30.17 -22.92,-27.65 -36,-50.72 -64.62,-75.28 37.3,15.34 65.34,48.59 89.18,77.48 22.07,26.74 39.55,61.43 39.38,65.17 -30.33,-15.21 -32.51,-29.32 -52.91,-54.04l-7.87 -9.52c-12.98,15.52 -47.66,-18.18 -57.01,-33.98zm93.87 51.31c1.33,-21.62 -4.85,-16.77 4.44,-40.65 13.35,16.28 19.8,32.6 6.5,50.56l-10.94 -9.91zm-37.19 -76.67c10.82,2.82 19.78,26.85 10.23,34.57 -5.43,-10.22 -5.23,-16.76 -10.23,-34.57zm311.5 69.82c7.38,18.68 0.02,33.16 -24.37,43.11 22.61,-25.42 13.08,-23.75 24.37,-43.11zm-73.43 24.69c5.42,10.41 13.66,32.69 -17.73,51.83 -0.11,-15.55 14.88,-10.58 17.73,-51.83zm42.34 73.99c17.5,9.36 19.44,20.46 19.85,37.69 -25.2,-12.61 -28.48,-34.85 -62.22,-34.44 11.65,-11.9 26.94,-11.51 42.37,-3.25zm38.23 -49.58c-13.51,5.7 -27.29,11.84 -40.95,18.26 -26.74,12.55 -137.98,84.62 -150.43,84.63 16.17,-36.01 113.49,-86.64 143.01,-100.5 58.3,-27.37 90.68,-46.2 162.38,-44.65 -48.77,14.28 -53.09,17.25 -104.03,38.11 23.94,-6.18 47.67,3.31 59.92,23.68 -15.02,-6.44 -30.8,-19.05 -69.91,-19.53zm-137.13 -307.64c17.71,15.39 31.38,72.54 26.8,96.07 -15.87,-33.6 -25.15,-68.38 -26.8,-96.07zm64.25 -107.17c26.01,21 39.14,64.23 18.24,92.97 3.9,-56.76 -19.95,-77.52 -18.24,-92.97zm50.05 159.95c15.75,-8.96 82.38,-20.61 89.88,1.24 -27.66,9.48 -63.31,3.82 -81.22,14.01 -25.95,14.75 -26.55,19.17 -55.04,17.37 17.9,-13.53 27.78,-22.04 46.39,-32.61zm116.81 -94.38c-7.85,2.1 -101.38,21.88 -102.1,19.72 46.38,-21.43 68.26,-39.37 102.1,-19.72z"/>
   <g>
    <path class="fil3" d="M195.65 2390.19l1110.33 0.02 63.88 0.59c-172.13,-333.59 -1042.39,-388.33 -1369.86,-0.52l191.18 -0.06 4.47 -0.03z"/>
    <path class="fil4" d="M258.1 2390.15l1027.49 -0.14 84.27 0.79c-51.63,-100.07 -124.25,-181.6 -195.58,-239.05 -112.71,-90.8 -176.66,-91.35 -278.91,-148.22l-111.08 -17.57c-75.84,-15.64 -156.44,1.53 -192.27,-6.54 -41.9,42.1 -493.45,88.92 -592.02,410.86l252.2 -0.08 5.89 -0.04z"/>
    <g>
     <path class="fil5" d="M255.12 2390.15c335,-0.04 670,-0.09 1005,-0.13 35.56,0.25 71.13,0.5 106.7,0.75 -48.16,-95.29 -116.31,-172.93 -183.22,-227.64 -109.4,-90.45 -174.43,-94.12 -277.09,-150.47 -40.55,-7.77 -82.25,-14.59 -124.17,-20.33 -78.9,-15.06 -162.55,2.2 -202.89,-3.38 -46.11,42.2 -481.67,90.09 -579.44,401.32 83.1,-0.03 166.2,-0.06 249.3,-0.08 1.94,-0.02 3.88,-0.03 5.83,-0.04z"/>
     <path class="fil6" d="M252.15 2390.16c327.5,-0.04 655,-0.08 982.51,-0.12 43.04,0.24 86.08,0.47 129.12,0.71 -44.69,-90.52 -108.36,-164.27 -170.87,-216.23 -106.08,-90.09 -172.19,-96.88 -275.27,-152.71 -44.06,-9.68 -90.43,-17.45 -137.27,-23.08 -81.95,-14.48 -168.66,2.87 -213.5,-0.22 -50.32,42.3 -469.89,91.26 -566.87,391.78 82.13,-0.03 164.26,-0.06 246.39,-0.08 1.92,-0.01 3.84,-0.02 5.76,-0.04z"/>
     <path class="fil7" d="M249.18 2390.16c320,-0.04 640.01,-0.08 960.02,-0.12 50.51,0.22 101.03,0.45 151.54,0.68 -41.22,-85.74 -100.42,-155.6 -158.51,-204.82 -102.76,-89.74 -169.95,-99.64 -273.44,-154.95 -47.58,-11.59 -98.63,-20.33 -150.37,-25.84 -85.01,-13.9 -174.78,3.54 -224.12,2.94 -54.53,42.4 -458.11,92.43 -554.3,382.23 81.16,-0.03 162.32,-0.05 243.49,-0.08 1.9,-0.02 3.79,-0.03 5.69,-0.04z"/>
     <path class="fil8" d="M246.2 2390.16c312.51,-0.04 625.02,-0.07 937.53,-0.11 57.99,0.21 115.98,0.43 173.96,0.64 -37.74,-80.97 -92.48,-146.94 -146.16,-193.41 -99.44,-89.38 -167.72,-102.4 -271.62,-157.2 -51.1,-13.5 -106.82,-23.2 -163.46,-28.59 -88.06,-13.32 -180.9,4.21 -234.73,6.1 -58.75,42.5 -446.33,93.6 -541.72,372.69 80.19,-0.03 160.38,-0.05 240.58,-0.08 1.87,-0.02 3.75,-0.03 5.62,-0.04z"/>
     <path class="fil9" d="M243.23 2390.16c305.01,-0.03 610.02,-0.07 915.03,-0.1 65.46,0.2 130.92,0.4 196.39,0.6 -34.27,-76.2 -84.53,-138.27 -133.8,-181.99 -96.12,-89.03 -165.48,-105.17 -269.79,-159.44 -54.62,-15.41 -115.01,-26.06 -176.55,-31.35 -91.12,-12.74 -187.02,4.88 -245.35,9.26 -62.95,42.6 -434.56,94.77 -529.15,363.14 79.22,-0.03 158.45,-0.05 237.67,-0.08 1.85,-0.02 3.7,-0.02 5.55,-0.04z"/>
     <path class="fil10" d="M240.25 2390.16c297.52,-0.03 595.03,-0.06 892.54,-0.1 72.93,0.19 145.87,0.38 218.81,0.56 -30.8,-71.42 -76.59,-129.6 -121.45,-170.58 -92.81,-88.68 -163.25,-107.93 -267.97,-161.69 -58.14,-17.33 -123.2,-28.93 -189.65,-34.11 -94.17,-12.16 -193.13,5.56 -255.96,12.42 -67.17,42.7 -422.78,95.94 -516.58,353.6 78.26,-0.02 156.51,-0.05 234.77,-0.08 1.83,-0.01 3.66,-0.02 5.48,-0.04z"/>
     <path class="fil11" d="M237.28 2390.17c290.02,-0.03 580.03,-0.06 870.05,-0.09 80.41,0.18 160.82,0.35 241.24,0.53 -27.33,-66.65 -68.64,-120.93 -109.09,-159.17 -89.49,-88.33 -161.01,-110.69 -266.14,-163.93 -61.66,-19.23 -131.39,-31.8 -202.75,-36.86 -97.23,-11.58 -199.25,6.23 -266.58,15.58 -71.38,42.8 -411,97.11 -504,344.05 77.29,-0.02 154.57,-0.05 231.86,-0.07 1.81,-0.02 3.61,-0.03 5.42,-0.04z"/>
     <path class="fil12" d="M234.31 2390.17c282.52,-0.03 565.04,-0.05 847.56,-0.08 87.88,0.17 175.77,0.33 263.66,0.49 -23.85,-61.87 -60.69,-112.27 -96.74,-147.76 -86.17,-87.98 -158.77,-113.46 -264.32,-166.18 -65.18,-21.15 -139.58,-34.68 -215.84,-39.62 -100.29,-10.99 -205.36,6.9 -277.2,18.75 -75.58,42.9 -399.22,98.28 -491.43,334.51 76.32,-0.02 152.64,-0.05 228.96,-0.07 1.79,-0.02 3.57,-0.02 5.35,-0.04z"/>
     <path class="fil13" d="M231.33 2390.17c275.02,-0.02 550.04,-0.05 825.07,-0.07 95.36,0.15 190.72,0.3 286.08,0.46 -20.38,-57.1 -52.75,-103.6 -84.38,-136.35 -82.85,-87.63 -156.54,-116.22 -262.5,-168.42 -68.69,-23.06 -147.77,-37.55 -228.93,-42.37 -103.34,-10.42 -211.48,7.58 -287.81,21.9 -79.8,42.99 -387.45,99.45 -478.86,324.97 75.35,-0.02 150.7,-0.05 226.05,-0.07 1.76,-0.01 3.52,-0.02 5.28,-0.04z"/>
     <path class="fil14" d="M228.36 2390.17c267.53,-0.02 535.05,-0.05 802.58,-0.07 102.83,0.14 205.67,0.28 308.51,0.42 -16.91,-52.32 -44.81,-94.94 -72.03,-124.93 -79.53,-87.27 -154.3,-118.98 -260.67,-170.67 -72.21,-24.97 -155.96,-40.42 -242.03,-45.13 -106.4,-9.84 -217.6,8.25 -298.43,25.06 -84.01,43.09 -375.67,100.62 -466.28,315.42 74.38,-0.02 148.76,-0.05 223.14,-0.07 1.74,-0.01 3.48,-0.02 5.21,-0.03z"/>
     <path class="fil15" d="M225.39 2390.17c260.03,-0.02 520.05,-0.04 780.08,-0.06 110.31,0.12 220.62,0.25 330.93,0.38 -13.43,-47.55 -36.86,-86.27 -59.67,-113.52 -76.22,-86.92 -152.07,-121.74 -258.85,-172.91 -75.73,-26.87 -164.15,-43.28 -255.12,-47.88 -109.45,-9.26 -223.71,8.92 -309.04,28.22 -88.22,43.19 -363.9,101.79 -453.72,305.88 73.41,-0.02 146.82,-0.05 220.24,-0.07 1.71,-0.02 3.43,-0.02 5.15,-0.04z"/>
     <path class="fil16" d="M222.41 2390.17c252.53,-0.02 505.06,-0.04 757.59,-0.05 117.79,0.11 235.57,0.23 353.35,0.34 -9.96,-42.77 -28.92,-77.6 -47.31,-102.11 -72.9,-86.57 -149.83,-124.51 -257.03,-175.16 -79.25,-28.79 -172.34,-46.15 -268.22,-50.63 -112.51,-8.68 -229.83,9.59 -319.66,31.39 -92.43,43.29 -352.12,102.95 -441.14,296.33 72.44,-0.02 144.88,-0.05 217.33,-0.07 1.69,-0.02 3.39,-0.02 5.08,-0.03z"/>
     <path class="fil17" d="M219.44 2390.17c245.03,-0.02 490.06,-0.03 735.1,-0.05 125.26,0.1 250.52,0.2 375.78,0.3 -6.49,-38 -20.98,-68.93 -34.96,-90.7 -69.58,-86.21 -147.59,-127.26 -255.2,-177.4 -82.76,-30.7 -180.54,-49.02 -281.31,-53.39 -115.56,-8.1 -235.94,10.26 -330.27,34.54 -96.64,43.39 -340.34,104.13 -428.57,286.79 71.48,-0.02 142.95,-0.05 214.43,-0.07 1.67,-0.01 3.34,-0.02 5.01,-0.03z"/>
     <path class="fil18" d="M216.47 2390.17c237.53,-0.01 475.07,-0.02 712.61,-0.04 132.73,0.09 265.47,0.18 398.2,0.27 -3.02,-33.23 -13.03,-60.27 -22.6,-79.29 -66.26,-85.87 -145.35,-130.03 -253.38,-179.64 -86.28,-32.61 -188.72,-51.89 -294.41,-56.15 -118.62,-7.52 -242.06,10.93 -340.89,37.7 -100.85,43.49 -328.56,105.3 -416,277.25 70.5,-0.02 141.01,-0.05 211.52,-0.07 1.64,-0.01 3.29,-0.02 4.94,-0.03z"/>
     <path class="fil19" d="M213.49 2390.18c230.04,-0.01 460.08,-0.02 690.11,-0.03 140.21,0.07 280.42,0.15 420.62,0.23 0.46,-28.45 -5.08,-51.61 -10.25,-67.88 -62.94,-85.51 -143.12,-132.8 -251.55,-181.89 -89.8,-34.52 -196.92,-54.76 -307.5,-58.9 -121.67,-6.94 -248.17,11.6 -351.5,40.86 -105.06,43.59 -316.79,106.46 -403.42,267.7 69.54,-0.02 139.07,-0.05 208.61,-0.07 1.62,-0.02 3.25,-0.02 4.88,-0.03z"/>
     <path class="fil20" d="M210.52 2390.18c222.54,-0.01 445.08,-0.02 667.62,-0.02 147.68,0.07 295.36,0.13 443.05,0.2 3.93,-23.68 2.86,-42.94 2.1,-56.47 -59.62,-85.16 -140.88,-135.56 -249.73,-184.13 -93.32,-36.43 -205.11,-57.63 -320.6,-61.66 -124.73,-6.36 -254.29,12.28 -362.11,44.02 -109.28,43.69 -305.01,107.64 -390.85,258.16 68.57,-0.02 137.14,-0.05 205.71,-0.07 1.6,-0.01 3.2,-0.02 4.81,-0.03z"/>
     <path class="fil21" d="M207.54 2390.18c215.04,-0.01 430.09,-0.01 645.13,-0.02 155.16,0.05 310.31,0.1 465.47,0.16 7.4,-18.9 10.81,-34.27 14.46,-45.05 -56.3,-84.81 -138.64,-138.32 -247.9,-186.38 -96.83,-38.34 -213.3,-60.5 -333.69,-64.41 -127.78,-5.77 -260.4,12.95 -372.73,47.19 -113.48,43.79 -293.23,108.81 -378.28,248.61 67.6,-0.02 135.2,-0.05 202.8,-0.07 1.58,-0.01 3.16,-0.02 4.74,-0.03z"/>
     <path class="fil22" d="M204.57 2390.18c207.55,-0.01 415.09,-0.01 622.64,-0.01 162.63,0.04 325.26,0.08 487.9,0.12 10.87,-14.13 18.75,-25.6 26.82,-33.64 -52.99,-84.45 -136.41,-141.08 -246.09,-188.62 -100.35,-40.25 -221.49,-63.37 -346.78,-67.17 -130.84,-5.2 -266.52,13.62 -383.35,50.35 -117.69,43.89 -281.45,109.97 -365.7,239.07 66.63,-0.02 133.26,-0.05 199.9,-0.07 1.55,-0.01 3.11,-0.02 4.67,-0.03z"/>
     <path class="fil23" d="M201.6 2390.18c200.05,-0 400.1,-0 600.15,-0 170.11,0.03 340.21,0.06 510.32,0.09 14.35,-9.35 26.69,-16.94 39.17,-22.23 -49.67,-84.1 -134.17,-143.85 -244.26,-190.87 -103.88,-42.16 -229.68,-66.24 -359.88,-69.92 -133.9,-4.61 -272.64,14.29 -393.97,53.51 -121.91,43.99 -269.67,111.14 -353.13,229.52 65.66,-0.02 131.33,-0.04 196.99,-0.06 1.53,-0.02 3.07,-0.02 4.6,-0.03z"/>
     <path class="fil24" d="M198.62 2390.19c192.55,-0 385.11,0 577.66,0 177.58,0.02 355.16,0.03 532.74,0.05 17.82,-4.58 34.64,-8.27 51.53,-10.82 -46.35,-83.75 -131.94,-146.6 -242.43,-193.11 -107.39,-44.07 -237.87,-69.11 -372.98,-72.68 -136.95,-4.04 -278.75,14.96 -404.58,56.66 -126.11,44.09 -257.89,112.32 -340.56,219.98 64.69,-0.02 129.39,-0.04 194.09,-0.06 1.51,-0.01 3.02,-0.02 4.53,-0.03z"/>
    </g>
    <path class="fil3" d="M195.65 2390.19l1110.33 0.02 63.88 0.59c-172.13,-333.59 -1042.39,-388.33 -1369.86,-0.52l191.18 -0.06 4.47 -0.03z"/>
    <g>
     <path class="fil25" d="M244.37 2390.21c350.46,-2.84 699.1,-4.95 1046.86,-6.35 15.56,-1.23 30.26,-1.73 45.03,-1.53 -174.94,-317.68 -1014.44,-366.98 -1329.07,7.98 66.41,-0.02 136.96,-0.07 207.5,-0.1 11.26,-0.03 22.53,-0.04 29.67,0.01z"/>
     <path class="fil26" d="M293.09 2390.23c330.8,-5.68 657.97,-9.91 983.39,-12.72 9.83,-2.64 17.92,-3.85 26.18,-3.65 -177.75,-301.78 -986.49,-345.63 -1288.28,16.47 69.1,-0.02 146.46,-0.1 223.82,-0.15 21.05,-0.04 42.09,-0.05 54.88,0.05z"/>
     <path class="fil27" d="M341.81 2390.24c311.15,-8.51 616.84,-14.87 919.93,-19.08 4.1,-4.06 5.6,-5.98 7.34,-5.78 -180.56,-285.87 -958.54,-324.27 -1247.49,24.97 71.79,-0.02 155.96,-0.13 240.14,-0.19 30.82,-0.06 61.65,-0.07 80.09,0.08z"/>
     <path class="fil28" d="M390.53 2390.27c291.49,-11.35 575.71,-19.83 856.45,-25.45 -1.63,-5.47 -6.74,-8.1 -11.51,-7.9 -183.37,-269.97 -930.59,-302.92 -1206.7,33.46 74.48,-0.02 165.47,-0.16 256.46,-0.24 40.61,-0.07 81.21,-0.08 105.3,0.12z"/>
     <path class="fil29" d="M439.25 2390.29c271.84,-14.19 534.58,-24.79 792.99,-31.82 -7.36,-6.9 -19.07,-10.22 -30.36,-10.02 -186.18,-254.07 -902.64,-281.57 -1165.91,41.96 77.16,-0.02 174.97,-0.19 272.78,-0.28 50.38,-0.09 100.76,-0.1 130.5,0.16z"/>
     <path class="fil30" d="M487.97 2390.31c252.18,-17.03 493.45,-29.75 729.52,-38.19 -13.09,-8.31 -31.4,-12.34 -49.21,-12.15 -188.99,-238.16 -874.69,-260.22 -1125.11,50.46 79.85,-0.02 184.47,-0.22 289.09,-0.32 60.17,-0.1 120.33,-0.11 155.71,0.2z"/>
     <path class="fil31" d="M536.69 2390.32c232.53,-19.87 452.33,-34.7 666.05,-44.56 -18.82,-9.73 -43.73,-14.47 -68.05,-14.27 -191.8,-222.26 -846.74,-238.87 -1084.32,58.95 82.53,-0.03 193.97,-0.25 305.41,-0.37 69.94,-0.12 139.88,-0.13 180.92,0.24z"/>
     <path class="fil32" d="M585.41 2390.35c212.87,-22.71 411.2,-39.67 602.58,-50.93 -24.56,-11.14 -56.06,-16.59 -86.9,-16.39 -194.61,-206.36 -818.79,-217.52 -1043.54,67.45 85.22,-0.03 203.48,-0.27 321.73,-0.41 79.72,-0.13 159.44,-0.15 206.13,0.27z"/>
     <path class="fil33" d="M634.13 2390.37c193.22,-25.55 370.07,-44.63 539.11,-57.3 -30.28,-12.56 -68.39,-18.72 -105.75,-18.52 -197.42,-190.45 -790.84,-196.16 -1002.74,75.95 87.91,-0.03 212.98,-0.3 338.05,-0.45 89.5,-0.15 179,-0.16 231.34,0.32z"/>
     <path class="fil34" d="M682.85 2390.39c173.56,-28.39 328.94,-49.59 475.64,-63.67 -36.02,-13.98 -80.71,-20.83 -124.6,-20.64 -200.23,-174.55 -762.89,-174.81 -961.95,84.44 90.6,-0.03 222.48,-0.33 354.37,-0.49 99.28,-0.16 198.56,-0.18 256.54,0.35z"/>
     <path class="fil34" d="M731.57 2390.4c153.91,-31.22 287.82,-54.55 412.17,-70.03 -41.75,-15.4 -93.05,-22.96 -143.45,-22.76 -203.04,-158.64 -734.94,-153.46 -921.16,92.94 93.28,-0.03 231.99,-0.36 370.69,-0.54 109.06,-0.17 218.12,-0.19 281.75,0.39z"/>
     <path class="fil35" d="M780.3 2390.42c134.25,-34.06 246.69,-59.51 348.7,-76.4 -47.48,-16.81 -105.38,-25.08 -162.29,-24.88 -205.86,-142.74 -706.99,-132.11 -880.37,101.44 95.97,-0.03 241.49,-0.39 387.01,-0.58 118.84,-0.19 237.68,-0.21 306.96,0.43z"/>
     <path class="fil36" d="M829.01 2390.44c114.6,-36.91 205.56,-64.47 285.23,-82.77 -53.21,-18.23 -117.71,-27.21 -181.14,-27.01 -208.66,-126.83 -679.04,-110.75 -839.58,109.94 98.66,-0.03 251,-0.42 403.32,-0.63 128.62,-0.2 257.24,-0.22 332.17,0.47z"/>
     <path class="fil37" d="M877.74 2390.47c94.95,-39.75 164.43,-69.43 221.77,-89.14 -58.94,-19.65 -130.04,-29.33 -199.99,-29.13 -211.48,-110.93 -651.09,-89.4 -798.79,118.43 101.35,-0.03 260.5,-0.45 419.64,-0.67 138.4,-0.22 276.8,-0.24 357.38,0.51z"/>
     <path class="fil38" d="M926.46 2390.48c75.29,-42.58 123.31,-74.38 158.3,-95.51 -64.67,-21.07 -142.37,-31.45 -218.84,-31.25 -214.29,-95.03 -623.14,-68.05 -758,126.93 104.03,-0.04 270,-0.48 435.96,-0.71 148.18,-0.23 296.35,-0.26 382.58,0.54z"/>
     <path class="fil39" d="M975.18 2390.5c55.63,-45.42 82.18,-79.34 94.82,-101.88 -70.4,-22.48 -154.7,-33.57 -237.69,-33.37 -217.09,-79.12 -595.19,-46.7 -717.21,135.43 106.72,-0.04 279.5,-0.51 452.28,-0.76 157.96,-0.25 315.92,-0.27 407.79,0.58z"/>
     <path class="fil40" d="M1023.9 2390.52c35.98,-48.26 41.05,-84.31 31.36,-108.25 -76.13,-23.9 -167.03,-35.7 -256.54,-35.5 -219.9,-63.22 -567.24,-25.35 -676.42,143.93 109.4,-0.04 289.01,-0.54 468.6,-0.8 167.74,-0.26 335.47,-0.29 433,0.62z"/>
     <path class="fil41" d="M1072.62 2390.54c16.32,-51.1 -0.08,-89.27 -32.11,-114.62 -81.87,-25.32 -179.36,-37.82 -275.38,-37.62 -222.72,-47.31 -539.29,-4 -635.63,152.42 112.09,-0.04 298.51,-0.56 484.92,-0.84 177.52,-0.27 355.03,-0.3 458.21,0.66z"/>
     <path class="fil42" d="M1121.34 2390.56c-3.33,-53.94 -41.2,-94.22 -95.58,-120.98 -87.59,-26.74 -191.69,-39.95 -294.23,-39.75 -225.53,-31.41 -511.34,17.36 -594.84,160.92 114.78,-0.04 308.01,-0.59 501.24,-0.88 187.3,-0.29 374.59,-0.32 483.41,0.69z"/>
     <path class="fil43" d="M1170.06 2390.58c-22.99,-56.78 -82.33,-99.19 -159.05,-127.35 -93.33,-28.15 -204.02,-42.06 -313.08,-41.87 -228.34,-15.51 -483.39,38.71 -554.05,169.41 117.47,-0.04 317.52,-0.62 517.55,-0.93 197.08,-0.3 394.15,-0.33 508.62,0.74z"/>
    </g>
    <path class="fil44" d="M1218.78 2390.6c-170.55,-238.46 -952.05,-235.49 -1067.7,0.2 240.31,-0.08 827.46,-2.44 1067.7,-0.2z"/>
   </g>
  </g>
 </g>
</svg>
