<?xml version="1.0" encoding="UTF-8"?>
<!DOCTYPE svg PUBLIC "-//W3C//DTD SVG 1.1//EN" "http://www.w3.org/Graphics/SVG/1.1/DTD/svg11.dtd">
<!-- Creator: CorelDRAW 2019 (64-Bit) -->
<svg xmlns="http://www.w3.org/2000/svg" xml:space="preserve" width="32.9793mm" height="63.435mm" version="1.1" style="shape-rendering:geometricPrecision; text-rendering:geometricPrecision; image-rendering:optimizeQuality; fill-rule:evenodd; clip-rule:evenodd"
viewBox="0 0 2191.91 4216.09"
 xmlns:xlink="http://www.w3.org/1999/xlink">
 <defs>
  <style type="text/css">
   <![CDATA[
    .fil0 {fill:#256930}
    .fil1 {fill:#3D8E41}
    .fil44 {fill:#4F0D0F}
    .fil43 {fill:#500E0F}
    .fil42 {fill:#510F10}
    .fil41 {fill:#520F10}
    .fil40 {fill:#531010}
    .fil39 {fill:#541110}
    .fil38 {fill:#551211}
    .fil37 {fill:#561211}
    .fil36 {fill:#571311}
    .fil35 {fill:#581412}
    .fil34 {fill:#591512}
    .fil33 {fill:#5A1612}
    .fil32 {fill:#5B1713}
    .fil31 {fill:#5C1813}
    .fil30 {fill:#5D1813}
    .fil29 {fill:#5E1914}
    .fil28 {fill:#5F1A14}
    .fil27 {fill:#601B14}
    .fil26 {fill:#611B14}
    .fil25 {fill:#621C15}
    .fil3 {fill:#631D15}
    .fil24 {fill:#641E15}
    .fil23 {fill:#661F16}
    .fil22 {fill:#672016}
    .fil21 {fill:#692117}
    .fil20 {fill:#6A2217}
    .fil19 {fill:#6C2318}
    .fil18 {fill:#6D2418}
    .fil17 {fill:#6E2519}
    .fil16 {fill:#702619}
    .fil15 {fill:#71271A}
    .fil14 {fill:#73291A}
    .fil13 {fill:#742A1B}
    .fil12 {fill:#762B1B}
    .fil11 {fill:#772C1C}
    .fil10 {fill:#782D1C}
    .fil9 {fill:#7A2E1D}
    .fil8 {fill:#7B2F1D}
    .fil7 {fill:#7D301E}
    .fil6 {fill:#7E311E}
    .fil5 {fill:#80321F}
    .fil4 {fill:#81331F}
    .fil2 {fill:#256930;fill-rule:nonzero}
   ]]>
  </style>
 </defs>
 <g id="Слой_x0020_1">
  <metadata id="CorelCorpID_0Corel-Layer"/>
  <g id="_2987870636048">
   <path class="fil0" d="M924.5 1923.38c-140.92,-49.48 -52.91,-109.81 -235.53,-266.52 -152.39,-130.79 -303.91,-137.31 -494.85,-106.49 34.85,217.77 347.59,456.06 626.11,373.76 28.9,8.79 45.03,30.43 65.3,50.57 32.13,31.9 21.04,39.94 12.18,92.4 -34.55,204.55 -59.9,440.74 -69.17,649.34 -7.38,165.8 0.76,289.63 25.37,445.01 22.81,144.06 65.5,263.05 93.37,396.39 57.34,12.91 186.3,-14.56 307.65,10.46l177.74 28.12c-12.62,-31.44 -48.1,-76.33 -69.22,-108.95 -128.45,-198.38 -211.71,-387.96 -283.56,-618.32 -36.99,-118.61 -31.08,-137.93 26.96,-279.1 133.26,-324.16 156.49,-235.76 271.91,-262.69 50.34,-11.74 88.59,-28.41 129.72,-50.55 154.32,-83.04 286.1,-263.83 281.13,-431.05 -224.58,-34.72 -481.07,139.25 -550.79,382.42 -28.23,98.46 -6.99,61.28 -70.4,122.99 -56.83,55.3 -116.62,139.69 -142.05,241.23l-15.32 -28.68c-10.53,-39.89 -25.23,-248.55 -27,-288.35 -4.96,-111.49 7.96,-226.03 22.12,-334.33 12.97,-99.21 107.49,-516.64 158.6,-556.26 26.11,-12.42 206.61,38.38 282.32,-17 102.86,-33.99 219.09,-147.82 233.6,-234.62 -25.99,-17.24 -80.66,-25.06 -111.96,-27.32 -201.01,-0.56 -278.98,73.83 -368.3,180.04 4.33,-19.91 38.33,-115.5 46.78,-125.23 16.73,-19.24 189.97,-74.38 287.71,-232.22 62.86,-81.84 77.07,-147.56 108.02,-262.88 7.22,-72.8 9.72,-216.74 -22.62,-274.96 -64.57,0.61 -188.27,87.97 -223.91,118.03 -129.67,109.39 -217.26,273.11 -222.95,457.28 -1.41,45.57 14.11,133.54 10.73,159.23 -2.23,16.91 -84.3,203.75 -149.2,368.18 37.29,-210.44 16.21,-294.58 -20.16,-426.55 -27.19,-98.65 -74.86,-182.93 -72.09,-194.41 15.65,-31.42 95.29,-14.7 171.73,-95.41 52.09,-54.99 71.63,-98.41 76.05,-199.24 -87.7,7.3 -146.01,44.33 -185.25,90.27 -65.51,76.7 -39.84,103.82 -77.8,182.3 -15.77,-11.3 -56.85,-96.57 -59.36,-115.71 -3.38,-25.69 12.14,-113.67 10.73,-159.23 -5.69,-184.17 -93.28,-347.89 -222.95,-457.28 -35.64,-30.06 -159.34,-117.42 -223.91,-118.03 -32.34,58.22 -29.84,202.16 -22.62,274.96 30.95,115.32 45.16,181.05 108.02,262.88 97.74,157.84 270.98,212.98 287.71,232.22 8.45,9.73 42.45,105.32 46.78,125.23 -89.32,-106.21 -167.29,-180.6 -368.3,-180.04 -31.3,2.25 -85.96,10.08 -111.96,27.32 14.51,86.8 130.74,200.63 233.6,234.62 75.7,55.38 256.2,4.58 282.32,17 20.19,15.65 47.16,90.28 73.2,180.95 40.8,142.09 -8.17,580.04 -36.24,748.22z"/>
   <path class="fil1" d="M822.1 1924.1c0.78,-34.95 7.68,-61.37 3.83,-85.94 -10.95,-69.87 -52.94,-110.83 -135.09,-181.32 -152.39,-130.79 -305.78,-137.28 -496.71,-106.46 34.85,217.77 349.46,456.02 627.98,373.73zm714.69 -995.69c62.86,-81.84 77.07,-147.56 108.02,-262.88 7.22,-72.8 9.72,-216.74 -22.62,-274.96 -64.57,0.61 -188.27,87.97 -223.91,118.03 -129.67,109.39 -217.26,273.11 -222.95,457.28 -2.41,77.74 1.47,111 40.83,172.45 43.92,36.58 234.81,-71.35 320.63,-209.92zm-372.02 456.38c13.42,-37.21 18,-69.45 35.66,-98.9 73.73,-122.98 197.71,-180.55 370.17,-180.08 31.3,2.25 85.96,10.08 111.96,27.32 -14.51,86.8 -130.74,200.63 -233.6,234.62 -75.7,55.38 -258.07,4.61 -284.18,17.03zm60.04 902.38l30.38 57.9c35.49,-18.62 69.73,-4.75 125.44,-17.75 50.34,-11.74 88.59,-28.41 129.72,-50.55 154.32,-83.04 286.1,-263.83 281.13,-431.05 -215.81,-33.36 -396.86,88.47 -498.99,260.1 -33.35,56.04 -53.67,122.35 -67.67,181.34z"/>
   <path class="fil2" d="M1358.33 784.19c27.98,-51.33 230.77,-384.95 265.69,-393.31 -0.25,20.18 -213.26,355.71 -241.07,406.72 -19.53,35.82 -133.03,314.29 -150.94,309.19 -18.34,-10.51 108.84,-290.53 126.33,-322.61zm34.71 1417.9c41.83,-5.85 114.18,-28.03 127.52,52.77 -4.2,-0.37 -19.57,-29.68 -47.46,-40.15 -33.1,-12.42 -79.24,-6.71 -80.06,-12.61zm40.79 -244.94c11.61,17.03 31.95,100.59 -3.03,141.36 -2.5,2.92 3.95,-6.53 5.44,-46.76 0.8,-21.73 -6.05,-54.29 -2.41,-94.6zm246.55 170.7c-50.24,13.01 -76,-50.5 -167.65,-16.04 35.31,-65.61 151.93,-43.73 167.65,16.04zm-91.41 -243.67c26.94,29.27 31.62,40.63 5.94,81.5 55.22,-43.3 115.42,-97.81 186.11,-109.95 -31.42,47.1 -203.42,158.02 -266.01,213.13 -111.93,98.56 -202.94,195.05 -207.56,213.55l-27.25 -6.82c5.62,-22.49 100.6,-126 216.24,-227.83 24.11,-21.23 49.18,-42.49 74.57,-63.03 -14.85,-15.1 30.33,-46.66 17.96,-100.55zm68.3 86.59c5.49,-7.62 13.87,-13.22 23.91,-17.18 20.99,-8.29 37.72,-2.16 78.52,5.92 -14.08,7.18 -21.65,8.82 -51.32,11.3 -29.68,2.48 -39.38,8.41 -51.11,-0.03zm-1170.88 -235.31c-13.87,0 -22.89,0.19 -31.04,0.37 -67.33,1.44 -94.39,2.01 -139.33,-70.69l-1.66 -2.93c0.22,-0.12 39.15,33.13 84.26,47.06 40.54,12.51 87.78,4.49 87.78,26.2zm194.55 93.26c-12.73,11.03 -49.52,18.06 -87.09,20.64 -40.55,2.78 -83.82,0.68 -99.07,-6.94 33.5,-2.59 51.7,-7.4 93.47,-17.57 37.58,-9.15 81.68,-8.85 92.69,3.87zm23.71 -131.8c0.09,1.47 8.35,22.74 23.73,49.12 15.06,25.85 37.57,56.83 9.67,59.23 -31.42,-24.92 -32.52,-79.25 -33.4,-108.35zm-106.31 17.88c13.76,-54.17 -55.95,-85.24 -48.31,-128.36 32.97,15.05 92.1,85.86 48.31,128.36zm-140.16 -68.32c-6.91,-45.7 -58.79,-62.62 -87.78,-93.47 88.61,6.36 119.41,89.22 92.08,95.73 24.31,12.79 48.34,25.98 72.08,39.61 95.22,54.65 230.77,104.09 268.88,210.2 -100.57,-80.21 -170.49,-121.34 -282.84,-185.8 -106.32,-61.03 -219.2,-84.33 -308.85,-150.04 94.57,31.22 159.94,38.52 246.43,83.78zm1018.49 -756.72c-18.12,28.26 -129.8,185.52 -169.35,158.71 -15.29,0.9 142.78,-139.95 169.35,-158.71zm3.19 235.13c11.81,29.9 0.03,53.06 -39,68.98 36.18,-40.68 20.93,-38 39,-68.98zm-117.49 39.5c8.68,16.66 21.85,52.3 -28.37,82.93 -0.17,-24.88 23.81,-16.93 28.37,-82.93zm67.75 118.4c27.99,14.98 31.1,32.73 31.76,60.31 -40.33,-20.18 -45.57,-55.76 -99.56,-55.11 18.64,-19.05 43.11,-18.42 67.8,-5.2zm61.17 -79.33c-21.61,9.12 -43.67,18.95 -65.53,29.21 -42.78,20.09 -220.78,135.4 -240.7,135.42 25.87,-57.62 181.59,-138.64 228.83,-160.81 93.29,-43.8 145.1,-73.93 259.83,-71.44 -78.03,22.84 -84.95,27.6 -166.45,60.97 38.31,-9.88 76.27,5.29 95.88,37.9 -24.04,-10.31 -49.28,-30.49 -111.86,-31.25zm-219.43 -492.26c28.34,24.63 50.21,116.07 42.89,153.72 -25.39,-53.76 -40.24,-109.42 -42.89,-153.72zm102.8 -171.49c41.61,33.6 62.63,102.78 29.18,148.76 6.23,-90.82 -31.93,-124.03 -29.18,-148.76zm80.08 255.94c25.21,-14.34 131.82,-32.97 143.81,1.98 -44.26,15.17 -101.3,6.11 -129.96,22.41 -41.52,23.6 -42.48,30.67 -88.08,27.79 28.64,-21.65 44.45,-35.26 74.23,-52.18zm186.91 -151.02c-12.55,3.36 -162.22,35.01 -163.37,31.55 74.22,-34.3 109.23,-63 163.37,-31.55z"/>
   <g>
    <path class="fil3" d="M313.05 4215.11l1776.64 0.03 102.21 0.95c-275.42,-533.77 -1667.93,-621.37 -2191.91,-0.84l305.91 -0.1 7.14 -0.05z"/>
    <path class="fil4" d="M412.98 4215.06l1644.09 -0.22 134.84 1.26c-82.62,-160.12 -198.82,-290.58 -312.94,-382.51 -180.35,-145.28 -282.68,-146.17 -446.29,-237.17l-177.74 -28.12c-121.35,-25.02 -250.31,2.45 -307.65,-10.46 -67.05,67.36 -789.56,142.28 -947.29,657.42l403.55 -0.13 9.43 -0.07z"/>
    <g>
     <path class="fil5" d="M408.22 4215.06c536.03,-0.07 1072.06,-0.14 1608.1,-0.21 56.91,0.4 113.81,0.8 170.72,1.2 -77.06,-152.47 -186.11,-276.71 -293.18,-364.24 -175.04,-144.72 -279.1,-150.6 -443.37,-240.76 -64.88,-12.44 -131.6,-23.34 -198.69,-32.53 -126.24,-24.09 -260.1,3.52 -324.64,-5.4 -73.79,67.52 -770.72,144.15 -927.17,642.15 132.97,-0.05 265.93,-0.09 398.9,-0.13 3.11,-0.03 6.21,-0.05 9.32,-0.07z"/>
     <path class="fil6" d="M403.46 4215.06c524.04,-0.07 1048.07,-0.13 1572.11,-0.2 68.86,0.38 137.73,0.76 206.6,1.14 -71.51,-144.84 -173.39,-262.84 -273.4,-345.99 -169.73,-144.15 -275.52,-155.01 -440.45,-244.35 -70.5,-15.49 -144.7,-27.93 -219.65,-36.93 -131.13,-23.17 -269.88,4.59 -341.62,-0.35 -80.52,67.68 -751.87,146.03 -907.05,626.88 131.42,-0.05 262.83,-0.09 394.25,-0.13 3.07,-0.02 6.14,-0.04 9.21,-0.06z"/>
     <path class="fil7" d="M398.71 4215.07c512.04,-0.06 1024.08,-0.13 1536.12,-0.19 80.82,0.36 161.65,0.72 242.48,1.08 -65.95,-137.2 -160.68,-248.98 -253.64,-327.73 -164.42,-143.59 -271.94,-159.44 -437.53,-247.94 -76.14,-18.55 -157.82,-32.53 -240.6,-41.35 -136.02,-22.24 -279.67,5.67 -358.61,4.71 -87.26,67.84 -733.03,147.9 -886.93,611.61 129.86,-0.05 259.73,-0.09 389.6,-0.13 3.04,-0.03 6.07,-0.05 9.11,-0.07z"/>
     <path class="fil8" d="M393.95 4215.07c500.04,-0.06 1000.09,-0.12 1500.13,-0.18 92.78,0.34 185.57,0.68 278.36,1.02 -60.4,-129.56 -147.97,-235.11 -233.86,-309.47 -159.12,-143.02 -268.37,-163.85 -434.62,-251.53 -81.77,-21.61 -170.92,-37.12 -261.55,-45.75 -140.91,-21.31 -289.46,6.74 -375.6,9.76 -94,68 -714.18,149.77 -866.81,596.33 128.31,-0.05 256.63,-0.09 384.95,-0.13 3,-0.03 5.99,-0.05 8.99,-0.06z"/>
     <path class="fil9" d="M389.19 4215.07c488.05,-0.05 976.1,-0.11 1464.14,-0.17 104.75,0.32 209.49,0.64 314.24,0.96 -54.83,-121.92 -135.25,-221.24 -214.09,-291.21 -153.81,-142.46 -264.79,-168.28 -431.7,-255.13 -87.4,-24.66 -184.02,-41.71 -282.5,-50.16 -145.8,-20.38 -299.24,7.82 -392.58,14.82 -100.73,68.16 -695.34,151.64 -846.69,581.06 126.77,-0.05 253.53,-0.09 380.3,-0.13 2.96,-0.03 5.92,-0.04 8.89,-0.06z"/>
     <path class="fil10" d="M384.43 4215.07c476.06,-0.05 952.11,-0.1 1428.15,-0.15 116.7,0.31 233.41,0.6 350.12,0.9 -49.28,-114.28 -122.54,-207.37 -194.33,-272.95 -148.5,-141.9 -261.21,-172.69 -428.78,-258.71 -93.02,-27.72 -197.13,-46.3 -303.46,-54.57 -150.69,-19.45 -309.03,8.9 -409.57,19.88 -107.47,68.32 -676.49,153.52 -826.58,565.79 125.22,-0.04 250.43,-0.09 375.66,-0.13 2.92,-0.02 5.85,-0.04 8.77,-0.06z"/>
     <path class="fil11" d="M379.67 4215.08c464.06,-0.05 928.11,-0.1 1392.16,-0.15 128.67,0.29 257.33,0.56 386,0.84 -43.73,-106.64 -109.84,-193.51 -174.56,-254.69 -143.19,-141.33 -257.63,-177.12 -425.86,-262.31 -98.66,-30.77 -210.24,-50.89 -324.41,-58.98 -155.58,-18.52 -318.82,9.97 -426.55,24.94 -114.21,68.48 -657.65,155.38 -806.46,550.52 123.67,-0.04 247.33,-0.09 371,-0.12 2.89,-0.03 5.78,-0.05 8.67,-0.06z"/>
     <path class="fil12" d="M374.91 4215.08c452.06,-0.05 904.12,-0.09 1356.18,-0.13 140.62,0.27 281.25,0.53 421.88,0.79 -38.16,-99 -97.12,-179.64 -154.79,-236.43 -137.88,-140.78 -254.05,-181.54 -422.94,-265.9 -104.29,-33.84 -223.34,-55.48 -345.36,-63.39 -160.47,-17.59 -328.6,11.05 -443.54,29.99 -120.94,68.64 -638.8,157.25 -786.34,535.25 122.11,-0.04 244.23,-0.08 366.35,-0.12 2.86,-0.03 5.71,-0.04 8.56,-0.06z"/>
     <path class="fil13" d="M370.15 4215.08c440.07,-0.04 880.13,-0.08 1320.19,-0.12 152.58,0.25 305.17,0.49 457.76,0.73 -32.61,-91.36 -84.41,-165.77 -135.02,-218.17 -132.57,-140.21 -250.47,-185.96 -420.02,-269.49 -109.91,-36.89 -236.45,-60.08 -366.32,-67.8 -165.35,-16.67 -338.38,12.12 -460.52,35.05 -127.68,68.8 -619.96,159.13 -766.22,519.98 120.56,-0.04 241.14,-0.08 361.71,-0.12 2.82,-0.02 5.63,-0.04 8.45,-0.06z"/>
     <path class="fil14" d="M365.39 4215.08c428.07,-0.04 856.13,-0.07 1284.2,-0.11 164.54,0.23 329.09,0.45 493.64,0.67 -27.06,-83.72 -71.7,-151.91 -115.25,-199.91 -127.26,-139.65 -246.89,-190.38 -417.1,-273.08 -115.54,-39.95 -249.56,-64.67 -387.27,-72.21 -170.25,-15.74 -348.17,13.19 -477.51,40.1 -134.42,68.96 -601.11,161 -746.1,504.71 119.02,-0.04 238.03,-0.08 357.05,-0.12 2.78,-0.02 5.56,-0.04 8.34,-0.05z"/>
     <path class="fil15" d="M360.64 4215.08c416.07,-0.03 832.14,-0.07 1248.21,-0.09 176.51,0.2 353.01,0.41 529.52,0.6 -21.49,-76.08 -58.98,-138.04 -95.47,-181.65 -121.95,-139.08 -243.32,-194.8 -414.19,-276.67 -121.18,-43 -262.66,-69.25 -408.22,-76.61 -175.13,-14.81 -357.96,14.27 -494.49,45.16 -141.16,69.12 -582.27,162.87 -725.99,489.43 117.47,-0.04 234.93,-0.08 352.41,-0.11 2.74,-0.03 5.48,-0.04 8.23,-0.06z"/>
     <path class="fil16" d="M355.88 4215.08c404.07,-0.03 808.15,-0.06 1212.22,-0.09 188.47,0.18 376.93,0.37 565.4,0.54 -15.94,-68.44 -46.27,-124.17 -75.71,-163.39 -116.64,-138.52 -239.74,-199.22 -411.27,-280.27 -126.81,-46.06 -275.77,-73.85 -429.17,-81.02 -180.02,-13.88 -367.75,15.34 -511.48,50.22 -147.9,69.27 -563.42,164.74 -705.87,474.16 115.92,-0.04 231.83,-0.08 347.76,-0.11 2.71,-0.03 5.42,-0.04 8.13,-0.05z"/>
     <path class="fil17" d="M351.13 4215.09c392.07,-0.03 784.15,-0.05 1176.23,-0.07 200.43,0.16 400.85,0.33 601.29,0.49 -10.39,-60.8 -33.56,-110.3 -55.94,-145.13 -111.33,-137.95 -236.16,-203.64 -408.35,-283.86 -132.43,-49.12 -288.88,-78.44 -450.13,-85.43 -184.91,-12.96 -377.53,16.42 -528.46,55.27 -154.64,69.43 -544.58,166.62 -685.75,458.9 114.37,-0.04 228.73,-0.08 343.11,-0.11 2.67,-0.02 5.34,-0.04 8.02,-0.05z"/>
     <path class="fil18" d="M346.37 4215.09c380.08,-0.02 760.16,-0.04 1140.24,-0.06 212.38,0.14 424.77,0.29 637.16,0.43 -4.83,-53.16 -20.84,-96.44 -36.17,-126.87 -106.02,-137.39 -232.58,-208.06 -405.43,-287.45 -138.06,-52.18 -301.98,-83.03 -471.08,-89.84 -189.8,-12.03 -387.31,17.49 -545.45,60.33 -161.37,69.59 -525.73,168.48 -665.64,443.62 112.81,-0.04 225.64,-0.07 338.46,-0.11 2.63,-0.02 5.27,-0.03 7.91,-0.05z"/>
     <path class="fil19" d="M341.61 4215.1c368.08,-0.02 736.17,-0.04 1104.25,-0.05 224.35,0.12 448.69,0.25 673.04,0.37 0.73,-45.53 -8.14,-82.57 -16.4,-108.61 -100.71,-136.83 -229,-212.49 -402.51,-291.04 -143.69,-55.23 -315.09,-87.63 -492.03,-94.24 -194.69,-11.1 -397.1,18.56 -562.44,65.39 -168.11,69.75 -506.89,170.35 -645.52,428.35 111.27,-0.04 222.53,-0.07 333.8,-0.11 2.6,-0.03 5.2,-0.04 7.8,-0.05z"/>
     <path class="fil20" d="M336.85 4215.1c356.09,-0.02 712.17,-0.03 1068.26,-0.04 236.3,0.11 472.61,0.21 708.92,0.31 6.28,-37.88 4.57,-68.7 3.36,-90.35 -95.4,-136.26 -225.42,-216.9 -399.59,-294.63 -149.32,-58.29 -328.2,-92.22 -512.99,-98.66 -199.58,-10.17 -406.89,19.65 -579.42,70.44 -174.85,69.91 -488.04,172.23 -625.4,413.08 109.72,-0.03 219.43,-0.07 329.16,-0.11 2.56,-0.02 5.12,-0.04 7.69,-0.05z"/>
     <path class="fil21" d="M332.09 4215.1c344.09,-0.01 688.18,-0.02 1032.27,-0.03 248.27,0.09 496.53,0.17 744.8,0.25 11.84,-30.24 17.29,-54.83 23.14,-72.09 -90.09,-135.7 -221.84,-221.33 -396.67,-298.23 -154.95,-61.35 -341.3,-96.8 -533.94,-103.06 -204.47,-9.24 -416.67,20.72 -596.41,75.5 -181.58,70.07 -469.2,174.1 -605.28,397.81 108.17,-0.03 216.34,-0.07 324.51,-0.11 2.53,-0.02 5.05,-0.03 7.58,-0.05z"/>
     <path class="fil22" d="M327.33 4215.1c332.1,-0.01 664.19,-0.01 996.28,-0.02 260.23,0.07 520.45,0.13 780.68,0.19 17.4,-22.6 30,-40.97 42.91,-53.83 -84.79,-135.13 -218.27,-225.74 -393.76,-301.82 -160.58,-64.4 -354.4,-101.4 -554.89,-107.47 -209.36,-8.31 -426.46,21.79 -613.4,80.56 -188.32,70.23 -450.35,175.97 -585.16,382.54 106.62,-0.03 213.23,-0.07 319.86,-0.11 2.49,-0.02 4.98,-0.03 7.47,-0.05z"/>
     <path class="fil23" d="M322.57 4215.1c320.1,-0.01 640.2,-0.01 960.3,-0.01 272.19,0.05 544.37,0.09 816.56,0.14 22.96,-14.97 42.71,-27.1 62.67,-35.57 -79.48,-134.57 -214.69,-230.17 -390.84,-305.4 -166.21,-67.46 -367.51,-106 -575.84,-111.88 -214.25,-7.38 -436.25,22.87 -630.38,85.62 -195.06,70.39 -431.51,177.84 -565.04,367.26 105.07,-0.03 210.14,-0.07 315.21,-0.1 2.45,-0.03 4.9,-0.04 7.36,-0.05z"/>
     <path class="fil24" d="M317.81 4215.11c308.1,-0.01 616.21,0 924.31,0 284.14,0.03 568.29,0.05 852.44,0.08 28.51,-7.33 55.43,-13.24 82.45,-17.31 -74.17,-134 -211.11,-234.58 -387.92,-308.99 -171.83,-70.52 -380.61,-110.58 -596.8,-116.29 -219.14,-6.46 -446.03,23.94 -647.36,90.67 -201.8,70.55 -412.66,179.72 -544.93,352 103.52,-0.03 207.03,-0.07 310.56,-0.1 2.41,-0.02 4.83,-0.03 7.25,-0.05z"/>
    </g>
    <path class="fil3" d="M313.05 4215.11l1776.64 0.03 102.21 0.95c-275.42,-533.77 -1667.93,-621.37 -2191.91,-0.84l305.91 -0.1 7.14 -0.05z"/>
    <g>
     <path class="fil25" d="M391.01 4215.14c560.77,-4.54 1118.62,-7.92 1675.09,-10.16 24.9,-1.96 48.41,-2.77 72.06,-2.45 -279.92,-508.32 -1623.2,-587.2 -2126.64,12.76 106.27,-0.03 219.14,-0.11 332.02,-0.17 18.02,-0.05 36.05,-0.06 47.47,0.01z"/>
     <path class="fil26" d="M468.97 4215.18c529.31,-9.09 1052.81,-15.86 1573.53,-20.35 15.73,-4.22 28.68,-6.16 41.89,-5.84 -284.42,-482.88 -1578.48,-553.04 -2061.37,26.35 110.57,-0.03 234.35,-0.16 358.13,-0.24 33.68,-0.07 67.35,-0.08 87.82,0.08z"/>
     <path class="fil27" d="M546.93 4215.2c497.87,-13.62 987,-23.79 1471.97,-30.53 6.56,-6.49 8.95,-9.56 11.74,-9.25 -288.92,-457.43 -1533.76,-518.87 -1996.1,39.95 114.87,-0.04 249.56,-0.21 384.24,-0.31 49.32,-0.09 98.64,-0.11 128.15,0.13z"/>
     <path class="fil28" d="M624.89 4215.23c466.41,-18.16 921.19,-31.72 1370.41,-40.73 -2.61,-8.76 -10.78,-12.95 -18.42,-12.63 -293.42,-431.98 -1489.03,-484.71 -1930.84,53.54 119.17,-0.04 264.76,-0.25 410.36,-0.38 64.97,-0.11 129.94,-0.13 168.48,0.2z"/>
     <path class="fil29" d="M702.84 4215.27c434.97,-22.71 855.39,-39.67 1268.86,-50.92 -11.78,-11.03 -30.51,-16.36 -48.58,-16.04 -297.91,-406.54 -1444.31,-450.54 -1865.57,67.14 123.47,-0.04 279.97,-0.3 436.47,-0.45 80.62,-0.14 161.23,-0.16 208.81,0.26z"/>
     <path class="fil30" d="M780.8 4215.3c403.52,-27.26 789.58,-47.6 1167.3,-61.11 -20.95,-13.29 -50.24,-19.75 -78.74,-19.43 -302.4,-381.08 -1399.59,-416.38 -1800.3,80.74 127.76,-0.04 295.17,-0.35 462.58,-0.52 96.27,-0.16 192.54,-0.18 249.16,0.33z"/>
     <path class="fil31" d="M858.76 4215.33c372.07,-31.79 723.77,-55.53 1065.74,-71.3 -30.12,-15.57 -69.97,-23.15 -108.89,-22.83 -306.9,-355.64 -1354.87,-382.22 -1735.03,94.33 132.06,-0.05 310.38,-0.39 488.69,-0.58 111.92,-0.19 223.83,-0.21 289.49,0.38z"/>
     <path class="fil32" d="M936.72 4215.37c340.62,-36.34 657.96,-63.47 964.19,-81.49 -39.29,-17.83 -89.7,-26.55 -139.05,-26.23 -311.4,-330.19 -1310.14,-348.05 -1669.76,107.93 136.36,-0.05 325.58,-0.44 514.8,-0.65 127.56,-0.21 255.13,-0.24 329.82,0.44z"/>
     <path class="fil33" d="M1014.67 4215.39c309.17,-40.88 592.15,-71.41 862.63,-91.68 -48.46,-20.1 -109.42,-29.95 -169.22,-29.63 -315.89,-304.73 -1265.42,-313.88 -1604.49,121.53 140.66,-0.05 340.79,-0.49 540.91,-0.72 143.21,-0.23 286.42,-0.26 370.16,0.51z"/>
     <path class="fil34" d="M1092.63 4215.43c277.72,-45.43 526.34,-79.34 761.07,-101.87 -57.63,-22.36 -129.15,-33.34 -199.37,-33.02 -320.39,-279.29 -1220.7,-279.72 -1539.22,135.12 144.96,-0.05 356,-0.53 567.02,-0.79 158.86,-0.26 317.72,-0.29 410.5,0.56z"/>
     <path class="fil34" d="M1170.59 4215.45c246.27,-49.96 460.54,-87.28 659.52,-112.06 -66.8,-24.64 -148.89,-36.74 -229.53,-36.42 -324.89,-253.84 -1175.97,-245.55 -1473.95,148.72 149.26,-0.05 371.2,-0.58 593.14,-0.86 174.51,-0.27 349.01,-0.31 450.83,0.62z"/>
     <path class="fil35" d="M1248.55 4215.49c214.82,-54.51 394.72,-95.22 557.96,-122.25 -75.97,-26.9 -168.62,-40.13 -259.68,-39.81 -329.39,-228.4 -1131.25,-211.39 -1408.69,162.31 153.56,-0.05 386.41,-0.62 619.25,-0.93 190.16,-0.3 380.31,-0.33 491.16,0.68z"/>
     <path class="fil36" d="M1326.51 4215.51c183.37,-59.05 328.92,-103.15 456.4,-132.44 -85.14,-29.17 -188.34,-43.53 -289.85,-43.21 -333.88,-202.95 -1086.53,-177.22 -1343.41,175.91 157.86,-0.05 401.62,-0.67 645.36,-1 205.81,-0.32 411.61,-0.35 531.5,0.75z"/>
     <path class="fil37" d="M1404.47 4215.55c151.92,-63.6 263.11,-111.09 354.85,-142.64 -94.31,-31.44 -208.08,-46.93 -320.01,-46.61 -338.38,-177.5 -1041.8,-143.05 -1278.15,189.51 162.16,-0.05 416.82,-0.72 671.47,-1.07 221.46,-0.35 442.9,-0.39 571.84,0.81z"/>
     <path class="fil38" d="M1482.42 4215.58c120.47,-68.13 197.3,-119.02 253.29,-152.82 -103.48,-33.71 -227.8,-50.33 -350.16,-50.01 -342.88,-152.05 -997.08,-108.89 -1212.88,203.1 166.46,-0.06 432.03,-0.76 697.58,-1.14 237.1,-0.37 474.19,-0.41 612.17,0.86z"/>
     <path class="fil39" d="M1560.38 4215.61c89.02,-72.68 131.49,-126.96 151.73,-163.01 -112.65,-35.97 -247.53,-53.72 -380.32,-53.4 -347.37,-126.6 -952.36,-74.72 -1147.61,216.7 170.76,-0.06 447.23,-0.81 723.69,-1.21 252.75,-0.39 505.5,-0.43 652.51,0.93z"/>
     <path class="fil40" d="M1638.34 4215.65c57.58,-77.22 65.69,-134.9 50.18,-173.2 -121.82,-38.24 -267.26,-57.13 -410.48,-56.81 -351.87,-101.15 -907.63,-40.56 -1082.34,230.29 175.06,-0.06 462.44,-0.86 749.8,-1.28 268.4,-0.42 536.79,-0.46 692.84,0.99z"/>
     <path class="fil41" d="M1716.3 4215.68c26.12,-81.77 -0.13,-142.84 -51.38,-183.4 -130.99,-40.51 -286.99,-60.51 -440.64,-60.2 -356.37,-75.71 -862.91,-6.39 -1017.07,243.89 179.36,-0.06 477.64,-0.9 775.92,-1.35 284.05,-0.44 568.09,-0.48 733.18,1.06z"/>
     <path class="fil42" d="M1794.25 4215.71c-5.32,-86.3 -65.93,-150.77 -152.94,-193.58 -140.16,-42.78 -306.72,-63.92 -470.79,-63.6 -360.87,-50.26 -818.19,27.77 -951.81,257.49 183.66,-0.07 492.85,-0.95 802.03,-1.42 299.7,-0.47 599.38,-0.51 773.51,1.11z"/>
     <path class="fil43" d="M1872.21 4215.74c-36.78,-90.85 -131.74,-158.71 -254.49,-203.78 -149.34,-45.04 -326.45,-67.31 -500.96,-66.99 -365.36,-24.81 -773.47,61.94 -886.53,271.08 187.96,-0.07 508.06,-1 828.14,-1.49 315.35,-0.49 630.68,-0.53 813.85,1.18z"/>
    </g>
    <path class="fil44" d="M1950.17 4215.77c-272.89,-381.56 -1523.38,-376.81 -1708.43,0.32 384.52,-0.13 1324.03,-3.9 1708.43,-0.32z"/>
   </g>
   <path class="fil1" d="M515.52 537.84c-62.86,-81.84 -77.07,-147.56 -108.02,-262.88 -7.22,-72.8 -9.72,-216.74 22.62,-274.96 64.57,0.61 188.27,87.97 223.91,118.03 129.67,109.39 217.26,273.11 222.95,457.28 2.41,77.74 -1.47,111 -40.83,172.45 -43.92,36.58 -234.81,-71.35 -320.63,-209.92zm487.89 130.11c39.24,-45.94 97.55,-82.97 185.25,-90.27 -4.43,100.83 -23.97,144.25 -76.05,199.24 -40.54,42.83 -81.83,58.67 -114.52,67.74 -12.15,3.37 -57.42,-26.21 -46.69,-68.6 8.71,-34.41 15.65,-65.53 52.01,-108.12zm-115.87 326.27c-13.42,-37.21 -18,-69.45 -35.66,-98.9 -73.73,-122.98 -197.71,-180.55 -370.17,-180.08 -31.3,2.25 -85.96,10.08 -111.96,27.32 14.51,86.8 130.74,200.63 233.6,234.62 75.7,55.38 258.07,4.61 284.18,17.03z"/>
   <path class="fil2" d="M693.99 393.62c-27.98,-51.33 -230.77,-384.95 -265.69,-393.31 0.25,20.18 213.26,355.71 241.07,406.72 19.53,35.82 133.03,314.29 150.94,309.19 18.34,-10.51 -108.84,-290.53 -126.33,-322.61zm-118.34 105.57c18.12,28.26 129.8,185.52 169.35,158.71 15.29,0.9 -142.78,-139.95 -169.35,-158.71zm519.7 275.84c-12.04,-1.24 -59,13.33 -69.33,13.91 23.95,32.46 41.28,7.4 69.33,-13.91zm66.24 -111.83c-40.87,29.1 -26.88,24.75 -86.17,48.27 36.67,-44.24 57.6,-81.15 103.4,-120.45 -59.68,24.54 -104.55,77.75 -142.7,123.98 -35.31,42.79 -63.28,98.29 -63.01,104.27 48.54,-24.34 52.01,-46.91 84.66,-86.48l12.59 -15.23c20.77,24.83 76.27,-29.09 91.22,-54.37zm-150.2 82.1c-2.13,-34.59 7.76,-26.84 -7.1,-65.05 -21.36,26.05 -31.69,52.16 -10.4,80.91l17.5 -15.86zm59.51 -122.68c-17.32,4.51 -31.66,42.97 -16.37,55.31 8.69,-16.36 8.37,-26.82 16.37,-55.31zm-498.43 111.71c-11.81,29.9 -0.03,53.06 39,68.98 -36.18,-40.68 -20.93,-38 -39,-68.98zm117.49 39.5c-8.68,16.66 -21.85,52.3 28.37,82.93 0.17,-24.88 -23.81,-16.93 -28.37,-82.93zm-67.75 118.4c-27.99,14.98 -31.1,32.73 -31.76,60.31 40.33,-20.18 45.57,-55.76 99.56,-55.11 -18.64,-19.05 -43.11,-18.42 -67.8,-5.2zm-61.17 -79.33c21.61,9.12 43.67,18.95 65.53,29.21 42.78,20.09 220.78,135.4 240.7,135.42 -25.87,-57.62 -181.59,-138.64 -228.83,-160.81 -93.29,-43.8 -145.1,-73.93 -259.83,-71.44 78.03,22.84 84.95,27.6 166.45,60.97 -38.31,-9.88 -76.27,5.29 -95.88,37.9 24.04,-10.31 49.28,-30.49 111.86,-31.25zm219.43 -492.26c-28.34,24.63 -50.21,116.07 -42.89,153.72 25.39,-53.76 40.24,-109.42 42.89,-153.72zm-102.8 -171.49c-41.61,33.6 -62.63,102.78 -29.18,148.76 -6.23,-90.82 31.93,-124.03 29.18,-148.76zm-80.08 255.94c-25.21,-14.34 -131.82,-32.97 -143.81,1.98 44.26,15.17 101.3,6.11 129.96,22.41 41.52,23.6 42.48,30.67 88.08,27.79 -28.64,-21.65 -44.45,-35.26 -74.23,-52.18zm-186.91 -151.02c12.55,3.36 162.22,35.01 163.37,31.55 -74.22,-34.3 -109.23,-63 -163.37,-31.55z"/>
  </g>
 </g>
</svg>
