<?xml version="1.0" encoding="UTF-8"?>
<!DOCTYPE svg PUBLIC "-//W3C//DTD SVG 1.1//EN" "http://www.w3.org/Graphics/SVG/1.1/DTD/svg11.dtd">
<!-- Creator: CorelDRAW 2019 (64-Bit) -->
<svg xmlns="http://www.w3.org/2000/svg" xml:space="preserve" width="35.3644mm" height="84.1091mm" version="1.1" style="shape-rendering:geometricPrecision; text-rendering:geometricPrecision; image-rendering:optimizeQuality; fill-rule:evenodd; clip-rule:evenodd"
viewBox="0 0 754.46 1794.37"
 xmlns:xlink="http://www.w3.org/1999/xlink">
 <defs>
  <style type="text/css">
   <![CDATA[
    .fil0 {fill:#256930}
    .fil1 {fill:#3D8E41}
    .fil44 {fill:#4F0D0F}
    .fil43 {fill:#500E0F}
    .fil42 {fill:#510F10}
    .fil41 {fill:#520F10}
    .fil40 {fill:#531010}
    .fil39 {fill:#541110}
    .fil38 {fill:#551211}
    .fil37 {fill:#561211}
    .fil36 {fill:#571311}
    .fil35 {fill:#581412}
    .fil34 {fill:#591512}
    .fil33 {fill:#5A1612}
    .fil32 {fill:#5B1713}
    .fil31 {fill:#5C1813}
    .fil30 {fill:#5D1813}
    .fil29 {fill:#5E1914}
    .fil28 {fill:#5F1A14}
    .fil27 {fill:#601B14}
    .fil26 {fill:#611B14}
    .fil25 {fill:#621C15}
    .fil3 {fill:#631D15}
    .fil24 {fill:#641E15}
    .fil23 {fill:#661F16}
    .fil22 {fill:#672016}
    .fil21 {fill:#692117}
    .fil20 {fill:#6A2217}
    .fil19 {fill:#6C2318}
    .fil18 {fill:#6D2418}
    .fil17 {fill:#6E2519}
    .fil16 {fill:#702619}
    .fil15 {fill:#71271A}
    .fil14 {fill:#73291A}
    .fil13 {fill:#742A1B}
    .fil12 {fill:#762B1B}
    .fil11 {fill:#772C1C}
    .fil10 {fill:#782D1C}
    .fil9 {fill:#7A2E1D}
    .fil8 {fill:#7B2F1D}
    .fil7 {fill:#7D301E}
    .fil6 {fill:#7E311E}
    .fil5 {fill:#80321F}
    .fil4 {fill:#81331F}
    .fil2 {fill:#256930;fill-rule:nonzero}
   ]]>
  </style>
 </defs>
 <g id="Слой_x0020_1">
  <metadata id="CorelCorpID_0Corel-Layer"/>
  <g id="_2987425066896">
   <path class="fil0" d="M334.77 881.59c-64.59,-22.68 -24.25,-50.33 -107.96,-122.16 -69.85,-59.95 -139.3,-62.94 -226.81,-48.81 15.97,99.82 159.32,209.03 286.98,171.31 13.25,4.03 20.64,13.95 29.93,23.18 14.73,14.62 9.65,18.31 5.58,42.35 -15.84,93.76 -27.45,202.02 -31.71,297.63 -3.38,76 0.35,132.75 11.63,203.97 10.45,66.03 30.02,120.57 42.8,181.69 26.28,5.92 85.39,-6.68 141.01,4.79l81.47 12.89c-5.79,-14.41 -22.05,-34.99 -31.73,-49.94 -58.87,-90.93 -97.04,-177.82 -129.97,-283.41 -16.96,-54.36 -14.24,-63.22 12.36,-127.92 61.08,-148.58 71.73,-108.06 124.63,-120.41 23.07,-5.38 40.6,-13.02 59.46,-23.17 70.73,-38.06 131.14,-120.92 128.85,-197.57 -102.94,-15.91 -220.5,63.82 -252.46,175.28 -12.94,45.13 -3.2,28.09 -32.27,56.37 -26.05,25.35 -53.45,64.03 -65.11,110.57l-7.02 -13.14c-4.83,-18.29 -11.57,-113.92 -12.38,-132.17 -2.27,-51.1 3.65,-103.6 10.14,-153.24 5.95,-45.47 49.27,-236.8 72.69,-254.96 11.97,-5.69 94.7,17.59 129.4,-7.79 47.14,-15.58 100.42,-67.75 107.07,-107.54 -11.91,-7.9 -36.97,-11.49 -51.32,-12.52 -92.13,-0.26 -127.87,33.84 -168.81,82.52 1.99,-9.13 17.57,-52.94 21.44,-57.4 7.67,-8.82 87.07,-34.09 131.87,-106.44 28.81,-37.51 35.33,-67.63 49.51,-120.49 3.31,-33.37 4.46,-99.34 -10.37,-126.03 -29.6,0.28 -86.29,40.32 -102.63,54.1 -59.43,50.14 -99.58,125.18 -102.19,209.6 -0.64,20.89 6.47,61.21 4.92,72.99 -5.19,39.42 -53.33,126.84 -53.12,101.06 0.46,-55.88 -13.4,-92.6 -24.5,-127.81 -14.1,-44.73 -34.31,-83.85 -33.04,-89.11 7.17,-14.4 43.68,-6.74 78.71,-43.73 23.87,-25.2 32.83,-45.11 34.86,-91.32 -40.2,3.35 -66.92,20.32 -84.91,41.38 -30.03,35.15 -18.26,47.59 -35.66,83.56 -7.23,-5.18 -26.05,-44.26 -27.21,-53.04 -1.55,-11.78 5.56,-52.1 4.92,-72.98 -2.61,-84.42 -42.76,-159.46 -102.19,-209.6 -16.34,-13.78 -73.03,-53.82 -102.63,-54.1 -14.82,26.69 -13.68,92.66 -10.37,126.03 14.18,52.86 20.7,82.98 49.51,120.49 44.8,72.35 124.21,97.62 131.87,106.44 3.87,4.46 19.46,48.27 21.44,57.4 -40.94,-48.68 -76.68,-82.78 -168.81,-82.52 -14.34,1.03 -39.4,4.62 -51.32,12.52 6.65,39.79 59.92,91.96 107.07,107.54 34.7,25.39 117.43,2.1 129.4,7.79 9.25,7.17 21.62,41.38 33.55,82.94 18.7,65.13 -3.74,265.86 -16.61,342.95z"/>
   <path class="fil1" d="M287.84 881.91c0.36,-16.02 3.52,-28.13 1.75,-39.39 -5.02,-32.03 -24.27,-50.8 -61.92,-83.11 -69.85,-59.95 -140.15,-62.92 -227.67,-48.8 15.97,99.82 160.17,209.02 287.84,171.3zm327.58 -456.37c28.81,-37.51 35.32,-67.63 49.51,-120.49 3.31,-33.37 4.46,-99.34 -10.37,-126.03 -29.59,0.28 -86.29,40.32 -102.63,54.1 -59.43,50.14 -99.58,125.18 -102.19,209.6 -1.1,35.63 0.67,50.88 18.72,79.04 20.13,16.77 107.63,-32.7 146.96,-96.22zm-170.52 209.18c6.15,-17.06 8.25,-31.83 16.34,-45.33 33.79,-56.37 90.62,-82.76 169.67,-82.54 14.34,1.03 39.4,4.62 51.32,12.52 -6.65,39.79 -59.92,91.96 -107.07,107.54 -34.7,25.39 -118.29,2.11 -130.26,7.81zm27.52 413.61l13.92 26.54c16.27,-8.54 31.96,-2.18 57.49,-8.14 23.07,-5.38 40.6,-13.02 59.46,-23.17 70.73,-38.06 131.14,-120.93 128.85,-197.57 -98.91,-15.29 -181.9,40.55 -228.71,119.22 -15.29,25.69 -24.6,56.08 -31.02,83.12z"/>
   <path class="fil2" d="M533.61 359.44c12.83,-23.53 105.78,-176.44 121.78,-180.27 -0.12,9.25 -97.75,163.04 -110.49,186.42 -8.95,16.42 -60.97,144.05 -69.19,141.72 -8.4,-4.82 49.89,-133.17 57.9,-147.87zm15.91 649.9c19.17,-2.68 52.33,-12.85 58.45,24.19 -1.93,-0.17 -8.97,-13.6 -21.75,-18.4 -15.17,-5.69 -36.32,-3.08 -36.7,-5.78zm18.7 -112.27c5.32,7.81 14.64,46.11 -1.39,64.79 -1.15,1.34 1.81,-2.99 2.49,-21.43 0.37,-9.96 -2.77,-24.88 -1.1,-43.36zm113 78.24c-23.03,5.96 -34.83,-23.15 -76.84,-7.35 16.19,-30.07 69.64,-20.04 76.84,7.35zm-41.9 -111.69c12.35,13.42 14.49,18.62 2.72,37.36 25.31,-19.85 52.9,-44.83 85.3,-50.4 -14.4,21.59 -93.24,72.43 -121.93,97.69 -51.3,45.17 -93.02,89.4 -95.14,97.88l-12.49 -3.13c2.57,-10.31 46.11,-57.75 99.11,-104.43 11.05,-9.73 22.54,-19.48 34.18,-28.89 -6.81,-6.92 13.9,-21.39 8.23,-46.09zm31.31 39.69c2.52,-3.49 6.36,-6.06 10.96,-7.87 9.62,-3.8 17.29,-0.99 35.99,2.71 -6.45,3.29 -9.92,4.04 -23.52,5.18 -13.6,1.14 -18.05,3.86 -23.42,-0.01zm-536.68 -107.85c-6.36,0 -10.49,0.09 -14.23,0.17 -30.86,0.66 -43.26,0.92 -63.86,-32.4l-0.76 -1.34c0.1,-0.05 17.94,15.19 38.62,21.57 18.58,5.73 40.23,2.06 40.23,12.01zm89.17 42.75c-5.84,5.06 -22.69,8.28 -39.92,9.46 -18.59,1.28 -38.42,0.31 -45.41,-3.18 15.35,-1.18 23.7,-3.39 42.84,-8.05 17.23,-4.19 37.44,-4.06 42.48,1.77zm10.87 -60.41c0.04,0.67 3.83,10.42 10.88,22.52 6.9,11.85 17.22,26.05 4.43,27.15 -14.4,-11.42 -14.91,-36.33 -15.31,-49.67zm-48.73 8.2c6.31,-24.83 -25.65,-39.07 -22.14,-58.83 15.11,6.9 42.21,39.35 22.14,58.83zm-64.24 -31.31c-3.17,-20.95 -26.95,-28.7 -40.23,-42.84 40.61,2.92 54.73,40.89 42.2,43.88 11.14,5.86 22.16,11.91 33.04,18.15 43.64,25.05 105.77,47.71 123.24,96.35 -46.09,-36.76 -78.15,-55.62 -129.64,-85.16 -48.73,-27.97 -100.47,-38.65 -141.56,-68.77 43.35,14.31 73.31,17.66 112.95,38.4zm466.83 -346.85c-8.31,12.95 -59.5,85.03 -77.63,72.74 -7.01,0.41 65.44,-64.15 77.63,-72.74zm1.46 107.77c5.41,13.7 0.01,24.32 -17.88,31.62 16.58,-18.64 9.59,-17.42 17.88,-31.62zm-53.85 18.11c3.98,7.63 10.02,23.97 -13.01,38.01 -0.08,-11.4 10.92,-7.76 13.01,-38.01zm31.06 54.27c12.83,6.87 14.25,15 14.55,27.64 -18.48,-9.25 -20.89,-25.56 -45.63,-25.26 8.54,-8.73 19.76,-8.44 31.08,-2.38zm28.03 -36.36c-9.91,4.18 -20.02,8.68 -30.03,13.39 -19.61,9.21 -101.19,62.06 -110.32,62.07 11.86,-26.41 83.23,-63.54 104.88,-73.71 42.76,-20.08 66.51,-33.88 119.09,-32.75 -35.77,10.47 -38.94,12.65 -76.29,27.95 17.56,-4.53 34.96,2.43 43.95,17.37 -11.02,-4.72 -22.59,-13.97 -51.27,-14.32zm-100.58 -225.63c12.99,11.29 23.01,53.2 19.66,70.46 -11.64,-24.64 -18.45,-50.15 -19.66,-70.46zm47.12 -78.6c19.07,15.4 28.71,47.11 13.38,68.19 2.86,-41.63 -14.63,-56.85 -13.38,-68.19zm36.71 117.31c11.55,-6.57 60.42,-15.11 65.92,0.91 -20.29,6.95 -46.43,2.8 -59.57,10.27 -19.03,10.82 -19.47,14.05 -40.37,12.74 13.13,-9.92 20.37,-16.16 34.02,-23.92zm85.67 -69.22c-5.75,1.54 -74.35,16.05 -74.88,14.46 34.02,-15.72 50.06,-28.88 74.88,-14.46z"/>
   <g>
    <path class="fil3" d="M151.37 1794.05l570.28 0.01 32.81 0.31c-88.41,-171.33 -535.38,-199.45 -703.57,-0.27l98.19 -0.03 2.29 -0.01z"/>
    <path class="fil4" d="M183.45 1794.03l527.73 -0.07 43.28 0.4c-26.52,-51.4 -63.82,-93.27 -100.45,-122.78 -57.89,-46.63 -90.74,-46.92 -143.25,-76.13l-57.05 -9.03c-38.95,-8.03 -80.35,0.79 -98.75,-3.36 -21.52,21.62 -253.44,45.67 -304.07,211.02l129.53 -0.04 3.03 -0.02z"/>
    <g>
     <path class="fil5" d="M181.92 1794.03c172.06,-0.02 344.12,-0.04 516.18,-0.07 18.27,0.13 36.53,0.26 54.8,0.38 -24.74,-48.94 -59.74,-88.82 -94.11,-116.92 -56.19,-46.45 -89.59,-48.34 -142.32,-77.28 -20.83,-3.99 -42.24,-7.49 -63.78,-10.44 -40.52,-7.73 -83.49,1.13 -104.2,-1.73 -23.68,21.67 -247.39,46.27 -297.61,206.12 42.68,-0.01 85.36,-0.03 128.04,-0.04 1,-0.01 1.99,-0.01 2.99,-0.02z"/>
     <path class="fil6" d="M180.39 1794.04c168.21,-0.02 336.42,-0.04 504.63,-0.06 22.1,0.12 44.21,0.24 66.32,0.36 -22.95,-46.49 -55.66,-84.37 -87.76,-111.06 -54.48,-46.27 -88.44,-49.76 -141.38,-78.43 -22.63,-4.97 -46.45,-8.96 -70.5,-11.86 -42.09,-7.44 -86.63,1.47 -109.66,-0.11 -25.85,21.72 -241.34,46.87 -291.15,201.22 42.18,-0.01 84.36,-0.03 126.55,-0.04 0.99,-0.01 1.97,-0.01 2.96,-0.02z"/>
     <path class="fil7" d="M178.86 1794.04c164.36,-0.02 328.72,-0.04 493.08,-0.06 25.94,0.12 51.89,0.23 77.83,0.35 -21.17,-44.04 -51.58,-79.92 -81.41,-105.2 -52.78,-46.09 -87.29,-51.18 -140.44,-79.59 -24.44,-5.95 -50.66,-10.44 -77.23,-13.27 -43.66,-7.14 -89.77,1.82 -115.11,1.51 -28.01,21.78 -235.29,47.47 -284.69,196.32 41.68,-0.01 83.37,-0.03 125.06,-0.04 0.97,-0.01 1.95,-0.01 2.92,-0.02z"/>
     <path class="fil8" d="M177.34 1794.04c160.51,-0.02 321.02,-0.04 481.52,-0.06 29.78,0.11 59.57,0.22 89.35,0.33 -19.39,-41.59 -47.5,-75.47 -75.07,-99.34 -51.08,-45.91 -86.14,-52.59 -139.51,-80.74 -26.25,-6.94 -54.86,-11.91 -83.95,-14.69 -45.23,-6.84 -92.91,2.16 -120.56,3.13 -30.17,21.83 -229.24,48.07 -278.24,191.42 41.19,-0.01 82.37,-0.03 123.57,-0.04 0.96,-0.01 1.92,-0.01 2.89,-0.02z"/>
     <path class="fil9" d="M175.81 1794.04c156.66,-0.02 313.31,-0.04 469.97,-0.05 33.62,0.1 67.24,0.21 100.87,0.31 -17.6,-39.13 -43.41,-71.02 -68.72,-93.47 -49.37,-45.73 -84.99,-54.02 -138.57,-81.89 -28.05,-7.92 -59.07,-13.39 -90.68,-16.1 -46.8,-6.54 -96.05,2.51 -126.01,4.76 -32.33,21.88 -223.19,48.67 -271.78,186.51 40.69,-0.01 81.38,-0.03 122.07,-0.04 0.95,-0.01 1.9,-0.01 2.85,-0.02z"/>
     <path class="fil10" d="M174.28 1794.04c152.81,-0.02 305.61,-0.03 458.42,-0.05 37.46,0.1 74.92,0.19 112.38,0.29 -15.82,-36.68 -39.34,-66.56 -62.38,-87.61 -47.67,-45.55 -83.85,-55.43 -137.63,-83.04 -29.86,-8.9 -63.28,-14.86 -97.41,-17.52 -48.37,-6.24 -99.19,2.86 -131.47,6.38 -34.5,21.93 -217.14,49.28 -265.32,181.61 40.19,-0.01 80.39,-0.03 120.58,-0.04 0.94,-0.01 1.88,-0.01 2.82,-0.02z"/>
     <path class="fil11" d="M172.75 1794.04c148.96,-0.02 297.91,-0.03 446.87,-0.05 41.3,0.09 82.6,0.18 123.9,0.27 -14.04,-34.23 -35.26,-62.11 -56.03,-81.75 -45.96,-45.37 -82.7,-56.85 -136.69,-84.2 -31.67,-9.88 -67.49,-16.34 -104.13,-18.93 -49.94,-5.95 -102.34,3.2 -136.92,8 -36.66,21.98 -211.1,49.88 -258.86,176.71 39.7,-0.01 79.39,-0.03 119.09,-0.04 0.93,-0.01 1.85,-0.01 2.78,-0.02z"/>
     <path class="fil12" d="M171.23 1794.04c145.11,-0.01 290.21,-0.03 435.32,-0.04 45.14,0.09 90.28,0.17 135.42,0.25 -12.25,-31.78 -31.17,-57.66 -49.68,-75.89 -44.26,-45.19 -81.55,-58.27 -135.76,-85.35 -33.47,-10.86 -71.69,-17.81 -110.86,-20.35 -51.51,-5.65 -105.48,3.55 -142.37,9.63 -38.82,22.03 -205.05,50.48 -252.4,171.81 39.2,-0.01 78.4,-0.03 117.59,-0.04 0.92,-0.01 1.83,-0.01 2.75,-0.02z"/>
     <path class="fil13" d="M169.7 1794.04c141.26,-0.01 282.51,-0.03 423.76,-0.04 48.98,0.08 97.96,0.16 146.93,0.23 -10.47,-29.33 -27.09,-53.21 -43.34,-70.03 -42.55,-45.01 -80.4,-59.69 -134.82,-86.5 -35.28,-11.84 -75.9,-19.28 -117.58,-21.76 -53.08,-5.35 -108.62,3.89 -147.82,11.25 -40.98,22.08 -199,51.08 -245.95,166.91 38.7,-0.01 77.4,-0.03 116.1,-0.04 0.9,-0.01 1.81,-0.01 2.71,-0.02z"/>
     <path class="fil14" d="M168.17 1794.04c137.4,-0.01 274.81,-0.02 412.21,-0.04 52.82,0.07 105.63,0.14 158.45,0.22 -8.68,-26.87 -23.01,-48.76 -36.99,-64.17 -40.85,-44.82 -79.25,-61.11 -133.88,-87.66 -37.09,-12.82 -80.1,-20.76 -124.31,-23.18 -54.65,-5.05 -111.76,4.23 -153.27,12.87 -43.15,22.13 -192.95,51.68 -239.49,162 38.2,-0.01 76.4,-0.03 114.61,-0.04 0.89,-0.01 1.79,-0.01 2.68,-0.02z"/>
     <path class="fil15" d="M166.64 1794.04c133.55,-0.01 267.11,-0.02 400.66,-0.03 56.66,0.06 113.31,0.13 169.97,0.19 -6.9,-24.42 -18.93,-44.31 -30.65,-58.31 -39.15,-44.64 -78.1,-62.53 -132.95,-88.81 -38.9,-13.8 -84.31,-22.23 -131.03,-24.59 -56.21,-4.76 -114.9,4.58 -158.73,14.5 -45.31,22.19 -186.9,52.28 -233.03,157.1 37.71,-0.01 75.41,-0.03 113.12,-0.04 0.88,-0.01 1.76,-0.01 2.64,-0.02z"/>
     <path class="fil16" d="M165.12 1794.04c129.7,-0.01 259.4,-0.02 389.11,-0.03 60.5,0.06 120.99,0.12 181.49,0.17 -5.12,-21.97 -14.85,-39.86 -24.3,-52.44 -37.44,-44.46 -76.95,-63.95 -132.01,-89.96 -40.7,-14.78 -88.52,-23.7 -137.76,-26.01 -57.78,-4.46 -118.04,4.92 -164.18,16.12 -47.47,22.24 -180.85,52.88 -226.58,152.2 37.21,-0.01 74.41,-0.03 111.62,-0.04 0.87,-0.01 1.74,-0.01 2.61,-0.02z"/>
     <path class="fil17" d="M163.59 1794.04c125.85,-0.01 251.7,-0.02 377.55,-0.02 64.33,0.05 128.67,0.1 193,0.16 -3.33,-19.52 -10.77,-35.41 -17.96,-46.58 -35.74,-44.28 -75.81,-65.36 -131.07,-91.11 -42.51,-15.77 -92.73,-25.18 -144.49,-27.42 -59.35,-4.16 -121.18,5.27 -169.63,17.74 -49.64,22.29 -174.8,53.48 -220.12,147.3 36.71,-0.01 73.42,-0.03 110.13,-0.04 0.86,-0.01 1.71,-0.01 2.57,-0.02z"/>
     <path class="fil18" d="M162.06 1794.04c122,-0.01 244,-0.01 366,-0.02 68.17,0.04 136.35,0.09 204.52,0.14 -1.55,-17.06 -6.69,-30.96 -11.61,-40.72 -34.03,-44.1 -74.66,-66.79 -130.14,-92.27 -44.31,-16.75 -96.93,-26.65 -151.21,-28.84 -60.92,-3.86 -124.32,5.62 -175.08,19.36 -51.8,22.34 -168.75,54.08 -213.66,142.4 36.21,-0.01 72.43,-0.02 108.64,-0.04 0.84,-0.01 1.69,-0.01 2.54,-0.02z"/>
     <path class="fil19" d="M160.53 1794.05c118.15,-0.01 236.3,-0.01 354.45,-0.02 72.01,0.04 144.02,0.08 216.04,0.12 0.23,-14.61 -2.61,-26.51 -5.27,-34.86 -32.33,-43.92 -73.51,-68.21 -129.2,-93.42 -46.12,-17.73 -101.14,-28.13 -157.94,-30.25 -62.49,-3.56 -127.47,5.96 -180.54,20.99 -53.96,22.39 -162.7,54.68 -207.2,137.49 35.71,-0.01 71.43,-0.02 107.15,-0.03 0.83,-0.01 1.67,-0.01 2.5,-0.02z"/>
     <path class="fil20" d="M159.01 1794.05c114.3,-0.01 228.6,-0.01 342.9,-0.01 75.85,0.03 151.7,0.07 227.55,0.1 2.02,-12.16 1.47,-22.05 1.08,-29 -30.62,-43.74 -72.36,-69.62 -128.26,-94.57 -47.93,-18.71 -105.35,-29.6 -164.66,-31.67 -64.06,-3.26 -130.61,6.31 -185.99,22.61 -56.12,22.44 -156.65,55.28 -200.74,132.59 35.22,-0.01 70.44,-0.02 105.66,-0.03 0.82,-0.01 1.64,-0.01 2.47,-0.02z"/>
     <path class="fil21" d="M157.48 1794.05c110.45,-0 220.9,-0.01 331.35,-0.01 79.69,0.03 159.38,0.05 239.07,0.08 3.8,-9.71 5.55,-17.6 7.43,-23.14 -28.92,-43.56 -71.21,-71.04 -127.33,-95.73 -49.74,-19.69 -109.55,-31.07 -171.39,-33.08 -65.63,-2.97 -133.75,6.65 -191.44,24.24 -58.29,22.49 -150.61,55.88 -194.29,127.69 34.72,-0.01 69.44,-0.02 104.16,-0.03 0.81,-0.01 1.62,-0.01 2.43,-0.02z"/>
     <path class="fil22" d="M155.95 1794.05c106.6,-0 213.2,-0 319.79,-0.01 83.53,0.02 167.06,0.04 250.59,0.06 5.59,-7.26 9.63,-13.15 13.77,-17.28 -27.22,-43.38 -70.06,-72.46 -126.39,-96.88 -51.54,-20.67 -113.76,-32.55 -178.11,-34.5 -67.2,-2.67 -136.89,7 -196.89,25.86 -60.45,22.54 -144.56,56.48 -187.83,122.79 34.22,-0.01 68.45,-0.02 102.67,-0.03 0.8,-0.01 1.6,-0.01 2.4,-0.01z"/>
     <path class="fil23" d="M154.42 1794.05c102.75,-0 205.5,-0 308.24,-0 87.37,0.01 174.74,0.03 262.1,0.04 7.37,-4.8 13.71,-8.7 20.12,-11.42 -25.51,-43.2 -68.91,-73.88 -125.45,-98.03 -53.35,-21.65 -117.97,-34.02 -184.84,-35.91 -68.77,-2.37 -140.03,7.34 -202.34,27.48 -62.61,22.59 -138.51,57.08 -181.37,117.89 33.72,-0.01 67.45,-0.02 101.18,-0.03 0.79,-0.01 1.57,-0.01 2.36,-0.02z"/>
     <path class="fil24" d="M152.9 1794.05c98.9,-0 197.79,0 296.69,0 91.21,0.01 182.41,0.02 273.62,0.03 9.15,-2.35 17.79,-4.25 26.46,-5.56 -23.81,-43.01 -67.76,-75.3 -124.52,-99.18 -55.16,-22.64 -122.17,-35.5 -191.56,-37.33 -70.34,-2.07 -143.17,7.68 -207.8,29.1 -64.77,22.65 -132.46,57.69 -174.91,112.99 33.23,-0.01 66.45,-0.02 99.69,-0.03 0.77,-0.01 1.55,-0.01 2.33,-0.01z"/>
    </g>
    <path class="fil3" d="M151.37 1794.05l570.28 0.01 32.81 0.31c-88.41,-171.33 -535.38,-199.45 -703.57,-0.27l98.19 -0.03 2.29 -0.01z"/>
    <g>
     <path class="fil25" d="M176.39 1794.06c180,-1.46 359.06,-2.54 537.68,-3.26 7.99,-0.63 15.54,-0.89 23.13,-0.79 -89.85,-163.17 -521.03,-188.48 -682.62,4.1 34.11,-0.01 70.34,-0.04 106.58,-0.05 5.79,-0.01 11.57,-0.02 15.24,0z"/>
     <path class="fil26" d="M201.42 1794.07c169.9,-2.92 337.94,-5.09 505.08,-6.53 5.05,-1.35 9.21,-1.98 13.45,-1.88 -91.29,-155 -506.67,-177.52 -661.67,8.46 35.49,-0.01 75.22,-0.05 114.96,-0.08 10.81,-0.02 21.62,-0.03 28.19,0.03z"/>
     <path class="fil27" d="M226.44 1794.08c159.81,-4.37 316.82,-7.64 472.48,-9.8 2.11,-2.08 2.87,-3.07 3.77,-2.97 -92.74,-146.83 -492.32,-166.55 -640.72,12.82 36.87,-0.01 80.1,-0.07 123.34,-0.1 15.83,-0.03 31.66,-0.04 41.13,0.04z"/>
     <path class="fil28" d="M251.46 1794.09c149.71,-5.83 295.69,-10.18 439.88,-13.07 -0.84,-2.81 -3.46,-4.16 -5.91,-4.06 -94.18,-138.66 -477.96,-155.59 -619.77,17.19 38.25,-0.01 84.99,-0.08 131.72,-0.12 20.86,-0.04 41.71,-0.04 54.08,0.06z"/>
     <path class="fil29" d="M276.49 1794.1c139.62,-7.29 274.57,-12.73 407.29,-16.34 -3.78,-3.54 -9.79,-5.25 -15.59,-5.15 -95.63,-130.49 -463.6,-144.62 -598.82,21.55 39.63,-0.01 89.87,-0.1 140.1,-0.14 25.88,-0.04 51.75,-0.05 67.03,0.08z"/>
     <path class="fil30" d="M301.51 1794.11c129.52,-8.75 253.44,-15.28 374.69,-19.62 -6.72,-4.27 -16.13,-6.34 -25.27,-6.24 -97.07,-122.32 -449.25,-133.65 -577.87,25.92 41.01,-0.01 94.75,-0.11 148.48,-0.17 30.9,-0.05 61.8,-0.06 79.98,0.1z"/>
     <path class="fil31" d="M326.53 1794.12c119.43,-10.2 232.32,-17.82 342.09,-22.88 -9.67,-5 -22.46,-7.43 -34.95,-7.33 -98.51,-114.16 -434.89,-122.69 -556.92,30.28 42.39,-0.01 99.63,-0.13 156.86,-0.19 35.92,-0.06 71.85,-0.07 92.92,0.12z"/>
     <path class="fil32" d="M351.56 1794.13c109.33,-11.66 211.2,-20.37 309.49,-26.16 -12.61,-5.72 -28.79,-8.52 -44.63,-8.42 -99.96,-105.99 -420.54,-111.72 -535.97,34.64 43.77,-0.01 104.51,-0.14 165.25,-0.21 40.95,-0.07 81.89,-0.08 105.87,0.14z"/>
     <path class="fil33" d="M376.58 1794.14c99.24,-13.12 190.07,-22.92 276.89,-29.43 -15.55,-6.45 -35.12,-9.61 -54.32,-9.51 -101.4,-97.82 -406.18,-100.75 -515.02,39.01 45.15,-0.01 109.39,-0.16 173.63,-0.23 45.97,-0.07 91.94,-0.08 118.82,0.16z"/>
     <path class="fil34" d="M401.6 1794.15c89.14,-14.58 168.95,-25.47 244.29,-32.7 -18.5,-7.18 -41.46,-10.7 -63.99,-10.6 -102.84,-89.65 -391.83,-89.79 -494.07,43.37 46.53,-0.01 114.27,-0.17 182.01,-0.25 50.99,-0.08 101.98,-0.09 131.76,0.18z"/>
     <path class="fil34" d="M426.63 1794.16c79.05,-16.04 147.83,-28.02 211.7,-35.97 -21.44,-7.91 -47.79,-11.79 -73.68,-11.69 -104.29,-81.48 -377.47,-78.82 -473.12,47.74 47.91,-0.02 119.15,-0.19 190.39,-0.28 56.02,-0.09 112.03,-0.1 144.71,0.2z"/>
     <path class="fil35" d="M451.65 1794.17c68.95,-17.5 126.7,-30.56 179.1,-39.24 -24.39,-8.64 -54.12,-12.88 -83.36,-12.78 -105.73,-73.31 -363.12,-67.85 -452.17,52.1 49.29,-0.02 124.03,-0.2 198.77,-0.3 61.04,-0.1 122.07,-0.11 157.66,0.22z"/>
     <path class="fil36" d="M476.67 1794.18c58.86,-18.96 105.58,-33.11 146.5,-42.51 -27.33,-9.36 -60.46,-13.97 -93.04,-13.87 -107.17,-65.14 -348.76,-56.88 -431.22,56.46 50.67,-0.02 128.91,-0.22 207.15,-0.32 66.06,-0.1 132.12,-0.11 170.6,0.24z"/>
     <path class="fil37" d="M501.7 1794.19c48.76,-20.41 84.45,-35.66 113.9,-45.78 -30.27,-10.09 -66.79,-15.06 -102.72,-14.96 -108.62,-56.97 -334.41,-45.92 -410.27,60.83 52.05,-0.02 133.79,-0.23 215.53,-0.34 71.08,-0.11 142.17,-0.12 183.55,0.26z"/>
     <path class="fil38" d="M526.72 1794.2c38.67,-21.87 63.33,-38.2 81.3,-49.05 -33.22,-10.82 -73.12,-16.15 -112.4,-16.05 -110.06,-48.81 -320.05,-34.95 -389.32,65.19 53.43,-0.02 138.68,-0.25 223.92,-0.36 76.11,-0.12 152.21,-0.13 196.5,0.28z"/>
     <path class="fil39" d="M551.75 1794.21c28.57,-23.33 42.21,-40.75 48.7,-52.33 -36.16,-11.55 -79.45,-17.24 -122.08,-17.14 -111.5,-40.64 -305.69,-23.99 -368.37,69.56 54.81,-0.02 143.56,-0.26 232.3,-0.39 81.13,-0.13 162.26,-0.14 209.45,0.3z"/>
     <path class="fil40" d="M576.77 1794.22c18.48,-24.79 21.08,-43.3 16.11,-55.6 -39.1,-12.28 -85.79,-18.34 -131.76,-18.23 -112.95,-32.47 -291.34,-13.02 -347.42,73.92 56.19,-0.02 148.44,-0.28 240.68,-0.41 86.15,-0.13 172.3,-0.15 222.39,0.32z"/>
     <path class="fil41" d="M601.79 1794.23c8.38,-26.25 -0.04,-45.85 -16.49,-58.87 -42.05,-13 -92.12,-19.42 -141.44,-19.32 -114.39,-24.3 -276.98,-2.05 -326.47,78.28 57.57,-0.02 153.32,-0.29 249.06,-0.43 91.18,-0.14 182.35,-0.15 235.34,0.34z"/>
     <path class="fil42" d="M626.81 1794.24c-1.71,-27.7 -21.16,-48.39 -49.09,-62.14 -44.99,-13.73 -98.45,-20.52 -151.12,-20.41 -115.83,-16.13 -262.63,8.92 -305.52,82.65 58.95,-0.02 158.2,-0.31 257.44,-0.45 96.2,-0.15 192.39,-0.16 248.28,0.36z"/>
     <path class="fil43" d="M651.84 1794.25c-11.81,-29.16 -42.29,-50.94 -81.69,-65.41 -47.93,-14.46 -104.79,-21.6 -160.8,-21.5 -117.28,-7.96 -248.27,19.88 -284.57,87.01 60.33,-0.02 163.08,-0.32 265.82,-0.48 101.22,-0.16 202.44,-0.17 261.23,0.38z"/>
    </g>
    <path class="fil44" d="M676.86 1794.26c-87.59,-122.48 -488.99,-120.95 -548.38,0.1 123.43,-0.04 424.99,-1.25 548.38,-0.1z"/>
   </g>
   <path class="fil1" d="M147.31 246.52c-28.81,-37.51 -35.32,-67.64 -49.51,-120.49 -3.31,-33.37 -4.46,-99.34 10.37,-126.03 29.59,0.28 86.29,40.32 102.63,54.1 59.43,50.14 99.58,125.18 102.19,209.59 1.1,35.63 -0.67,50.88 -18.72,79.04 -20.13,16.77 -107.63,-32.7 -146.96,-96.22zm223.63 59.64c17.99,-21.06 44.71,-38.03 84.91,-41.38 -2.03,46.22 -10.98,66.12 -34.86,91.32 -18.58,19.63 -37.51,26.89 -52.49,31.05 -5.57,1.54 -26.32,-12.01 -21.4,-31.44 3.99,-15.77 7.17,-30.04 23.84,-49.55zm-53.11 149.55c-6.15,-17.06 -8.25,-31.83 -16.34,-45.33 -33.79,-56.37 -90.62,-82.76 -169.67,-82.54 -14.35,1.03 -39.4,4.62 -51.32,12.52 6.65,39.79 59.92,91.96 107.07,107.54 34.7,25.39 118.29,2.11 130.26,7.81z"/>
   <path class="fil2" d="M229.11 180.42c-12.82,-23.53 -105.78,-176.44 -121.78,-180.27 0.12,9.25 97.75,163.04 110.49,186.42 8.95,16.42 60.97,144.06 69.19,141.72 8.41,-4.82 -49.89,-133.17 -57.9,-147.87zm-54.24 48.39c8.3,12.95 59.5,85.03 77.62,72.74 7.01,0.41 -65.44,-64.15 -77.62,-72.74zm238.2 126.43c-5.52,-0.57 -27.04,6.11 -31.78,6.38 10.98,14.88 18.92,3.39 31.78,-6.38zm30.36 -51.26c-18.73,13.34 -12.32,11.35 -39.5,22.13 16.81,-20.28 26.4,-37.2 47.4,-55.21 -27.35,11.25 -47.92,35.64 -65.41,56.83 -16.19,19.61 -29.01,45.05 -28.88,47.79 22.25,-11.16 23.84,-21.5 38.8,-39.64l5.77 -6.98c9.52,11.38 34.96,-13.33 41.81,-24.92zm-68.84 37.63c-0.97,-15.85 3.56,-12.3 -3.25,-29.82 -9.79,11.94 -14.52,23.91 -4.77,37.08l8.02 -7.27zm27.28 -56.23c-7.94,2.07 -14.51,19.7 -7.5,25.35 3.98,-7.5 3.84,-12.3 7.5,-25.35zm-228.46 51.2c-5.41,13.7 -0.01,24.32 17.88,31.61 -16.58,-18.64 -9.59,-17.42 -17.88,-31.61zm53.86 18.1c-3.98,7.64 -10.02,23.97 13.01,38.01 0.08,-11.4 -10.92,-7.76 -13.01,-38.01zm-31.06 54.27c-12.83,6.87 -14.25,15 -14.56,27.64 18.49,-9.25 20.89,-25.56 45.63,-25.26 -8.55,-8.73 -19.76,-8.44 -31.08,-2.38zm-28.03 -36.36c9.91,4.18 20.01,8.68 30.03,13.39 19.61,9.21 101.19,62.06 110.32,62.07 -11.86,-26.41 -83.23,-63.54 -104.88,-73.71 -42.76,-20.08 -66.51,-33.88 -119.09,-32.75 35.77,10.47 38.94,12.65 76.29,27.95 -17.56,-4.53 -34.96,2.43 -43.95,17.37 11.02,-4.73 22.59,-13.97 51.27,-14.32zm100.57 -225.63c-12.99,11.29 -23.01,53.2 -19.66,70.46 11.64,-24.64 18.45,-50.15 19.66,-70.46zm-47.12 -78.6c-19.07,15.4 -28.71,47.11 -13.38,68.19 -2.86,-41.63 14.63,-56.85 13.38,-68.19zm-36.7 117.31c-11.55,-6.57 -60.42,-15.11 -65.92,0.91 20.29,6.95 46.43,2.8 59.57,10.27 19.03,10.82 19.47,14.06 40.37,12.74 -13.13,-9.93 -20.37,-16.16 -34.02,-23.92zm-85.67 -69.22c5.76,1.54 74.35,16.05 74.88,14.46 -34.02,-15.72 -50.06,-28.88 -74.88,-14.46z"/>
  </g>
 </g>
</svg>
