<?xml version="1.0" encoding="UTF-8"?>
<!DOCTYPE svg PUBLIC "-//W3C//DTD SVG 1.1//EN" "http://www.w3.org/Graphics/SVG/1.1/DTD/svg11.dtd">
<!-- Creator: CorelDRAW 2019 (64-Bit) -->
<svg xmlns="http://www.w3.org/2000/svg" xml:space="preserve" width="44.9305mm" height="90.2752mm" version="1.1" style="shape-rendering:geometricPrecision; text-rendering:geometricPrecision; image-rendering:optimizeQuality; fill-rule:evenodd; clip-rule:evenodd"
viewBox="0 0 662.59 1331.29"
 xmlns:xlink="http://www.w3.org/1999/xlink">
 <defs>
  <style type="text/css">
   <![CDATA[
    .fil0 {fill:#256930}
    .fil1 {fill:#3D8E41}
    .fil44 {fill:#4F0D0F}
    .fil43 {fill:#500E0F}
    .fil42 {fill:#510F10}
    .fil41 {fill:#520F10}
    .fil40 {fill:#531010}
    .fil39 {fill:#541110}
    .fil38 {fill:#551211}
    .fil37 {fill:#561211}
    .fil36 {fill:#571311}
    .fil35 {fill:#581412}
    .fil34 {fill:#591512}
    .fil33 {fill:#5A1612}
    .fil32 {fill:#5B1713}
    .fil31 {fill:#5C1813}
    .fil30 {fill:#5D1813}
    .fil29 {fill:#5E1914}
    .fil28 {fill:#5F1A14}
    .fil27 {fill:#601B14}
    .fil26 {fill:#611B14}
    .fil25 {fill:#621C15}
    .fil3 {fill:#631D15}
    .fil24 {fill:#641E15}
    .fil23 {fill:#661F16}
    .fil22 {fill:#672016}
    .fil21 {fill:#692117}
    .fil20 {fill:#6A2217}
    .fil19 {fill:#6C2318}
    .fil18 {fill:#6D2418}
    .fil17 {fill:#6E2519}
    .fil16 {fill:#702619}
    .fil15 {fill:#71271A}
    .fil14 {fill:#73291A}
    .fil13 {fill:#742A1B}
    .fil12 {fill:#762B1B}
    .fil11 {fill:#772C1C}
    .fil10 {fill:#782D1C}
    .fil9 {fill:#7A2E1D}
    .fil8 {fill:#7B2F1D}
    .fil7 {fill:#7D301E}
    .fil6 {fill:#7E311E}
    .fil5 {fill:#80321F}
    .fil4 {fill:#81331F}
    .fil2 {fill:#256930;fill-rule:nonzero}
   ]]>
  </style>
 </defs>
 <g id="Слой_x0020_1">
  <metadata id="CorelCorpID_0Corel-Layer"/>
  <g id="_2988495510528">
   <path class="fil0" d="M225.86 641.47c-6.1,2 -27.33,37.78 -47.97,40.46 -21.73,10.27 -57.82,9.76 -73.44,-1.97 1.54,-6.75 9.13,-16.37 13.81,-21.52 32.22,-30.84 56.13,-30.82 86.73,-27.41 -3.74,-2.54 -23.83,-12.7 -26.68,-12.97 -5.63,-0.53 -41.91,17.11 -81.76,6.7 -22.62,-3.53 -34.96,-11.92 -57.58,-25.72 -12.3,-10.59 -34.72,-33.34 -38.43,-47.64 10.47,-9.78 43.71,-14.67 54.04,-15.29 37.57,-2.26 76.7,10.65 105.79,39.38 7.2,7.11 18.16,23.62 22.64,27.23 3.33,2.69 22.98,10.11 27.24,9.51 -5.91,-18.42 -14.18,-18.85 -15.39,-41.2 -0.72,-13.39 2.98,-28.26 15.96,-42.85 14.71,16.88 18.22,26.85 18.26,43.66 0.06,24.66 -15.29,34.16 -13,41.6 3.27,5.67 24.28,13.58 31.2,16.95 10.96,5.34 22.56,11.78 33.08,17.85 7.34,4.23 14.9,8.7 22.48,13.37 1.29,-47.77 -4.15,-102.66 -21.86,-164.35 -8.25,-28.72 -16.79,-52.37 -23.19,-57.33 -8.27,-3.94 -65.46,12.16 -89.45,-5.39 -32.59,-10.77 -69.42,-46.83 -74.01,-74.34 8.24,-5.46 25.56,-7.94 35.47,-8.66 63.69,-0.18 88.39,23.39 116.69,57.04 -1.37,-6.31 -12.14,-36.59 -14.82,-39.68 -5.3,-6.1 -60.19,-23.57 -91.16,-73.58 -19.92,-25.93 -24.42,-46.75 -34.22,-83.29 -2.29,-23.07 -3.08,-68.67 7.17,-87.12 20.46,0.19 59.65,27.87 70.94,37.4 41.08,34.66 68.84,86.53 70.64,144.88 0.45,14.44 -4.47,42.31 -3.4,50.45 0.8,6.07 13.81,33.08 18.81,36.66 12.02,-24.86 3.89,-33.46 24.65,-57.76 12.43,-14.56 30.91,-26.29 58.69,-28.6 -1.4,31.95 -7.59,45.71 -24.1,63.13 -24.22,25.57 -49.45,20.28 -54.41,30.23 -0.88,3.64 13.09,30.68 22.84,61.59 18.18,57.65 35.84,92.48 51.39,111.32 -15.89,-100.22 30.18,-164.05 24.91,-221.34 -1.03,-11.2 -16.03,-46.95 -19.79,-66.37 -15.23,-78.49 6.16,-156.17 50.56,-214.89 12.2,-16.13 56.19,-64.96 83.46,-71.4 19.27,21.54 31.99,82.7 35.91,114.21 -2.05,51.77 -1.77,80.95 -20.54,121.61 -26.25,76.17 -94.29,116.1 -99.52,125.84 -17.59,32.74 -26.63,154.36 -20.75,229.8 0.51,-0.17 1.02,-0.36 1.52,-0.58 16.08,-7.04 68.59,-128.47 70.56,-143.51 1.07,-8.14 -3.84,-36.01 -3.4,-50.45 1.8,-58.35 29.56,-110.23 70.64,-144.88 11.29,-9.52 50.48,-37.2 70.94,-37.4 10.25,18.45 9.45,64.05 7.17,87.12 -9.8,36.54 -14.31,57.36 -34.22,83.29 -30.97,50.01 -85.86,67.48 -91.16,73.58 -2.68,3.08 -13.45,33.37 -14.82,39.68 28.3,-33.65 53,-57.22 116.69,-57.04 9.92,0.71 27.24,3.19 35.47,8.66 -4.6,27.5 -41.42,63.57 -74.01,74.34 -23.99,17.55 -81.17,1.45 -89.45,5.39 -16.19,12.55 -46.14,144.81 -50.25,176.24 -4.49,34.31 -8.58,70.6 -7.01,105.93 0.56,12.61 5.22,78.72 8.55,91.36l4.85 9.09c8.06,-32.17 27,-58.91 45.01,-76.43 20.09,-19.55 13.36,-7.77 22.3,-38.97 22.09,-77.05 103.36,-132.16 174.51,-121.16 1.58,52.98 -40.18,110.26 -89.07,136.57 -13.03,7.01 -25.15,12.29 -41.1,16.01 -36.57,8.53 -43.93,-19.48 -86.15,83.23 -18.39,44.73 -20.26,50.85 -8.54,88.43 22.76,72.99 49.14,133.05 89.84,195.91 6.69,10.33 17.93,24.56 21.93,34.52l-56.32 -8.91c-38.45,-7.93 -131.35,1.79 -149.52,-2.3 -18.59,-88.89 -29.29,-193.08 -33.94,-294.82 -1.34,-29.42 5.13,-211.45 4.86,-212.29 -8.8,-27.42 -41.93,-42.56 -73.8,-70.78z"/>
   <path class="fil1" d="M567.56 385.26c19.92,-25.93 24.42,-46.75 34.22,-83.29 2.29,-23.06 3.08,-68.67 -7.17,-87.12 -20.46,0.19 -59.65,27.87 -70.94,37.4 -41.08,34.66 -68.84,86.53 -70.64,144.88 -0.76,24.63 0.46,35.17 12.94,54.64 13.92,11.59 74.4,-22.61 101.59,-66.51zm-117.87 144.6c4.25,-11.79 5.7,-22 11.3,-31.33 23.36,-38.96 62.64,-57.21 117.28,-57.05 9.92,0.71 27.24,3.19 35.47,8.66 -4.6,27.5 -41.42,63.57 -74.01,74.34 -23.99,17.55 -81.77,1.46 -90.04,5.4zm19.02 285.91l9.63 18.35c11.24,-5.9 22.09,-1.51 39.74,-5.62 15.95,-3.72 28.07,-9 41.1,-16.01 48.9,-26.31 90.65,-83.59 89.07,-136.57 -68.37,-10.57 -125.74,28.03 -158.1,82.41 -10.57,17.76 -17,38.77 -21.44,57.46z"/>
   <path class="fil2" d="M511.01 339.57c8.87,-16.26 73.12,-121.97 84.18,-124.62 -0.08,6.39 -67.57,112.7 -76.38,128.87 -6.19,11.35 -42.15,99.58 -47.82,97.96 -5.81,-3.33 34.48,-92.05 40.02,-102.21zm11 449.24c13.25,-1.85 36.18,-8.88 40.41,16.72 -1.33,-0.12 -6.2,-9.4 -15.04,-12.72 -10.49,-3.94 -25.11,-2.13 -25.37,-4zm12.92 -77.6c3.68,5.4 10.12,31.87 -0.96,44.79 -0.79,0.92 1.25,-2.07 1.72,-14.81 0.25,-6.89 -1.92,-17.2 -0.76,-29.97zm78.11 54.08c-15.92,4.12 -24.08,-16 -53.12,-5.08 11.19,-20.79 48.14,-13.85 53.12,5.08zm-28.96 -77.2c8.53,9.27 10.02,12.87 1.88,25.82 17.49,-13.72 36.57,-30.99 58.97,-34.84 -9.95,14.92 -64.45,50.07 -84.28,67.53 -35.46,31.23 -64.3,61.8 -65.76,67.66l-8.63 -2.16c1.78,-7.13 31.87,-39.92 68.51,-72.19 7.64,-6.73 15.58,-13.46 23.62,-19.97 -4.71,-4.78 9.61,-14.79 5.69,-31.86zm21.64 27.44c1.74,-2.41 4.39,-4.19 7.57,-5.44 6.65,-2.63 11.95,-0.68 24.88,1.87 -4.46,2.27 -6.86,2.79 -16.26,3.58 -9.4,0.79 -12.48,2.67 -16.19,-0.01zm-57.22 -342.5c-5.74,8.95 -41.13,58.78 -53.66,50.28 -4.84,0.28 45.24,-44.34 53.66,-50.28zm1.01 74.5c3.74,9.47 0.01,16.81 -12.36,21.86 11.46,-12.89 6.63,-12.04 12.36,-21.86zm-37.23 12.52c2.75,5.28 6.92,16.57 -8.99,26.28 -0.05,-7.88 7.55,-5.37 8.99,-26.28zm21.47 37.51c8.87,4.75 9.85,10.37 10.06,19.11 -12.78,-6.39 -14.44,-17.67 -31.54,-17.46 5.91,-6.04 13.66,-5.84 21.48,-1.65zm19.38 -25.13c-6.85,2.89 -13.84,6 -20.76,9.26 -13.56,6.36 -69.95,42.9 -76.26,42.9 8.19,-18.26 57.53,-43.92 72.5,-50.95 29.56,-13.88 45.97,-23.42 82.32,-22.64 -24.72,7.24 -26.91,8.74 -52.74,19.32 12.14,-3.13 24.17,1.68 30.38,12.01 -7.62,-3.26 -15.61,-9.66 -35.44,-9.9zm-69.52 -155.97c8.98,7.8 15.91,36.78 13.59,48.7 -8.04,-17.03 -12.75,-34.67 -13.59,-48.7zm32.57 -54.33c13.19,10.65 19.85,32.56 9.25,47.13 1.98,-28.78 -10.11,-39.3 -9.25,-47.13zm25.37 81.09c7.99,-4.54 41.76,-10.45 45.57,0.63 -14.02,4.81 -32.1,1.94 -41.18,7.1 -13.16,7.48 -13.46,9.72 -27.91,8.8 9.07,-6.86 14.08,-11.17 23.52,-16.53zm59.22 -47.85c-3.98,1.07 -51.39,11.09 -51.76,10 23.52,-10.87 34.61,-19.96 51.76,-10z"/>
   <g>
    <path class="fil1" d="M140.95 294.53c-19.92,-25.93 -24.42,-46.75 -34.22,-83.29 -2.29,-23.06 -3.08,-68.67 7.17,-87.12 20.46,0.19 59.65,27.87 70.94,37.4 41.08,34.66 68.84,86.53 70.64,144.88 0.76,24.63 -0.46,35.17 -12.94,54.64 -13.92,11.59 -74.4,-22.61 -101.59,-66.51zm154.58 41.23c12.43,-14.56 30.91,-26.29 58.69,-28.6 -1.4,31.95 -7.59,45.7 -24.1,63.13 -12.84,13.57 -25.93,18.59 -36.28,21.46 -3.85,1.07 -18.19,-8.3 -14.79,-21.73 2.76,-10.9 4.96,-20.76 16.48,-34.25zm-36.71 103.37c-4.25,-11.79 -5.7,-22 -11.3,-31.33 -23.36,-38.96 -62.64,-57.21 -117.28,-57.05 -9.92,0.71 -27.24,3.19 -35.47,8.66 4.6,27.5 41.42,63.57 74.01,74.34 23.98,17.55 81.77,1.46 90.04,5.4z"/>
    <path class="fil2" d="M197.5 248.84c-8.86,-16.26 -73.12,-121.97 -84.18,-124.62 0.08,6.39 67.57,112.7 76.38,128.86 6.19,11.35 42.15,99.58 47.82,97.96 5.81,-3.33 -34.48,-92.05 -40.02,-102.21zm-37.49 33.45c5.74,8.95 41.13,58.78 53.66,50.28 4.84,0.28 -45.24,-44.34 -53.66,-50.28zm164.66 87.4c-3.82,-0.39 -18.69,4.22 -21.97,4.41 7.59,10.28 13.08,2.34 21.97,-4.41zm20.99 -35.43c-12.95,9.22 -8.51,7.84 -27.3,15.29 11.62,-14.02 18.25,-25.71 32.76,-38.16 -18.91,7.77 -33.13,24.63 -45.21,39.28 -11.19,13.56 -20.05,31.14 -19.96,33.04 15.38,-7.71 16.48,-14.86 26.82,-27.4l3.99 -4.83c6.58,7.87 24.16,-9.22 28.9,-17.23zm-47.59 26.01c-0.67,-10.96 2.46,-8.5 -2.25,-20.61 -6.77,8.26 -10.04,16.53 -3.3,25.63l5.54 -5.02zm18.86 -38.87c-5.49,1.43 -10.03,13.61 -5.19,17.53 2.75,-5.18 2.65,-8.5 5.19,-17.53zm-157.92 35.39c-3.74,9.47 -0.01,16.81 12.36,21.85 -11.46,-12.89 -6.63,-12.04 -12.36,-21.85zm37.23 12.51c-2.75,5.28 -6.92,16.57 8.99,26.28 0.05,-7.88 -7.55,-5.36 -8.99,-26.28zm-21.47 37.51c-8.87,4.75 -9.85,10.37 -10.06,19.11 12.78,-6.39 14.44,-17.67 31.54,-17.46 -5.91,-6.03 -13.66,-5.83 -21.48,-1.65zm-19.38 -25.13c6.85,2.89 13.83,6 20.76,9.26 13.56,6.36 69.95,42.9 76.26,42.9 -8.2,-18.26 -57.53,-43.92 -72.5,-50.95 -29.56,-13.88 -45.97,-23.42 -82.32,-22.64 24.72,7.24 26.91,8.74 52.74,19.32 -12.14,-3.13 -24.17,1.68 -30.38,12.01 7.62,-3.27 15.61,-9.66 35.44,-9.9zm69.52 -155.97c-8.98,7.8 -15.91,36.78 -13.59,48.7 8.04,-17.03 12.75,-34.67 13.59,-48.7zm-32.57 -54.33c-13.18,10.64 -19.85,32.56 -9.25,47.13 -1.97,-28.78 10.12,-39.3 9.25,-47.13zm-25.37 81.09c-7.99,-4.54 -41.76,-10.45 -45.57,0.63 14.02,4.81 32.1,1.94 41.18,7.1 13.16,7.48 13.46,9.72 27.91,8.81 -9.07,-6.86 -14.08,-11.17 -23.52,-16.53zm-59.22 -47.85c3.98,1.07 51.4,11.09 51.76,10 -23.52,-10.87 -34.61,-19.96 -51.76,-10z"/>
   </g>
   <path class="fil1" d="M96.25 625.04c-22.62,-3.53 -34.96,-11.92 -57.58,-25.72 -12.3,-10.59 -34.72,-33.34 -38.43,-47.64 10.47,-9.78 43.71,-14.67 54.04,-15.29 37.57,-2.26 76.7,10.65 105.79,39.38 12.28,12.12 16.75,18.06 19.82,33.96 -1.46,12.6 -48.65,24.46 -83.64,15.32zm98.31 -53.74c-0.72,-13.39 2.98,-28.26 15.96,-42.85 14.71,16.88 18.22,26.85 18.26,43.66 0.04,13.09 -4.17,21.95 -8.04,28.41 -1.44,2.4 -13.24,4.57 -18,-3.88 -3.86,-6.86 -7.51,-12.92 -8.18,-25.33zm31.29 70.16c-7.85,-3.93 -13.52,-8.41 -20.86,-10.44 -30.66,-8.48 -59.4,1.23 -87.04,27.69 -4.68,5.15 -12.27,14.77 -13.81,21.52 15.61,11.73 51.71,12.24 73.44,1.97 20.64,-2.68 42.18,-38.74 48.27,-40.74z"/>
   <path class="fil2" d="M102.87 574.56c-12.35,-3.97 -95.98,-26.56 -102.87,-22.56 3.13,3.2 88.69,24.54 100.96,28.48 8.62,2.77 69.46,30.15 71.56,26.59 1.34,-4.49 -61.94,-30.04 -69.66,-32.52zm-2.87 35.07c7.23,1.77 49.24,9.95 51.5,-0.41 2.59,-2.19 -44.36,-0.65 -51.5,0.41zm125.72 -35.18c-2.13,1.64 -7.44,11.17 -9.01,12.84 8.82,1.55 7.77,-5.13 9.01,-12.84zm-6.47 -28.11c-2.11,10.93 -0.53,8.09 -6.46,20.94 -0.87,-12.72 -3.16,-21.85 -1.81,-35.17 -5.84,13.07 -4.91,28.49 -3.96,41.75 0.87,12.28 4.87,25.48 5.83,26.4 4.08,-11.34 1.18,-15.5 0.37,-26.85l-0.31 -4.37c7.14,0.81 7.81,-16.34 6.34,-22.69zm-11.58 36.17c-5.63,-5.23 -2.86,-5.5 -11.09,-9.37 0.55,7.46 2.89,13.23 10.71,14.6l0.38 -5.23zm-9.21 -28.82c-2.09,3.37 1.49,11.75 5.83,11.39 -1.11,-3.96 -2.76,-5.59 -5.83,-11.39zm-63.01 94.21c2.67,6.61 8.11,8.53 16.82,5.12 -12.04,-1 -9.18,-2.9 -16.82,-5.12zm24.92 -11.63c1.15,4.01 4.49,11.75 17.25,8.99 -3.78,-4.02 -6.42,0.92 -17.25,-8.99zm7.23 29.39c-2.21,6.69 0.01,10.02 4.12,14.55 3.39,-9.41 -1.21,-15.93 7.57,-24.09 -5.91,-0.21 -9.75,3.64 -11.69,9.54zm-21.97 -3.39c4.87,-1.84 9.92,-3.64 15,-5.33 9.95,-3.32 56.19,-12.02 59.4,-15.06 -12.97,-5.3 -50.39,5.51 -61.38,9.17 -21.69,7.23 -34.63,10.32 -52.69,28.27 16.04,-8.27 17.87,-8.56 36.08,-15.67 -7.67,4.27 -11.45,12.52 -9.61,20.76 2.29,-5.33 3.26,-12.44 13.2,-22.14zm-40.05 -112.68c-0.79,8.3 9.69,26.34 16.62,31.27 -4.14,-12.52 -10.27,-23.74 -16.62,-31.27zm-42.76 -11.83c-1.55,11.77 5.66,26.1 18.07,28.37 -14.9,-13.64 -13.85,-24.82 -18.07,-28.37zm26.29 53.38c-6.24,1.55 -26.23,14.87 -22.81,22.32 9.43,-4.33 17.22,-14.52 24.31,-16.28 10.28,-2.56 11.52,-1.57 18.4,-9.01 -7.91,0.9 -12.54,1.13 -19.91,2.97zm-53.14 4.33c2.53,-1.38 31.42,-19.19 31.08,-19.92 -17.17,5.84 -27.19,6.59 -31.08,19.92z"/>
   <path class="fil1" d="M504.82 235.85c18.77,-40.66 18.48,-69.84 20.54,-121.61 -3.92,-31.5 -16.64,-92.66 -35.91,-114.2 -27.27,6.44 -71.26,55.26 -83.46,71.4 -44.4,58.72 -65.79,136.4 -50.56,214.89 6.43,33.13 11.25,46.84 33.8,69.08 22.09,11.28 92.55,-52.69 115.59,-119.56z"/>
   <path class="fil2" d="M415.47 191.91c6.93,-24.4 60.8,-185.02 74.78,-191.91 1.83,8.56 -56.19,170.97 -63.07,195.23 -4.84,17.03 -26.2,145.76 -34.27,145.32 -8.77,-2.69 18.24,-133.39 22.57,-148.64zm60.2 33.35c-4.96,13.69 -37.17,90.95 -56.48,83.39 -6.38,1.84 47.02,-72.91 56.48,-83.39zm-103.78 -55.96c14.35,7.71 32.37,44.32 32.87,60.95 -15.89,-20.32 -27.51,-42.46 -32.87,-60.95zm27.08 -82.42c20.83,10.23 36.35,37.5 26.6,60.16 -6.06,-39.03 -25.39,-49.44 -26.6,-60.16zm58.41 100.65c9.3,-8.48 52.63,-26.58 61.06,-12.94 -17.28,10.66 -42.29,12.29 -52.86,21.93 -15.31,13.97 -15.04,17.05 -34.62,20.2 10.05,-11.91 15.44,-19.18 26.42,-29.19zm64.64 -81.82c-4.99,2.62 -65.3,30.35 -66.12,29 28.13,-21.62 40.19,-37.13 66.12,-29z"/>
   <g>
    <path class="fil3" d="M593.13 1331.07l-394.2 0.01 -22.68 0.21c61.11,-118.43 370.08,-137.87 486.35,-0.19l-67.88 -0.02 -1.59 -0.01z"/>
    <path class="fil4" d="M570.96 1331.06l-364.79 -0.05 -29.92 0.28c18.33,-35.53 44.11,-64.47 69.44,-84.87 40.02,-32.24 62.72,-32.43 99.02,-52.62l39.44 -6.24c26.93,-5.55 55.54,0.54 68.26,-2.32 14.88,14.95 175.19,31.57 210.19,145.87l-89.54 -0.03 -2.09 -0.01z"/>
    <g>
     <path class="fil5" d="M572.01 1331.06c-118.94,-0.01 -237.87,-0.03 -356.81,-0.05 -12.63,0.09 -25.25,0.18 -37.88,0.27 17.1,-33.83 41.29,-61.4 65.05,-80.82 38.84,-32.11 61.93,-33.42 98.38,-53.42 14.4,-2.76 29.2,-5.18 44.09,-7.22 28.01,-5.35 57.71,0.78 72.03,-1.2 16.37,14.98 171.01,31.98 205.72,142.48 -29.5,-0.01 -59.01,-0.02 -88.51,-0.03 -0.69,-0.01 -1.38,-0.01 -2.07,-0.01z"/>
     <path class="fil6" d="M573.07 1331.06c-116.27,-0.01 -232.55,-0.03 -348.82,-0.04 -15.28,0.08 -30.56,0.17 -45.84,0.25 15.87,-32.14 38.47,-58.32 60.66,-76.77 37.66,-31.98 61.13,-34.39 97.73,-54.22 15.64,-3.44 32.11,-6.2 48.74,-8.19 29.09,-5.14 59.88,1.02 75.8,-0.08 17.87,15.02 166.83,32.4 201.26,139.09 -29.16,-0.01 -58.32,-0.02 -87.48,-0.03 -0.68,-0 -1.36,-0.01 -2.04,-0.01z"/>
     <path class="fil7" d="M574.12 1331.06c-113.61,-0.01 -227.22,-0.03 -340.84,-0.04 -17.93,0.08 -35.87,0.16 -53.8,0.24 14.63,-30.44 35.65,-55.24 56.28,-72.72 36.48,-31.86 60.34,-35.38 97.08,-55.01 16.89,-4.12 35.02,-7.22 53.39,-9.17 30.18,-4.93 62.05,1.26 79.57,1.04 19.36,15.05 162.65,32.82 196.79,135.7 -28.81,-0.01 -57.63,-0.02 -86.45,-0.03 -0.67,-0.01 -1.35,-0.01 -2.02,-0.01z"/>
     <path class="fil8" d="M575.18 1331.06c-110.95,-0.01 -221.9,-0.03 -332.85,-0.04 -20.59,0.08 -41.18,0.15 -61.76,0.23 13.4,-28.75 32.83,-52.17 51.89,-68.67 35.31,-31.73 59.55,-36.36 96.43,-55.81 18.14,-4.79 37.92,-8.24 58.03,-10.15 31.27,-4.73 64.23,1.5 83.34,2.17 20.86,15.09 158.46,33.23 192.33,132.32 -28.47,-0.01 -56.94,-0.02 -85.41,-0.03 -0.67,-0.01 -1.33,-0.01 -2,-0.01z"/>
     <path class="fil9" d="M576.24 1331.06c-108.29,-0.01 -216.58,-0.03 -324.87,-0.04 -23.24,0.07 -46.48,0.14 -69.72,0.21 12.17,-27.05 30.01,-49.09 47.5,-64.61 34.13,-31.61 58.75,-37.34 95.79,-56.61 19.39,-5.47 40.83,-9.25 62.68,-11.13 32.35,-4.52 66.4,1.73 87.11,3.29 22.35,15.12 154.28,33.65 187.87,128.93 -28.13,-0.01 -56.25,-0.02 -84.38,-0.03 -0.66,-0.01 -1.31,-0.01 -1.97,-0.01z"/>
     <path class="fil10" d="M577.29 1331.06c-105.63,-0.01 -211.26,-0.02 -316.88,-0.03 -25.89,0.07 -51.79,0.13 -77.69,0.2 10.93,-25.36 27.19,-46.01 43.12,-60.56 32.95,-31.48 57.96,-38.32 95.14,-57.4 20.64,-6.15 43.74,-10.27 67.33,-12.11 33.43,-4.32 68.57,1.97 90.88,4.41 23.85,15.16 150.1,34.06 183.4,125.54 -27.78,-0.01 -55.57,-0.02 -83.35,-0.03 -0.65,-0 -1.3,-0.01 -1.95,-0.01z"/>
     <path class="fil11" d="M578.35 1331.06c-102.97,-0.01 -205.93,-0.02 -308.9,-0.03 -28.55,0.06 -57.1,0.13 -85.65,0.19 9.7,-23.66 24.37,-42.94 38.73,-56.51 31.77,-31.36 57.16,-39.3 94.49,-58.2 21.89,-6.83 46.65,-11.29 71.98,-13.09 34.52,-4.11 70.74,2.21 94.64,5.53 25.34,15.19 145.92,34.48 178.94,122.15 -27.44,-0.01 -54.88,-0.02 -82.32,-0.03 -0.64,-0.01 -1.28,-0.01 -1.92,-0.01z"/>
     <path class="fil12" d="M579.4 1331.06c-100.3,-0.01 -200.61,-0.02 -300.91,-0.03 -31.2,0.06 -62.4,0.12 -93.61,0.18 8.47,-21.97 21.55,-39.86 34.34,-52.46 30.59,-31.24 56.37,-40.28 93.84,-59 23.14,-7.51 49.56,-12.31 76.63,-14.07 35.61,-3.9 72.91,2.45 98.41,6.66 26.84,15.23 141.74,34.89 174.47,118.76 -27.09,-0.01 -54.19,-0.02 -81.29,-0.03 -0.63,-0.01 -1.27,-0.01 -1.9,-0.01z"/>
     <path class="fil13" d="M580.46 1331.06c-97.64,-0.01 -195.28,-0.02 -292.93,-0.03 -33.85,0.05 -67.71,0.11 -101.57,0.16 7.24,-20.27 18.73,-36.78 29.96,-48.41 29.41,-31.11 55.58,-41.26 93.2,-59.79 24.39,-8.19 52.46,-13.33 81.28,-15.04 36.69,-3.7 75.08,2.69 102.18,7.78 28.33,15.26 137.56,35.31 170.01,115.37 -26.75,-0.01 -53.5,-0.02 -80.26,-0.03 -0.63,-0 -1.25,-0.01 -1.87,-0.01z"/>
     <path class="fil14" d="M581.52 1331.06c-94.98,-0.01 -189.96,-0.02 -284.94,-0.03 -36.51,0.05 -73.02,0.1 -109.53,0.15 6,-18.58 15.91,-33.71 25.57,-44.36 28.24,-30.98 54.78,-42.24 92.55,-60.59 25.64,-8.86 55.37,-14.35 85.93,-16.02 37.77,-3.49 77.25,2.93 105.95,8.9 29.83,15.3 133.37,35.72 165.55,111.99 -26.41,-0.01 -52.81,-0.02 -79.22,-0.03 -0.62,-0 -1.23,-0.01 -1.85,-0.01z"/>
     <path class="fil15" d="M582.57 1331.06c-92.32,-0.01 -184.64,-0.01 -276.95,-0.02 -39.16,0.04 -78.33,0.09 -117.49,0.13 4.77,-16.88 13.09,-30.63 21.18,-40.31 27.06,-30.86 53.99,-43.22 91.9,-61.39 26.89,-9.54 58.28,-15.37 90.58,-17 38.86,-3.29 79.42,3.17 109.72,10.02 31.32,15.34 129.2,36.14 161.08,108.6 -26.06,-0.01 -52.13,-0.02 -78.19,-0.03 -0.61,-0.01 -1.22,-0.01 -1.83,-0.01z"/>
     <path class="fil16" d="M583.63 1331.06c-89.66,-0.01 -179.31,-0.01 -268.97,-0.02 -41.82,0.04 -83.63,0.08 -125.45,0.12 3.54,-15.19 10.27,-27.55 16.8,-36.25 25.88,-30.73 53.19,-44.2 91.25,-62.19 28.14,-10.22 61.19,-16.39 95.23,-17.98 39.94,-3.08 81.6,3.4 113.49,11.14 32.82,15.37 125.01,36.55 156.62,105.21 -25.72,-0.01 -51.44,-0.02 -77.16,-0.03 -0.6,-0.01 -1.2,-0.01 -1.8,-0.01z"/>
     <path class="fil17" d="M584.68 1331.07c-86.99,-0.01 -173.99,-0.01 -260.98,-0.02 -44.47,0.04 -88.94,0.07 -133.41,0.11 2.3,-13.49 7.45,-24.47 12.41,-32.2 24.7,-30.61 52.4,-45.18 90.61,-62.98 29.38,-10.9 64.1,-17.4 99.88,-18.95 41.03,-2.88 83.77,3.64 117.26,12.26 34.31,15.41 120.83,36.97 152.16,101.82 -25.38,-0.01 -50.75,-0.02 -76.13,-0.03 -0.59,-0 -1.18,-0.01 -1.78,-0.01z"/>
     <path class="fil18" d="M585.74 1331.07c-84.33,-0 -168.67,-0.01 -253,-0.01 -47.12,0.03 -94.25,0.06 -141.37,0.1 1.07,-11.8 4.62,-21.4 8.03,-28.15 23.52,-30.48 51.61,-46.17 89.96,-63.78 30.63,-11.58 67,-18.42 104.52,-19.93 42.11,-2.67 85.94,3.88 121.03,13.39 35.81,15.44 116.65,37.38 147.69,98.43 -25.03,-0.01 -50.06,-0.02 -75.1,-0.03 -0.58,-0 -1.17,-0.01 -1.75,-0.01z"/>
     <path class="fil19" d="M586.79 1331.07c-81.67,-0 -163.34,-0.01 -245.01,-0.01 -49.78,0.03 -99.56,0.05 -149.34,0.08 -0.16,-10.1 1.81,-18.32 3.64,-24.1 22.35,-30.36 50.81,-47.15 89.31,-64.58 31.88,-12.25 69.91,-19.44 109.17,-20.91 43.2,-2.46 88.11,4.12 124.79,14.51 37.3,15.48 112.47,37.8 143.23,95.04 -24.69,-0.01 -49.38,-0.02 -74.07,-0.02 -0.58,-0.01 -1.15,-0.01 -1.73,-0.01z"/>
     <path class="fil20" d="M587.85 1331.07c-79.01,-0 -158.02,-0.01 -237.03,-0.01 -52.43,0.02 -104.86,0.05 -157.3,0.07 -1.39,-8.41 -1.01,-15.24 -0.75,-20.05 21.17,-30.23 50.02,-48.13 88.66,-65.37 33.13,-12.93 72.82,-20.46 113.82,-21.89 44.28,-2.26 90.28,4.36 128.56,15.63 38.8,15.51 108.29,38.22 138.76,91.66 -24.34,-0.01 -48.69,-0.02 -73.03,-0.02 -0.57,-0 -1.14,-0.01 -1.71,-0.01z"/>
     <path class="fil21" d="M588.91 1331.07c-76.35,-0 -152.69,-0 -229.04,-0.01 -55.09,0.02 -110.17,0.04 -165.26,0.06 -2.63,-6.71 -3.84,-12.17 -5.13,-15.99 19.99,-30.11 49.22,-49.11 88.01,-66.17 34.38,-13.61 75.73,-21.48 118.47,-22.87 45.37,-2.05 92.45,4.6 132.33,16.75 40.29,15.55 104.11,38.63 134.3,88.27 -24,-0.01 -48,-0.02 -72,-0.02 -0.56,-0 -1.12,-0.01 -1.68,-0.01z"/>
     <path class="fil22" d="M589.96 1331.07c-73.69,-0 -147.37,-0 -221.06,-0 -57.74,0.01 -115.48,0.03 -173.22,0.04 -3.86,-5.02 -6.66,-9.09 -9.52,-11.94 18.81,-29.98 48.43,-50.09 87.37,-66.97 35.63,-14.29 78.64,-22.5 123.12,-23.85 46.45,-1.84 94.62,4.84 136.1,17.87 41.79,15.58 99.92,39.04 129.84,84.88 -23.66,-0.01 -47.31,-0.02 -70.97,-0.02 -0.55,-0 -1.1,-0.01 -1.66,-0.01z"/>
     <path class="fil23" d="M591.02 1331.07c-71.02,-0 -142.05,-0 -213.07,-0 -60.39,0.01 -120.79,0.02 -181.18,0.03 -5.09,-3.32 -9.48,-6.01 -13.91,-7.89 17.63,-29.86 47.64,-51.07 86.72,-67.76 36.88,-14.97 81.54,-23.52 127.77,-24.83 47.54,-1.64 96.8,5.07 139.87,19 43.28,15.62 95.74,39.46 125.37,81.49 -23.31,-0.01 -46.63,-0.01 -69.94,-0.02 -0.54,-0.01 -1.09,-0.01 -1.63,-0.01z"/>
     <path class="fil24" d="M592.07 1331.07c-68.36,-0 -136.73,0 -205.09,0 -63.05,0.01 -126.09,0.01 -189.14,0.02 -6.33,-1.63 -12.3,-2.94 -18.29,-3.84 16.46,-29.73 46.84,-52.05 86.07,-68.56 38.13,-15.65 84.45,-24.54 132.42,-25.8 48.62,-1.43 98.97,5.31 143.64,20.12 44.77,15.65 91.56,39.88 120.91,78.1 -22.97,-0.01 -45.94,-0.01 -68.91,-0.02 -0.54,-0 -1.07,-0.01 -1.61,-0.01z"/>
    </g>
    <path class="fil3" d="M593.13 1331.07l-394.2 0.01 -22.68 0.21c61.11,-118.43 370.08,-137.87 486.35,-0.19l-67.88 -0.02 -1.59 -0.01z"/>
    <g>
     <path class="fil25" d="M575.83 1331.08c-124.42,-1.01 -248.2,-1.76 -371.67,-2.25 -5.53,-0.44 -10.74,-0.61 -15.99,-0.54 62.11,-112.79 360.16,-130.29 471.86,2.83 -23.58,-0.01 -48.62,-0.03 -73.67,-0.04 -4,-0.01 -8,-0.01 -10.53,0z"/>
     <path class="fil26" d="M558.53 1331.08c-117.45,-2.02 -233.6,-3.52 -349.14,-4.52 -3.49,-0.94 -6.36,-1.37 -9.3,-1.3 63.11,-107.14 350.24,-122.71 457.38,5.85 -24.53,-0.01 -52,-0.04 -79.46,-0.05 -7.47,-0.01 -14.94,-0.02 -19.49,0.02z"/>
     <path class="fil27" d="M541.24 1331.09c-110.47,-3.02 -219,-5.28 -326.6,-6.77 -1.46,-1.44 -1.99,-2.12 -2.6,-2.05 64.11,-101.49 340.31,-115.13 442.9,8.86 -25.49,-0.01 -55.37,-0.05 -85.26,-0.07 -10.94,-0.02 -21.89,-0.03 -28.43,0.03z"/>
     <path class="fil28" d="M523.94 1331.1c-103.49,-4.03 -204.4,-7.04 -304.07,-9.04 0.58,-1.94 2.39,-2.87 4.09,-2.8 65.1,-95.85 330.39,-107.55 428.42,11.88 -26.44,-0.01 -58.75,-0.06 -91.05,-0.08 -14.42,-0.03 -28.83,-0.03 -37.38,0.04z"/>
     <path class="fil29" d="M506.64 1331.11c-96.51,-5.04 -189.8,-8.8 -281.54,-11.3 2.61,-2.45 6.77,-3.63 10.78,-3.56 66.1,-90.2 320.47,-99.97 413.94,14.9 -27.4,-0.01 -62.12,-0.07 -96.85,-0.1 -17.89,-0.03 -35.77,-0.04 -46.33,0.06z"/>
     <path class="fil30" d="M489.34 1331.11c-89.53,-6.05 -175.19,-10.56 -259,-13.56 4.65,-2.95 11.15,-4.38 17.47,-4.31 67.1,-84.55 310.54,-92.39 399.45,17.91 -28.35,-0.01 -65.49,-0.08 -102.64,-0.12 -21.36,-0.04 -42.72,-0.04 -55.28,0.07z"/>
     <path class="fil31" d="M472.05 1331.12c-82.56,-7.05 -160.59,-12.32 -236.47,-15.82 6.68,-3.45 15.52,-5.14 24.16,-5.07 68.1,-78.91 300.62,-84.81 384.97,20.93 -29.3,-0.01 -68.87,-0.09 -108.43,-0.13 -24.83,-0.04 -49.66,-0.05 -64.23,0.08z"/>
     <path class="fil32" d="M454.75 1331.13c-75.58,-8.06 -145.99,-14.08 -213.94,-18.08 8.72,-3.96 19.9,-5.89 30.85,-5.82 69.09,-73.26 290.7,-77.23 370.49,23.95 -30.26,-0.01 -72.24,-0.1 -114.23,-0.14 -28.3,-0.05 -56.61,-0.05 -73.18,0.1z"/>
     <path class="fil33" d="M437.45 1331.13c-68.6,-9.07 -131.39,-15.84 -191.4,-20.34 10.75,-4.46 24.28,-6.64 37.55,-6.57 70.09,-67.61 280.77,-69.64 356.01,26.96 -31.21,-0.01 -75.62,-0.11 -120.02,-0.16 -31.78,-0.05 -63.55,-0.06 -82.13,0.11z"/>
     <path class="fil34" d="M420.15 1331.14c-61.62,-10.08 -116.79,-17.6 -168.87,-22.6 12.79,-4.96 28.66,-7.4 44.24,-7.33 71.09,-61.97 270.85,-62.06 341.53,29.98 -32.16,-0.01 -78.99,-0.12 -125.81,-0.18 -35.25,-0.06 -70.5,-0.06 -91.08,0.13z"/>
     <path class="fil34" d="M402.86 1331.15c-54.64,-11.09 -102.18,-19.37 -146.34,-24.86 14.82,-5.47 33.04,-8.15 50.93,-8.08 72.09,-56.32 260.93,-54.48 327.04,33 -33.12,-0.01 -82.36,-0.13 -131.61,-0.19 -38.72,-0.06 -77.44,-0.07 -100.03,0.14z"/>
     <path class="fil35" d="M385.56 1331.15c-47.66,-12.09 -87.58,-21.13 -123.8,-27.13 16.86,-5.97 37.41,-8.9 57.62,-8.83 73.09,-50.68 251,-46.9 312.56,36.01 -34.07,-0.01 -85.74,-0.14 -137.4,-0.21 -42.19,-0.07 -84.38,-0.07 -108.98,0.15z"/>
     <path class="fil36" d="M368.26 1331.16c-40.69,-13.1 -72.98,-22.89 -101.27,-29.39 18.89,-6.47 41.79,-9.66 64.31,-9.59 74.08,-45.03 241.08,-39.32 298.08,39.03 -35.03,-0.01 -89.11,-0.15 -143.19,-0.22 -45.67,-0.07 -91.33,-0.08 -117.93,0.17z"/>
     <path class="fil37" d="M350.96 1331.17c-33.71,-14.11 -58.38,-24.65 -78.73,-31.65 20.93,-6.98 46.17,-10.41 71,-10.34 75.08,-39.38 231.16,-31.74 283.6,42.05 -35.98,-0.01 -92.49,-0.16 -148.99,-0.24 -49.14,-0.08 -98.27,-0.09 -126.88,0.18z"/>
     <path class="fil38" d="M333.67 1331.17c-26.73,-15.12 -43.78,-26.41 -56.2,-33.91 22.96,-7.48 50.55,-11.17 77.69,-11.1 76.08,-33.74 221.23,-24.16 269.12,45.06 -36.94,-0.01 -95.86,-0.17 -154.78,-0.25 -52.61,-0.08 -105.22,-0.09 -135.83,0.19z"/>
     <path class="fil39" d="M316.37 1331.18c-19.75,-16.13 -29.18,-28.17 -33.67,-36.17 24.99,-7.98 54.92,-11.92 84.39,-11.85 77.08,-28.09 211.31,-16.58 254.63,48.08 -37.89,-0.01 -99.23,-0.18 -160.57,-0.27 -56.08,-0.09 -112.16,-0.1 -144.78,0.21z"/>
     <path class="fil40" d="M299.07 1331.19c-12.78,-17.13 -14.57,-29.93 -11.13,-38.43 27.03,-8.49 59.3,-12.68 91.08,-12.6 78.07,-22.44 201.39,-9 240.15,51.1 -38.84,-0.01 -102.61,-0.19 -166.37,-0.28 -59.55,-0.09 -119.1,-0.1 -153.73,0.22z"/>
     <path class="fil41" d="M281.77 1331.2c-5.8,-18.14 0.03,-31.69 11.4,-40.69 29.06,-8.99 63.68,-13.43 97.77,-13.36 79.07,-16.8 191.46,-1.42 225.67,54.11 -39.8,-0.01 -105.98,-0.2 -172.16,-0.3 -63.03,-0.1 -126.05,-0.11 -162.68,0.23z"/>
     <path class="fil42" d="M264.48 1331.2c1.18,-19.15 14.63,-33.45 33.93,-42.95 31.1,-9.49 68.06,-14.18 104.46,-14.11 80.07,-11.15 181.54,6.16 211.19,57.13 -40.75,-0.01 -109.35,-0.21 -177.96,-0.31 -66.5,-0.1 -132.99,-0.11 -171.63,0.25z"/>
     <path class="fil43" d="M247.18 1331.21c8.16,-20.16 29.23,-35.21 56.47,-45.21 33.14,-9.99 72.43,-14.93 111.15,-14.86 81.07,-5.51 171.62,13.74 196.71,60.15 -41.7,-0.01 -112.73,-0.22 -183.75,-0.33 -69.97,-0.11 -139.94,-0.12 -180.58,0.26z"/>
    </g>
    <path class="fil44" d="M229.88 1331.22c60.55,-84.66 338.01,-83.61 379.07,0.07 -85.32,-0.03 -293.78,-0.87 -379.07,-0.07z"/>
   </g>
  </g>
 </g>
</svg>
