<?xml version="1.0" encoding="UTF-8"?>
<!DOCTYPE svg PUBLIC "-//W3C//DTD SVG 1.1//EN" "http://www.w3.org/Graphics/SVG/1.1/DTD/svg11.dtd">
<!-- Creator: CorelDRAW 2019 (64-Bit) -->
<svg xmlns="http://www.w3.org/2000/svg" xml:space="preserve" width="44.8217mm" height="90.3819mm" version="1.1" style="shape-rendering:geometricPrecision; text-rendering:geometricPrecision; image-rendering:optimizeQuality; fill-rule:evenodd; clip-rule:evenodd"
viewBox="0 0 493.63 995.39"
 xmlns:xlink="http://www.w3.org/1999/xlink">
 <defs>
  <style type="text/css">
   <![CDATA[
    .fil0 {fill:#256930}
    .fil1 {fill:#3D8E41}
    .fil44 {fill:#4F0D0F}
    .fil43 {fill:#500E0F}
    .fil42 {fill:#510F10}
    .fil41 {fill:#520F10}
    .fil40 {fill:#531010}
    .fil39 {fill:#541110}
    .fil38 {fill:#551211}
    .fil37 {fill:#561211}
    .fil36 {fill:#571311}
    .fil35 {fill:#581412}
    .fil34 {fill:#591512}
    .fil33 {fill:#5A1612}
    .fil32 {fill:#5B1713}
    .fil31 {fill:#5C1813}
    .fil30 {fill:#5D1813}
    .fil29 {fill:#5E1914}
    .fil28 {fill:#5F1A14}
    .fil27 {fill:#601B14}
    .fil26 {fill:#611B14}
    .fil25 {fill:#621C15}
    .fil3 {fill:#631D15}
    .fil24 {fill:#641E15}
    .fil23 {fill:#661F16}
    .fil22 {fill:#672016}
    .fil21 {fill:#692117}
    .fil20 {fill:#6A2217}
    .fil19 {fill:#6C2318}
    .fil18 {fill:#6D2418}
    .fil17 {fill:#6E2519}
    .fil16 {fill:#702619}
    .fil15 {fill:#71271A}
    .fil14 {fill:#73291A}
    .fil13 {fill:#742A1B}
    .fil12 {fill:#762B1B}
    .fil11 {fill:#772C1C}
    .fil10 {fill:#782D1C}
    .fil9 {fill:#7A2E1D}
    .fil8 {fill:#7B2F1D}
    .fil7 {fill:#7D301E}
    .fil6 {fill:#7E311E}
    .fil5 {fill:#80321F}
    .fil4 {fill:#81331F}
    .fil2 {fill:#256930;fill-rule:nonzero}
   ]]>
  </style>
 </defs>
 <g id="Слой_x0020_1">
  <metadata id="CorelCorpID_0Corel-Layer"/>
  <g id="_2987301590976">
   <path class="fil0" d="M168.67 479.06c-4.55,1.49 -20.41,28.21 -35.82,30.22 -16.23,7.67 -43.18,7.29 -54.84,-1.47 1.15,-5.04 6.82,-12.22 10.31,-16.07 24.06,-23.03 41.92,-23.02 64.77,-20.47 -2.8,-1.9 -17.8,-9.48 -19.92,-9.68 -4.21,-0.4 -31.3,12.78 -61.06,5 -16.9,-2.64 -26.11,-8.9 -43,-19.21 -9.18,-7.91 -25.93,-24.9 -28.7,-35.58 7.82,-7.31 32.65,-10.95 40.36,-11.42 28.06,-1.69 57.28,7.95 79,29.41 5.38,5.31 13.56,17.64 16.91,20.34 2.49,2.01 17.16,7.55 20.34,7.1 -4.41,-13.76 -10.59,-14.08 -11.49,-30.77 -0.54,-10 2.23,-21.1 11.92,-32 10.99,12.61 13.61,20.05 13.64,32.6 0.05,18.42 -11.42,25.51 -9.71,31.07 2.44,4.23 18.13,10.14 23.3,12.66 8.19,3.99 16.85,8.8 24.7,13.33 5.48,3.16 11.12,6.5 16.79,9.99 0.96,-35.67 -3.1,-76.67 -16.33,-122.74 -6.16,-21.45 -12.54,-39.11 -17.32,-42.81 -6.18,-2.94 -48.89,9.08 -66.8,-4.02 -24.34,-8.04 -51.84,-34.98 -55.27,-55.52 6.15,-4.08 19.08,-5.93 26.49,-6.46 47.56,-0.13 66.01,17.47 87.15,42.6 -1.03,-4.71 -9.07,-27.33 -11.07,-29.63 -3.96,-4.56 -44.95,-17.6 -68.08,-54.95 -14.87,-19.36 -18.24,-34.92 -25.56,-62.2 -1.71,-17.23 -2.3,-51.28 5.35,-65.06 15.28,0.14 44.55,20.81 52.98,27.93 30.68,25.88 51.41,64.62 52.75,108.2 0.33,10.78 -3.34,31.6 -2.54,37.68 0.6,4.53 10.31,24.71 14.05,27.38 8.98,-18.57 2.91,-24.99 18.41,-43.14 9.29,-10.87 23.08,-19.63 43.83,-21.36 -1.05,23.86 -5.67,34.13 -18,47.14 -18.08,19.1 -36.93,15.14 -40.64,22.58 -0.65,2.72 9.78,22.91 17.06,46 13.57,43.05 26.77,69.07 38.38,83.13 -11.86,-74.84 22.54,-122.51 18.6,-165.3 -0.77,-8.36 -11.97,-35.06 -14.78,-49.56 -11.38,-58.62 4.6,-116.63 37.76,-160.48 9.11,-12.05 41.96,-48.51 62.33,-53.32 14.39,16.09 23.89,61.76 26.81,85.29 -1.53,38.66 -1.32,60.45 -15.34,90.82 -19.6,56.88 -70.42,86.7 -74.33,93.98 -13.13,24.45 -19.89,115.28 -15.5,171.61 0.38,-0.13 0.77,-0.27 1.14,-0.43 12.01,-5.26 51.22,-95.94 52.7,-107.17 0.8,-6.08 -2.87,-26.9 -2.54,-37.68 1.35,-43.58 22.07,-82.32 52.75,-108.2 8.43,-7.11 37.7,-27.78 52.98,-27.93 7.65,13.78 7.06,47.83 5.35,65.06 -7.32,27.29 -10.68,42.84 -25.56,62.2 -23.13,37.35 -64.12,50.4 -68.08,54.95 -2,2.3 -10.04,24.92 -11.07,29.63 21.13,-25.13 39.58,-42.73 87.15,-42.6 7.41,0.53 20.34,2.38 26.49,6.46 -3.43,20.54 -30.94,47.47 -55.27,55.52 -17.91,13.1 -60.62,1.08 -66.8,4.02 -12.09,9.37 -34.46,108.14 -37.53,131.62 -3.35,25.63 -6.41,52.73 -5.23,79.11 0.42,9.42 3.9,58.79 6.39,68.23l3.62 6.79c6.02,-24.03 20.16,-43.99 33.61,-57.08 15,-14.6 9.98,-5.81 16.66,-29.1 16.5,-57.54 77.19,-98.7 130.33,-90.49 1.18,39.57 -30,82.34 -66.52,101.99 -9.73,5.24 -18.78,9.18 -30.69,11.96 -27.31,6.37 -32.81,-14.55 -64.34,62.16 -13.73,33.4 -15.13,37.97 -6.38,66.04 17,54.51 36.7,99.37 67.09,146.3 5,7.72 13.39,18.34 16.38,25.78l-42.06 -6.65c-28.71,-5.92 -98.09,1.33 -111.66,-1.72 -10.47,-50.09 -17.59,-106.7 -21.95,-164.11 -13.3,-18.2 -18.92,-10.03 -34.38,-12.39 -9.12,-1.39 -16.15,-3.82 -23.77,-7.19 -28.6,-12.63 -54.55,-42.95 -55.99,-72.76 39.46,-9.3 87.5,18.08 103.28,60.36 5.44,14.57 3.14,12.17 9.82,17.35 -0.94,-13.82 -1.71,-27.66 -2.34,-41.44 -1,-21.97 3.83,-157.92 3.63,-158.54 -6.57,-20.47 -31.31,-31.78 -55.11,-52.86z"/>
   <path class="fil1" d="M423.86 287.72c14.87,-19.36 18.24,-34.92 25.56,-62.2 1.71,-17.22 2.3,-51.28 -5.35,-65.06 -15.28,0.15 -44.55,20.82 -52.98,27.93 -30.68,25.88 -51.41,64.62 -52.75,108.2 -0.57,18.39 0.35,26.26 9.66,40.8 10.39,8.66 55.56,-16.88 75.87,-49.67zm-88.03 107.99c3.18,-8.81 4.26,-16.43 8.44,-23.4 17.45,-29.1 46.78,-42.72 87.59,-42.61 7.41,0.53 20.34,2.38 26.49,6.46 -3.43,20.54 -30.93,47.47 -55.27,55.52 -17.91,13.1 -61.06,1.09 -67.24,4.03zm14.21 213.52l7.19 13.7c8.4,-4.41 16.5,-1.12 29.68,-4.2 11.91,-2.78 20.96,-6.72 30.69,-11.96 36.52,-19.65 67.7,-62.43 66.52,-101.99 -51.06,-7.89 -93.9,20.93 -118.07,61.54 -7.89,13.26 -12.7,28.95 -16.01,42.91z"/>
   <path class="fil2" d="M381.63 253.59c6.62,-12.15 54.6,-91.08 62.87,-93.06 -0.06,4.78 -50.46,84.17 -57.04,96.24 -4.62,8.48 -31.48,74.37 -35.72,73.16 -4.34,-2.49 25.75,-68.74 29.89,-76.33zm8.21 335.5c9.9,-1.38 27.02,-6.63 30.18,12.49 -0.99,-0.09 -4.63,-7.02 -11.23,-9.5 -7.83,-2.94 -18.75,-1.59 -18.94,-2.99zm9.65 -57.96c2.75,4.03 7.56,23.8 -0.72,33.45 -0.59,0.69 0.93,-1.55 1.29,-11.06 0.19,-5.14 -1.43,-12.85 -0.57,-22.39zm58.34 40.39c-11.89,3.08 -17.98,-11.95 -39.67,-3.8 8.36,-15.52 35.95,-10.35 39.67,3.8zm-21.63 -57.66c6.37,6.93 7.48,9.61 1.41,19.28 13.06,-10.25 27.31,-23.14 44.04,-26.02 -7.43,11.14 -48.13,37.39 -62.94,50.43 -26.48,23.32 -48.02,46.15 -49.11,50.53l-6.45 -1.61c1.33,-5.32 23.8,-29.81 51.17,-53.91 5.71,-5.02 11.64,-10.05 17.64,-14.91 -3.51,-3.57 7.18,-11.04 4.25,-23.79zm16.16 20.49c1.3,-1.8 3.28,-3.13 5.66,-4.06 4.97,-1.96 8.93,-0.51 18.58,1.4 -3.33,1.7 -5.12,2.09 -12.14,2.67 -7.02,0.59 -9.32,1.99 -12.09,-0.01zm-42.73 -255.78c-4.29,6.69 -30.71,43.9 -40.07,37.55 -3.62,0.21 33.78,-33.11 40.07,-37.55zm0.75 55.64c2.8,7.07 0.01,12.56 -9.23,16.32 8.56,-9.62 4.95,-8.99 9.23,-16.32zm-27.8 9.35c2.05,3.94 5.17,12.37 -6.71,19.62 -0.04,-5.89 5.64,-4.01 6.71,-19.62zm16.03 28.01c6.62,3.55 7.36,7.75 7.51,14.27 -9.54,-4.77 -10.78,-13.19 -23.56,-13.04 4.41,-4.51 10.2,-4.36 16.04,-1.23zm14.47 -18.77c-5.11,2.16 -10.33,4.48 -15.5,6.91 -10.12,4.75 -52.24,32.04 -56.95,32.04 6.12,-13.63 42.97,-32.8 54.14,-38.05 22.07,-10.36 34.33,-17.49 61.48,-16.9 -18.46,5.41 -20.1,6.53 -39.39,14.43 9.06,-2.34 18.05,1.25 22.69,8.97 -5.69,-2.44 -11.66,-7.21 -26.47,-7.39zm-51.92 -116.48c6.71,5.83 11.88,27.46 10.15,36.37 -6.01,-12.72 -9.52,-25.89 -10.15,-36.37zm24.32 -40.58c9.85,7.95 14.82,24.32 6.91,35.2 1.48,-21.49 -7.55,-29.35 -6.91,-35.2zm18.95 60.56c5.96,-3.39 31.19,-7.8 34.03,0.47 -10.47,3.59 -23.97,1.45 -30.75,5.3 -9.82,5.58 -10.05,7.26 -20.84,6.57 6.78,-5.12 10.52,-8.34 17.56,-12.35zm44.22 -35.73c-2.97,0.8 -38.38,8.28 -38.66,7.47 17.56,-8.11 25.84,-14.91 38.66,-7.47z"/>
   <g>
    <path class="fil1" d="M105.27 219.96c-14.87,-19.36 -18.24,-34.92 -25.56,-62.2 -1.71,-17.22 -2.3,-51.28 5.35,-65.06 15.28,0.14 44.55,20.81 52.98,27.93 30.68,25.88 51.41,64.62 52.75,108.2 0.57,18.4 -0.35,26.27 -9.66,40.8 -10.39,8.66 -55.56,-16.88 -75.87,-49.67zm115.44 30.79c9.29,-10.87 23.08,-19.63 43.83,-21.36 -1.05,23.86 -5.67,34.13 -18,47.14 -9.59,10.13 -19.36,13.88 -27.1,16.03 -2.87,0.8 -13.59,-6.2 -11.05,-16.23 2.06,-8.14 3.7,-15.51 12.31,-25.58zm-27.42 77.2c-3.18,-8.81 -4.26,-16.43 -8.44,-23.4 -17.45,-29.1 -46.78,-42.72 -87.59,-42.61 -7.41,0.53 -20.34,2.38 -26.49,6.46 3.43,20.54 30.93,47.47 55.27,55.52 17.91,13.1 61.06,1.09 67.24,4.03z"/>
    <path class="fil2" d="M147.49 185.84c-6.62,-12.15 -54.6,-91.09 -62.87,-93.06 0.06,4.77 50.46,84.17 57.04,96.24 4.62,8.48 31.48,74.37 35.72,73.16 4.34,-2.49 -25.75,-68.74 -29.89,-76.33zm-28 24.98c4.29,6.69 30.71,43.9 40.07,37.55 3.62,0.21 -33.78,-33.11 -40.07,-37.55zm122.97 65.27c-2.85,-0.29 -13.96,3.15 -16.4,3.29 5.67,7.68 9.77,1.75 16.4,-3.29zm15.67 -26.46c-9.67,6.89 -6.36,5.86 -20.39,11.42 8.68,-10.47 13.63,-19.2 24.47,-28.5 -14.12,5.81 -24.74,18.4 -33.76,29.34 -8.36,10.12 -14.97,23.26 -14.91,24.67 11.48,-5.76 12.31,-11.1 20.03,-20.46l2.98 -3.6c4.91,5.88 18.05,-6.88 21.58,-12.87zm-35.54 19.43c-0.5,-8.18 1.84,-6.35 -1.68,-15.39 -5.05,6.17 -7.5,12.34 -2.46,19.14l4.14 -3.75zm14.08 -29.03c-4.1,1.07 -7.49,10.17 -3.87,13.09 2.06,-3.87 1.98,-6.35 3.87,-13.09zm-117.94 26.43c-2.79,7.07 -0.01,12.55 9.23,16.32 -8.56,-9.62 -4.95,-8.99 -9.23,-16.32zm27.8 9.35c-2.05,3.94 -5.17,12.38 6.71,19.62 0.04,-5.89 -5.64,-4.01 -6.71,-19.62zm-16.03 28.02c-6.62,3.54 -7.36,7.74 -7.51,14.27 9.54,-4.77 10.78,-13.19 23.56,-13.04 -4.41,-4.51 -10.2,-4.36 -16.04,-1.23zm-14.47 -18.77c5.11,2.16 10.33,4.48 15.5,6.91 10.12,4.75 52.24,32.04 56.95,32.04 -6.12,-13.63 -42.97,-32.8 -54.14,-38.05 -22.07,-10.36 -34.33,-17.49 -61.48,-16.9 18.46,5.41 20.1,6.53 39.39,14.43 -9.06,-2.34 -18.05,1.25 -22.69,8.97 5.69,-2.44 11.66,-7.21 26.47,-7.39zm51.92 -116.48c-6.7,5.83 -11.88,27.46 -10.15,36.37 6.01,-12.72 9.52,-25.89 10.15,-36.37zm-24.32 -40.58c-9.85,7.95 -14.82,24.32 -6.91,35.2 -1.47,-21.49 7.56,-29.35 6.91,-35.2zm-18.95 60.56c-5.96,-3.39 -31.19,-7.8 -34.03,0.47 10.47,3.59 23.97,1.45 30.75,5.3 9.82,5.58 10.05,7.26 20.84,6.58 -6.78,-5.12 -10.52,-8.34 -17.56,-12.35zm-44.23 -35.73c2.97,0.8 38.38,8.28 38.66,7.47 -17.56,-8.12 -25.84,-14.91 -38.66,-7.47z"/>
   </g>
   <path class="fil1" d="M71.88 466.79c-16.9,-2.64 -26.11,-8.9 -43,-19.21 -9.18,-7.91 -25.93,-24.9 -28.7,-35.58 7.82,-7.31 32.65,-10.95 40.36,-11.42 28.06,-1.69 57.28,7.95 79,29.41 9.17,9.06 12.51,13.49 14.8,25.36 -1.09,9.41 -36.33,18.27 -62.46,11.44zm73.42 -40.13c-0.54,-10 2.23,-21.1 11.92,-32 10.99,12.61 13.6,20.05 13.64,32.6 0.03,9.77 -3.12,16.39 -6,21.21 -1.07,1.79 -9.89,3.42 -13.44,-2.9 -2.89,-5.13 -5.61,-9.65 -6.11,-18.92zm23.37 52.4c-5.86,-2.93 -10.09,-6.28 -15.58,-7.8 -22.9,-6.33 -44.36,0.92 -65,20.68 -3.5,3.85 -9.16,11.03 -10.31,16.07 11.66,8.76 38.62,9.14 54.84,1.47 15.41,-2 31.5,-28.93 36.05,-30.43z"/>
   <path class="fil2" d="M76.82 429.09c-9.22,-2.96 -71.68,-19.83 -76.82,-16.85 2.33,2.39 66.24,18.32 75.4,21.27 6.44,2.07 51.87,22.52 53.44,19.86 1,-3.36 -46.26,-22.43 -52.02,-24.28zm-2.14 26.19c5.4,1.32 36.78,7.43 38.46,-0.3 1.94,-1.64 -33.13,-0.48 -38.46,0.3zm93.89 -26.27c-1.59,1.23 -5.56,8.34 -6.73,9.59 6.58,1.16 5.8,-3.83 6.73,-9.59zm-4.83 -20.99c-1.58,8.16 -0.4,6.04 -4.83,15.64 -0.65,-9.5 -2.36,-16.32 -1.35,-26.27 -4.36,9.76 -3.66,21.28 -2.96,31.18 0.65,9.17 3.64,19.03 4.35,19.71 3.05,-8.47 0.88,-11.57 0.28,-20.05l-0.23 -3.27c5.33,0.61 5.83,-12.2 4.73,-16.95zm-8.65 27.01c-4.21,-3.91 -2.13,-4.11 -8.28,-7 0.41,5.57 2.16,9.88 8,10.9l0.29 -3.9zm-6.87 -21.52c-1.56,2.52 1.11,8.77 4.35,8.51 -0.83,-2.95 -2.06,-4.17 -4.35,-8.51zm-47.05 70.35c2,4.94 6.06,6.37 12.56,3.82 -8.99,-0.75 -6.85,-2.17 -12.56,-3.82zm18.61 -8.68c0.86,2.99 3.35,8.77 12.88,6.71 -2.82,-3.01 -4.79,0.69 -12.88,-6.71zm5.4 21.95c-1.65,5 0.01,7.48 3.08,10.87 2.54,-7.03 -0.9,-11.9 5.65,-17.99 -4.41,-0.16 -7.28,2.72 -8.73,7.12zm-16.41 -2.53c3.64,-1.38 7.41,-2.72 11.2,-3.98 7.43,-2.48 41.97,-8.98 44.36,-11.25 -9.69,-3.96 -37.63,4.11 -45.84,6.85 -16.2,5.4 -25.86,7.71 -39.35,21.11 11.98,-6.18 13.35,-6.39 26.94,-11.7 -5.73,3.19 -8.55,9.35 -7.18,15.5 1.71,-3.98 2.43,-9.29 9.85,-16.53zm-29.91 -84.15c-0.59,6.19 7.24,19.67 12.42,23.35 -3.09,-9.35 -7.67,-17.73 -12.42,-23.35zm-31.93 -8.83c-1.15,8.79 4.23,19.49 13.5,21.19 -11.13,-10.19 -10.34,-18.54 -13.5,-21.19zm19.63 39.87c-4.66,1.16 -19.59,11.1 -17.03,16.67 7.05,-3.24 12.86,-10.84 18.16,-12.16 7.68,-1.91 8.6,-1.17 13.74,-6.73 -5.91,0.67 -9.36,0.85 -14.87,2.22zm-39.68 3.23c1.89,-1.03 23.47,-14.33 23.21,-14.88 -12.83,4.36 -20.31,4.92 -23.21,14.88z"/>
   <path class="fil1" d="M377 176.14c14.01,-30.36 13.8,-52.15 15.34,-90.82 -2.92,-23.53 -12.43,-69.2 -26.82,-85.29 -20.36,4.81 -53.21,41.27 -62.33,53.32 -33.16,43.85 -49.14,101.86 -37.76,160.48 4.8,24.74 8.4,34.98 25.24,51.59 16.5,8.42 69.11,-39.35 86.33,-89.29z"/>
   <path class="fil2" d="M310.28 143.32c5.17,-18.22 45.41,-138.18 55.84,-143.32 1.36,6.4 -41.96,127.68 -47.1,145.8 -3.61,12.72 -19.56,108.85 -25.59,108.53 -6.55,-2.01 13.62,-99.62 16.85,-111zm44.95 24.91c-3.7,10.23 -27.76,67.92 -42.18,62.28 -4.77,1.38 35.12,-54.45 42.18,-62.28zm-77.51 -41.79c10.72,5.76 24.17,33.1 24.55,45.52 -11.87,-15.18 -20.55,-31.71 -24.55,-45.52zm20.22 -61.55c15.56,7.64 27.15,28.01 19.87,44.93 -4.53,-29.15 -18.96,-36.92 -19.87,-44.93zm43.62 75.17c6.94,-6.33 39.3,-19.85 45.6,-9.66 -12.9,7.96 -31.58,9.18 -39.47,16.38 -11.43,10.43 -11.23,12.73 -25.85,15.08 7.5,-8.89 11.53,-14.32 19.73,-21.8zm48.27 -61.1c-3.73,1.96 -48.77,22.67 -49.38,21.66 21.01,-16.15 30.02,-27.73 49.38,-21.66z"/>
   <path class="fil1" d="M216.39 724.84l-4.56 10.74c-6.58,-2.8 -12.47,0.17 -22.56,-1.34 -9.12,-1.36 -16.16,-3.77 -23.8,-7.11 -28.64,-12.53 -54.7,-42.76 -56.24,-72.57 37.89,-9.06 71.85,9.98 92.5,39.01 6.74,9.48 11.32,20.98 14.66,31.26z"/>
   <path class="fil2" d="M185.24 712.15c-7.52,-0.43 -20.71,-3.33 -21.91,11.23 0.74,-0.13 3.05,-5.56 7.86,-7.83 5.7,-2.69 13.99,-2.34 14.05,-3.4zm-10.81 -42.96c-1.82,3.2 -4.22,18.35 2.59,25.09 0.49,0.48 -0.8,-1.1 -1.65,-8.23 -0.46,-3.85 0.29,-9.74 -0.94,-16.86zm-41.36 33.93c9.12,1.59 12.78,-10.08 29.58,-5.28 -7.23,-11.15 -27.65,-5.57 -29.58,5.28zm12.72 -44.65c-4.37,5.6 -5.03,7.68 0.12,14.58 -10.45,-6.9 -21.94,-15.72 -34.69,-16.85 6.27,7.92 38.46,25.15 50.39,34.04 21.33,15.9 38.91,31.74 40,34.96l4.75 -1.61c-1.32,-3.92 -19.71,-20.94 -41.75,-37.37 -4.6,-3.43 -9.36,-6.84 -14.17,-10.13 2.42,-2.9 -6.07,-7.86 -4.65,-17.62zm-10.89 16.39c-1.09,-1.27 -2.66,-2.15 -4.5,-2.71 -3.85,-1.17 -6.74,0.16 -13.88,2.19 2.61,1.07 3.98,1.25 9.29,1.26 5.31,0.01 7.12,0.93 9.09,-0.75z"/>
   <g>
    <path class="fil3" d="M441.76 995.23l-294.4 0.01 -16.94 0.16c45.64,-88.45 276.38,-102.96 363.21,-0.14l-50.69 -0.02 -1.18 -0.01z"/>
    <path class="fil4" d="M425.2 995.22l-272.43 -0.04 -22.34 0.21c13.69,-26.53 32.94,-48.15 51.86,-63.38 29.89,-24.07 46.84,-24.22 73.95,-39.3l29.45 -4.66c20.11,-4.15 41.48,0.41 50.98,-1.73 11.11,11.16 130.83,23.58 156.97,108.94l-66.87 -0.02 -1.56 -0.01z"/>
    <g>
     <path class="fil5" d="M425.99 995.22c-88.82,-0.01 -177.64,-0.02 -266.47,-0.03 -9.43,0.07 -18.86,0.13 -28.29,0.2 12.77,-25.27 30.84,-45.85 48.58,-60.36 29.01,-23.98 46.25,-24.95 73.47,-39.9 10.75,-2.06 21.81,-3.87 32.92,-5.39 20.92,-3.99 43.1,0.58 53.79,-0.9 12.23,11.19 127.71,23.89 153.64,106.41 -22.03,-0.01 -44.07,-0.02 -66.1,-0.02 -0.52,-0 -1.03,-0.01 -1.55,-0.01z"/>
     <path class="fil6" d="M426.77 995.22c-86.83,-0.01 -173.67,-0.02 -260.5,-0.03 -11.41,0.06 -22.82,0.13 -34.23,0.19 11.85,-24 28.73,-43.55 45.3,-57.33 28.13,-23.89 45.66,-25.69 72.98,-40.49 11.68,-2.57 23.98,-4.63 36.4,-6.12 21.73,-3.84 44.72,0.76 56.61,-0.06 13.34,11.21 124.59,24.2 150.3,103.88 -21.78,-0.01 -43.55,-0.02 -65.33,-0.02 -0.51,-0 -1.02,-0.01 -1.53,-0.01z"/>
     <path class="fil7" d="M427.56 995.22c-84.85,-0.01 -169.69,-0.02 -254.54,-0.03 -13.39,0.06 -26.79,0.12 -40.18,0.18 10.93,-22.73 26.63,-41.26 42.03,-54.31 27.25,-23.79 45.06,-26.42 72.5,-41.08 12.62,-3.07 26.15,-5.39 39.87,-6.85 22.54,-3.69 46.34,0.94 59.42,0.78 14.46,11.24 121.47,24.51 146.97,101.35 -21.52,-0.01 -43.04,-0.01 -64.56,-0.02 -0.5,-0 -1.01,-0.01 -1.51,-0.01z"/>
     <path class="fil8" d="M428.35 995.22c-82.86,-0.01 -165.72,-0.02 -248.58,-0.03 -15.37,0.06 -30.75,0.11 -46.13,0.17 10.01,-21.47 24.52,-38.96 38.75,-51.28 26.37,-23.7 44.47,-27.15 72.02,-41.68 13.55,-3.58 28.32,-6.15 43.34,-7.58 23.35,-3.53 47.96,1.12 62.24,1.62 15.58,11.27 118.34,24.82 143.63,98.81 -21.26,-0.01 -42.52,-0.01 -63.79,-0.02 -0.5,-0 -0.99,-0.01 -1.49,-0.01z"/>
     <path class="fil9" d="M429.14 995.22c-80.87,-0.01 -161.74,-0.02 -242.61,-0.03 -17.36,0.05 -34.71,0.11 -52.07,0.16 9.09,-20.2 22.41,-36.66 35.48,-48.25 25.49,-23.61 43.88,-27.88 71.53,-42.28 14.48,-4.09 30.49,-6.91 46.81,-8.31 24.16,-3.38 49.59,1.3 65.05,2.46 16.69,11.29 115.22,25.13 140.3,96.28 -21.01,-0.01 -42.01,-0.01 -63.02,-0.02 -0.49,-0 -0.98,-0.01 -1.47,-0.01z"/>
     <path class="fil10" d="M429.93 995.22c-78.88,-0.01 -157.77,-0.02 -236.65,-0.03 -19.34,0.05 -38.68,0.1 -58.02,0.15 8.17,-18.94 20.31,-34.36 32.2,-45.23 24.61,-23.51 43.28,-28.62 71.05,-42.87 15.41,-4.59 32.67,-7.67 50.28,-9.04 24.97,-3.22 51.21,1.47 67.87,3.29 17.81,11.32 112.1,25.44 136.97,93.75 -20.75,-0.01 -41.5,-0.01 -62.25,-0.02 -0.48,-0 -0.97,-0.01 -1.45,-0.01z"/>
     <path class="fil11" d="M430.72 995.22c-76.9,-0.01 -153.79,-0.02 -230.69,-0.02 -21.32,0.05 -42.64,0.09 -63.96,0.14 7.25,-17.67 18.2,-32.06 28.93,-42.2 23.73,-23.42 42.69,-29.35 70.57,-43.47 16.35,-5.1 34.84,-8.43 53.76,-9.77 25.78,-3.07 52.83,1.65 70.68,4.13 18.93,11.35 108.97,25.75 133.63,91.22 -20.49,-0.01 -40.98,-0.01 -61.48,-0.02 -0.48,-0 -0.96,-0.01 -1.44,-0.01z"/>
     <path class="fil12" d="M431.51 995.22c-74.91,-0.01 -149.82,-0.01 -224.72,-0.02 -23.3,0.04 -46.6,0.09 -69.91,0.13 6.32,-16.41 16.09,-29.77 25.65,-39.18 22.85,-23.33 42.1,-30.08 70.08,-44.06 17.28,-5.61 37.01,-9.19 57.23,-10.5 26.59,-2.92 54.45,1.83 73.5,4.97 20.04,11.37 105.85,26.06 130.3,88.69 -20.23,-0.01 -40.47,-0.01 -60.71,-0.02 -0.47,-0 -0.95,-0.01 -1.42,-0.01z"/>
     <path class="fil13" d="M432.29 995.23c-72.92,-0.01 -145.84,-0.01 -218.76,-0.02 -25.28,0.04 -50.57,0.08 -75.85,0.12 5.4,-15.14 13.99,-27.47 22.37,-36.15 21.97,-23.23 41.5,-30.81 69.6,-44.66 18.21,-6.11 39.18,-9.95 60.7,-11.23 27.4,-2.76 56.07,2.01 76.31,5.81 21.16,11.4 102.73,26.37 126.97,86.16 -19.98,-0.01 -39.96,-0.01 -59.94,-0.02 -0.47,-0 -0.93,-0.01 -1.4,-0.01z"/>
     <path class="fil14" d="M433.08 995.23c-70.93,-0.01 -141.86,-0.01 -212.8,-0.02 -27.27,0.04 -54.53,0.07 -81.8,0.11 4.48,-13.87 11.88,-25.17 19.1,-33.13 21.09,-23.14 40.91,-31.55 69.12,-45.25 19.15,-6.62 41.35,-10.72 64.17,-11.96 28.21,-2.61 57.69,2.19 79.13,6.65 22.27,11.43 99.61,26.68 123.63,83.63 -19.72,-0.01 -39.44,-0.01 -59.17,-0.02 -0.46,-0 -0.92,-0.01 -1.38,-0.01z"/>
     <path class="fil15" d="M433.87 995.23c-68.94,-0.01 -137.89,-0.01 -206.83,-0.02 -29.25,0.03 -58.5,0.07 -87.74,0.1 3.56,-12.61 9.77,-22.87 15.82,-30.1 20.21,-23.05 40.32,-32.28 68.63,-45.85 20.08,-7.13 43.52,-11.48 67.64,-12.69 29.02,-2.45 59.31,2.36 81.94,7.48 23.39,11.45 96.48,26.99 120.3,81.1 -19.46,-0.01 -38.93,-0.01 -58.4,-0.02 -0.45,-0 -0.91,-0.01 -1.36,-0.01z"/>
     <path class="fil16" d="M434.66 995.23c-66.96,-0.01 -133.91,-0.01 -200.87,-0.01 -31.23,0.03 -62.46,0.06 -93.69,0.09 2.64,-11.34 7.67,-20.58 12.55,-27.07 19.33,-22.95 39.73,-33.01 68.15,-46.44 21.01,-7.63 45.7,-12.24 71.12,-13.43 29.83,-2.3 60.94,2.54 84.75,8.32 24.51,11.48 93.36,27.3 116.97,78.57 -19.21,-0.01 -38.42,-0.01 -57.62,-0.02 -0.45,-0 -0.9,-0.01 -1.35,-0.01z"/>
     <path class="fil17" d="M435.45 995.23c-64.97,-0 -129.94,-0.01 -194.9,-0.01 -33.21,0.03 -66.42,0.05 -99.64,0.08 1.72,-10.07 5.56,-18.28 9.27,-24.05 18.45,-22.86 39.13,-33.74 67.67,-47.04 21.94,-8.14 47.87,-13 74.59,-14.16 30.64,-2.15 62.56,2.72 87.57,9.16 25.62,11.51 90.24,27.61 113.63,76.04 -18.95,-0.01 -37.9,-0.01 -56.85,-0.02 -0.44,-0 -0.88,-0.01 -1.33,-0.01z"/>
     <path class="fil18" d="M436.24 995.23c-62.98,-0 -125.96,-0.01 -188.94,-0.01 -35.19,0.02 -70.39,0.05 -105.58,0.07 0.8,-8.81 3.45,-15.98 5.99,-21.02 17.57,-22.77 38.54,-34.48 67.18,-47.63 22.88,-8.65 50.04,-13.76 78.06,-14.89 31.45,-1.99 64.18,2.9 90.38,10 26.74,11.53 87.12,27.92 110.3,73.51 -18.69,-0.01 -37.39,-0.01 -56.08,-0.02 -0.44,-0 -0.87,-0.01 -1.31,-0.01z"/>
     <path class="fil19" d="M437.02 995.23c-60.99,-0 -121.99,-0.01 -182.98,-0.01 -37.18,0.02 -74.35,0.04 -111.53,0.06 -0.12,-7.54 1.35,-13.68 2.72,-18 16.69,-22.67 37.95,-35.21 66.7,-48.23 23.81,-9.15 52.21,-14.52 81.53,-15.62 32.26,-1.84 65.8,3.08 93.2,10.83 27.86,11.56 83.99,28.23 106.96,70.98 -18.44,-0.01 -36.87,-0.01 -55.31,-0.02 -0.43,-0 -0.86,-0.01 -1.29,-0.01z"/>
     <path class="fil20" d="M437.81 995.23c-59.01,-0 -118.01,-0 -177.01,-0.01 -39.16,0.02 -78.31,0.03 -117.47,0.05 -1.04,-6.28 -0.76,-11.38 -0.56,-14.97 15.81,-22.58 37.35,-35.94 66.21,-48.82 24.74,-9.66 54.38,-15.28 85,-16.35 33.07,-1.69 67.42,3.26 96.01,11.67 28.97,11.58 80.87,28.54 103.63,68.45 -18.18,-0.01 -36.36,-0.01 -54.54,-0.02 -0.42,-0 -0.85,-0.01 -1.27,-0.01z"/>
     <path class="fil21" d="M438.6 995.23c-57.02,-0 -114.03,-0 -171.05,-0 -41.14,0.01 -82.28,0.03 -123.42,0.04 -1.96,-5.01 -2.87,-9.09 -3.83,-11.94 14.93,-22.49 36.76,-36.68 65.73,-49.42 25.68,-10.17 56.55,-16.04 88.48,-17.08 33.88,-1.53 69.04,3.43 98.83,12.51 30.09,11.61 77.75,28.85 100.3,65.92 -17.92,-0.01 -35.85,-0.01 -53.77,-0.02 -0.42,-0 -0.84,-0.01 -1.26,-0.01z"/>
     <path class="fil22" d="M439.39 995.23c-55.03,-0 -110.06,-0 -165.09,-0 -43.12,0.01 -86.24,0.02 -129.36,0.03 -2.88,-3.75 -4.97,-6.79 -7.11,-8.92 14.05,-22.39 36.17,-37.41 65.25,-50.01 26.61,-10.67 58.73,-16.8 91.95,-17.81 34.69,-1.38 70.67,3.61 101.64,13.35 31.21,11.64 74.62,29.16 96.96,63.39 -17.67,-0.01 -35.33,-0.01 -53,-0.02 -0.41,-0 -0.82,-0.01 -1.24,-0.01z"/>
     <path class="fil23" d="M440.18 995.23c-53.04,-0 -106.08,-0 -159.13,-0 -45.1,0.01 -90.2,0.02 -135.31,0.02 -3.8,-2.48 -7.08,-4.49 -10.39,-5.89 13.17,-22.3 35.57,-38.14 64.76,-50.61 27.54,-11.18 60.9,-17.56 95.42,-18.54 35.5,-1.22 72.29,3.79 104.46,14.19 32.32,11.66 71.5,29.47 93.63,60.86 -17.41,-0.01 -34.82,-0.01 -52.23,-0.02 -0.41,-0 -0.81,-0.01 -1.22,-0.01z"/>
     <path class="fil24" d="M440.97 995.23c-51.05,-0 -102.11,0 -153.16,0 -47.08,0 -94.17,0.01 -141.25,0.01 -4.72,-1.21 -9.19,-2.19 -13.66,-2.87 12.29,-22.2 34.98,-38.87 64.28,-51.2 28.47,-11.68 63.07,-18.32 98.89,-19.27 36.31,-1.07 73.91,3.97 107.27,15.02 33.44,11.69 68.38,29.78 90.3,58.33 -17.15,-0.01 -34.31,-0.01 -51.46,-0.02 -0.4,-0 -0.8,-0.01 -1.2,-0.01z"/>
    </g>
    <path class="fil3" d="M441.76 995.23l-294.4 0.01 -16.94 0.16c45.64,-88.45 276.38,-102.96 363.21,-0.14l-50.69 -0.02 -1.18 -0.01z"/>
    <g>
     <path class="fil25" d="M428.84 995.24c-92.92,-0.75 -185.36,-1.31 -277.57,-1.68 -4.13,-0.32 -8.02,-0.46 -11.94,-0.41 46.38,-84.23 268.97,-97.3 352.39,2.11 -17.61,-0.01 -36.31,-0.02 -55.02,-0.03 -2.99,-0.01 -5.97,-0.01 -7.87,0z"/>
     <path class="fil26" d="M415.92 995.24c-87.71,-1.51 -174.45,-2.63 -260.74,-3.37 -2.61,-0.7 -4.75,-1.02 -6.94,-0.97 47.13,-80.01 261.56,-91.64 341.58,4.37 -18.32,-0.01 -38.83,-0.03 -59.34,-0.04 -5.58,-0.01 -11.16,-0.01 -14.55,0.01z"/>
     <path class="fil27" d="M403 995.25c-82.5,-2.26 -163.55,-3.94 -243.91,-5.06 -1.09,-1.08 -1.48,-1.58 -1.94,-1.53 47.87,-75.8 254.15,-85.98 330.76,6.62 -19.03,-0.01 -41.35,-0.03 -63.67,-0.05 -8.17,-0.02 -16.35,-0.02 -21.23,0.02z"/>
     <path class="fil28" d="M390.08 995.25c-77.29,-3.01 -152.65,-5.26 -227.08,-6.75 0.43,-1.45 1.79,-2.15 3.05,-2.09 48.62,-71.58 246.74,-80.32 319.95,8.87 -19.75,-0.01 -43.87,-0.04 -68,-0.06 -10.77,-0.02 -21.53,-0.02 -27.92,0.03z"/>
     <path class="fil29" d="M377.17 995.26c-72.08,-3.76 -141.74,-6.57 -210.26,-8.44 1.95,-1.83 5.06,-2.71 8.05,-2.66 49.37,-67.36 239.33,-74.66 309.13,11.13 -20.46,-0.01 -46.39,-0.05 -72.32,-0.07 -13.36,-0.02 -26.72,-0.03 -34.6,0.04z"/>
     <path class="fil30" d="M364.25 995.26c-66.86,-4.52 -130.84,-7.89 -193.43,-10.13 3.47,-2.2 8.32,-3.27 13.05,-3.22 50.11,-63.15 231.92,-69 298.32,13.38 -21.17,-0.01 -48.91,-0.06 -76.65,-0.09 -15.95,-0.03 -31.9,-0.03 -41.29,0.05z"/>
     <path class="fil31" d="M351.33 995.27c-61.65,-5.27 -119.93,-9.2 -176.6,-11.81 4.99,-2.58 11.59,-3.84 18.04,-3.78 50.85,-58.93 224.51,-63.33 287.5,15.63 -21.88,-0.01 -51.43,-0.06 -80.98,-0.1 -18.55,-0.03 -37.09,-0.03 -47.97,0.06z"/>
     <path class="fil32" d="M338.41 995.27c-56.44,-6.02 -109.03,-10.52 -159.77,-13.5 6.51,-2.95 14.86,-4.4 23.04,-4.35 51.6,-54.71 217.1,-57.67 276.69,17.88 -22.6,-0.01 -53.95,-0.07 -85.3,-0.11 -21.14,-0.04 -42.28,-0.04 -54.65,0.07z"/>
     <path class="fil33" d="M325.49 995.28c-51.23,-6.77 -98.12,-11.83 -142.94,-15.19 8.03,-3.33 18.13,-4.96 28.04,-4.91 52.34,-50.5 209.68,-52.01 265.87,20.14 -23.31,-0.01 -56.47,-0.08 -89.63,-0.12 -23.73,-0.04 -47.46,-0.04 -61.34,0.08z"/>
     <path class="fil34" d="M312.58 995.28c-46.02,-7.53 -87.22,-13.15 -126.11,-16.88 9.55,-3.71 21.4,-5.52 33.04,-5.47 53.09,-46.28 202.27,-46.35 255.05,22.39 -24.02,-0.01 -58.99,-0.09 -93.96,-0.13 -26.32,-0.04 -52.65,-0.05 -68.02,0.09z"/>
     <path class="fil34" d="M299.66 995.29c-40.81,-8.28 -76.31,-14.46 -109.28,-18.57 11.07,-4.08 24.67,-6.09 38.03,-6.04 53.84,-42.06 194.86,-40.69 244.24,24.64 -24.73,-0.01 -61.51,-0.1 -98.29,-0.14 -28.92,-0.05 -57.83,-0.05 -74.7,0.1z"/>
     <path class="fil35" d="M286.74 995.29c-35.6,-9.03 -65.41,-15.78 -92.46,-20.26 12.59,-4.46 27.94,-6.65 43.03,-6.6 54.58,-37.85 187.45,-35.03 233.42,26.9 -25.45,-0.01 -64.03,-0.1 -102.61,-0.15 -31.51,-0.05 -63.02,-0.06 -81.39,0.11z"/>
     <path class="fil36" d="M273.82 995.3c-30.39,-9.79 -54.5,-17.09 -75.63,-21.95 14.11,-4.83 31.21,-7.21 48.03,-7.16 55.33,-33.63 180.04,-29.37 222.61,29.15 -26.16,-0.01 -66.55,-0.11 -106.94,-0.17 -34.1,-0.05 -68.2,-0.06 -88.07,0.12z"/>
     <path class="fil37" d="M260.9 995.3c-25.17,-10.54 -43.6,-18.41 -58.8,-23.64 15.63,-5.21 34.48,-7.78 53.03,-7.72 56.07,-29.41 172.63,-23.7 211.79,31.4 -26.87,-0.01 -69.07,-0.12 -111.27,-0.18 -36.7,-0.06 -73.39,-0.06 -94.76,0.13z"/>
     <path class="fil38" d="M247.99 995.31c-19.96,-11.29 -32.69,-19.72 -41.97,-25.32 17.15,-5.59 37.75,-8.34 58.02,-8.29 56.82,-25.2 165.22,-18.04 200.98,33.65 -27.58,-0.01 -71.59,-0.13 -115.59,-0.19 -39.29,-0.06 -78.58,-0.07 -101.44,0.14z"/>
     <path class="fil39" d="M235.07 995.31c-14.75,-12.04 -21.79,-21.04 -25.14,-27.01 18.67,-5.96 41.02,-8.9 63.02,-8.85 57.56,-20.98 157.81,-12.38 190.16,35.91 -28.3,-0.01 -74.11,-0.13 -119.92,-0.2 -41.88,-0.06 -83.76,-0.07 -108.12,0.15z"/>
     <path class="fil40" d="M222.15 995.32c-9.54,-12.8 -10.88,-22.35 -8.31,-28.7 20.19,-6.34 44.29,-9.47 68.02,-9.41 58.31,-16.76 150.4,-6.72 179.35,38.16 -29.01,-0.01 -76.63,-0.14 -124.25,-0.21 -44.47,-0.07 -88.95,-0.08 -114.81,0.16z"/>
     <path class="fil41" d="M209.23 995.32c-4.33,-13.55 0.02,-23.67 8.51,-30.39 21.71,-6.71 47.56,-10.03 73.02,-9.97 59.05,-12.55 142.99,-1.06 168.53,40.41 -29.72,-0.01 -79.15,-0.15 -128.57,-0.22 -47.07,-0.07 -94.13,-0.08 -121.49,0.18z"/>
     <path class="fil42" d="M196.32 995.33c0.88,-14.3 10.93,-24.98 25.34,-32.08 23.22,-7.09 50.82,-10.59 78.01,-10.54 59.8,-8.33 135.58,4.6 157.72,42.67 -30.43,-0.01 -81.67,-0.16 -132.9,-0.23 -49.66,-0.08 -99.32,-0.08 -128.17,0.18z"/>
     <path class="fil43" d="M183.4 995.33c6.09,-15.05 21.83,-26.3 42.17,-33.77 24.75,-7.46 54.09,-11.15 83.01,-11.1 60.54,-4.11 128.17,10.26 146.9,44.92 -31.15,-0.01 -84.19,-0.17 -137.23,-0.25 -52.25,-0.08 -104.51,-0.09 -134.86,0.19z"/>
    </g>
    <path class="fil44" d="M170.48 995.34c45.22,-63.23 252.43,-62.44 283.09,0.05 -63.72,-0.02 -219.4,-0.65 -283.09,-0.05z"/>
   </g>
  </g>
 </g>
</svg>
